<svg width="457" height="158" viewBox="0 0 457 158" fill="none" xmlns="http://www.w3.org/2000/svg">
<g filter="url(#filter0_d_641_6)">
<path d="M21.7159 29.7273H28.5909V127.625C28.5909 132.133 27.6629 136.034 25.8068 139.33C23.9508 142.663 21.3939 145.22 18.1364 147C14.9167 148.818 11.1856 149.727 6.94318 149.727C6.64015 149.727 6.31818 149.708 5.97727 149.67C5.63636 149.67 5.23864 149.633 4.78409 149.557L5.125 143.136C5.42803 143.136 5.71212 143.136 5.97727 143.136C6.24242 143.136 6.52652 143.136 6.82955 143.136C11.072 143.136 14.6136 141.754 17.4545 138.989C20.2955 136.261 21.7159 132.473 21.7159 127.625V29.7273ZM25.125 14.2727C23.572 14.2727 22.2462 13.7424 21.1477 12.6818C20.0492 11.6212 19.5 10.3333 19.5 8.81818C19.5 7.30303 20.0492 6.01515 21.1477 4.95454C22.2462 3.89393 23.572 3.36363 25.125 3.36363C26.6402 3.36363 27.947 3.89393 29.0455 4.95454C30.1439 6.01515 30.6932 7.30303 30.6932 8.81818C30.6932 10.3333 30.1439 11.6212 29.0455 12.6818C27.947 13.7424 26.6402 14.2727 25.125 14.2727ZM151.718 117V0.63636H158.593V49.2159H159.275C160.639 45.4659 162.57 42.0189 165.07 38.875C167.57 35.7311 170.677 33.2121 174.389 31.3182C178.101 29.3864 182.438 28.4205 187.4 28.4205C194.408 28.4205 200.525 30.3712 205.752 34.2727C210.98 38.1364 215.033 43.4773 217.911 50.2955C220.79 57.0758 222.23 64.8409 222.23 73.5909C222.23 82.4167 220.79 90.2386 217.911 97.0568C215.033 103.837 210.998 109.159 205.809 113.023C200.62 116.886 194.502 118.818 187.457 118.818C182.495 118.818 178.158 117.871 174.445 115.977C170.733 114.045 167.627 111.508 165.127 108.364C162.627 105.182 160.677 101.716 159.275 97.9659H158.48V117H151.718ZM158.536 73.5341C158.536 80.9583 159.654 87.6061 161.889 93.4773C164.161 99.3106 167.419 103.932 171.661 107.341C175.904 110.712 180.98 112.398 186.889 112.398C192.873 112.398 197.987 110.693 202.23 107.284C206.472 103.837 209.711 99.178 211.945 93.3068C214.218 87.4356 215.355 80.8447 215.355 73.5341C215.355 66.2235 214.218 59.6515 211.945 53.8182C209.711 47.9848 206.472 43.3826 202.23 40.0114C197.987 36.6023 192.873 34.8977 186.889 34.8977C180.98 34.8977 175.904 36.5833 171.661 39.9545C167.419 43.2879 164.161 47.8712 161.889 53.7045C159.654 59.5 158.536 66.1098 158.536 73.5341ZM243.793 117V0.63636H250.668V49.2159H251.35C252.714 45.4659 254.645 42.0189 257.145 38.875C259.645 35.7311 262.752 33.2121 266.464 31.3182C270.176 29.3864 274.513 28.4205 279.475 28.4205C286.483 28.4205 292.6 30.3712 297.827 34.2727C303.055 38.1364 307.108 43.4773 309.986 50.2955C312.865 57.0758 314.305 64.8409 314.305 73.5909C314.305 82.4167 312.865 90.2386 309.986 97.0568C307.108 103.837 303.073 109.159 297.884 113.023C292.695 116.886 286.577 118.818 279.532 118.818C274.57 118.818 270.233 117.871 266.52 115.977C262.808 114.045 259.702 111.508 257.202 108.364C254.702 105.182 252.752 101.716 251.35 97.9659H250.555V117H243.793ZM250.611 73.5341C250.611 80.9583 251.729 87.6061 253.964 93.4773C256.236 99.3106 259.494 103.932 263.736 107.341C267.979 110.712 273.055 112.398 278.964 112.398C284.948 112.398 290.062 110.693 294.305 107.284C298.547 103.837 301.786 99.178 304.02 93.3068C306.293 87.4356 307.43 80.8447 307.43 73.5341C307.43 66.2235 306.293 59.6515 304.02 53.8182C301.786 47.9848 298.547 43.3826 294.305 40.0114C290.062 36.6023 284.948 34.8977 278.964 34.8977C273.055 34.8977 267.979 36.5833 263.736 39.9545C259.494 43.2879 256.236 47.8712 253.964 53.7045C251.729 59.5 250.611 66.1098 250.611 73.5341ZM356.55 118.875C351.512 118.875 346.891 117.871 342.686 115.864C338.52 113.856 335.167 110.92 332.63 107.057C330.13 103.193 328.88 98.4962 328.88 92.9659C328.88 89.3295 329.523 86.1288 330.811 83.3636C332.099 80.5985 334.088 78.2121 336.777 76.2045C339.467 74.197 342.914 72.5492 347.118 71.2614C351.323 69.9356 356.342 68.9129 362.175 68.1932C366.607 67.6629 370.565 67.1515 374.05 66.6591C377.535 66.1288 380.262 65.3144 382.232 64.2159C384.239 63.1174 385.243 61.4508 385.243 59.2159V55.5795C385.243 49.2159 383.236 44.1591 379.22 40.4091C375.205 36.6591 369.675 34.7841 362.63 34.7841C356.38 34.7841 351.114 36.1667 346.834 38.9318C342.592 41.6591 339.618 45.1818 337.914 49.5L331.38 47.0568C333.046 42.8901 335.452 39.4242 338.595 36.6591C341.777 33.8939 345.414 31.8295 349.505 30.4659C353.633 29.1023 357.952 28.4205 362.459 28.4205C366.361 28.4205 370.073 28.9697 373.595 30.0682C377.156 31.1667 380.319 32.8333 383.084 35.0682C385.887 37.303 388.103 40.1629 389.732 43.6477C391.361 47.0947 392.175 51.2235 392.175 56.0341V117H385.243V101.261H384.732C383.217 104.519 381.133 107.492 378.482 110.182C375.868 112.833 372.705 114.955 368.993 116.545C365.319 118.098 361.171 118.875 356.55 118.875ZM357.232 112.455C362.686 112.455 367.516 111.129 371.72 108.477C375.963 105.788 379.277 102.114 381.664 97.4545C384.05 92.7955 385.243 87.5114 385.243 81.6023V68.7614C384.372 69.5189 383.103 70.2008 381.436 70.8068C379.808 71.375 377.952 71.8864 375.868 72.3409C373.823 72.7576 371.664 73.1364 369.391 73.4773C367.156 73.7803 364.978 74.0644 362.857 74.3295C356.493 75.0871 351.304 76.2614 347.289 77.8523C343.311 79.4053 340.395 81.4508 338.539 83.9886C336.72 86.5265 335.811 89.5947 335.811 93.1932C335.811 99.1402 337.857 103.837 341.948 107.284C346.039 110.731 351.133 112.455 357.232 112.455ZM416.438 117V29.7273H423.199V43.3636H423.824C425.718 38.8939 428.919 35.3144 433.426 32.625C437.934 29.8977 443.066 28.5341 448.824 28.5341C449.43 28.5341 450.036 28.5341 450.642 28.5341C451.248 28.5341 451.816 28.553 452.347 28.5909V35.5795C451.892 35.5417 451.343 35.4848 450.699 35.4091C450.093 35.2955 449.335 35.2386 448.426 35.2386C443.578 35.2386 439.259 36.2803 435.472 38.3636C431.722 40.447 428.767 43.3258 426.608 47C424.449 50.6364 423.369 54.803 423.369 59.5V117H416.438Z" fill="black"/>
<path d="M84.3023 118.818C76.878 118.78 70.4386 116.848 64.9841 113.023C59.5295 109.197 55.3061 103.894 52.3136 97.1136C49.3212 90.2955 47.825 82.4356 47.825 73.5341C47.825 64.7462 49.397 56.9811 52.5409 50.2386C55.6848 43.4962 60.022 38.2121 65.5523 34.3864C71.0826 30.5227 77.4273 28.5909 84.5864 28.5909C90.5333 28.5909 95.7417 29.8409 100.211 32.3409C104.681 34.8409 108.374 38.4205 111.291 43.0795C114.208 47.7386 116.31 53.3447 117.598 59.8977H119.984L121.689 73.1364L130.495 117H123.905L114.87 70.125C113.999 65.0871 112.749 60.447 111.12 56.2045C109.492 51.9242 107.446 48.2121 104.984 45.0682C102.56 41.8864 99.6621 39.4242 96.2909 37.6818C92.9197 35.9015 89.0182 35.0114 84.5864 35.0114C78.753 35.0114 73.5826 36.6591 69.075 39.9545C64.6053 43.25 61.1015 47.7955 58.5636 53.5909C56.0258 59.3864 54.7568 66.053 54.7568 73.5909C54.7568 81.1667 55.9689 87.8712 58.3932 93.7045C60.8174 99.5379 64.2455 104.121 68.6773 107.455C73.1091 110.75 78.3174 112.398 84.3023 112.398C88.2038 112.398 91.8212 111.64 95.1545 110.125C98.4879 108.572 101.461 106.299 104.075 103.307C106.689 100.277 108.905 96.5833 110.723 92.2273C112.579 87.8333 113.942 82.7765 114.814 77.0568L122.768 29.7273H129.359L121.689 73.5909L120.098 87.0568H117.995C116.442 94.7083 113.999 100.864 110.666 105.523C107.37 110.182 103.45 113.572 98.9045 115.693C94.3591 117.777 89.4917 118.818 84.3023 118.818Z" fill="#8341E6"/>
</g>
<defs>
<filter id="filter0_d_641_6" x="0.784119" y="0.636353" width="455.562" height="157.091" filterUnits="userSpaceOnUse" color-interpolation-filters="sRGB">
<feFlood flood-opacity="0" result="BackgroundImageFix"/>
<feColorMatrix in="SourceAlpha" type="matrix" values="0 0 0 0 0 0 0 0 0 0 0 0 0 0 0 0 0 0 127 0" result="hardAlpha"/>
<feOffset dy="4"/>
<feGaussianBlur stdDeviation="2"/>
<feComposite in2="hardAlpha" operator="out"/>
<feColorMatrix type="matrix" values="0 0 0 0 0 0 0 0 0 0 0 0 0 0 0 0 0 0 0.25 0"/>
<feBlend mode="normal" in2="BackgroundImageFix" result="effect1_dropShadow_641_6"/>
<feBlend mode="normal" in="SourceGraphic" in2="effect1_dropShadow_641_6" result="shape"/>
</filter>
</defs>
</svg>
