<svg width="92" height="99" viewBox="0 0 92 99" fill="none" xmlns="http://www.w3.org/2000/svg">
<g filter="url(#filter0_d_641_6)">
<mask id="path-1-outside-1_641_6" maskUnits="userSpaceOnUse" x="3" y="-1" width="86" height="93" fill="black">
<rect fill="white" x="3" y="-1" width="86" height="93"/>
<path d="M40.8523 90.8182C33.428 90.7803 26.9886 88.8485 21.5341 85.0227C16.0795 81.197 11.8561 75.8939 8.86364 69.1136C5.87121 62.2955 4.375 54.4356 4.375 45.5341C4.375 36.7462 5.94697 28.9811 9.09091 22.2386C12.2348 15.4962 16.572 10.2121 22.1023 6.38636C27.6326 2.52273 33.9773 0.59091 41.1364 0.59091C47.0833 0.59091 52.2917 1.84091 56.7614 4.34091C61.2311 6.84091 64.9242 10.4205 67.8409 15.0795C70.7576 19.7386 72.8598 25.3447 74.1477 31.8977H76.5341L78.2386 45.1364L87.0455 89H80.4545L71.4205 42.125C70.5492 37.0871 69.2992 32.447 67.6705 28.2045C66.0417 23.9242 63.9962 20.2121 61.5341 17.0682C59.1099 13.8864 56.2121 11.4242 52.8409 9.68182C49.4697 7.90151 45.5682 7.01136 41.1364 7.01136C35.303 7.01136 30.1326 8.65909 25.625 11.9545C21.1553 15.25 17.6515 19.7955 15.1136 25.5909C12.5758 31.3864 11.3068 38.053 11.3068 45.5909C11.3068 53.1667 12.5189 59.8712 14.9432 65.7045C17.3674 71.5379 20.7955 76.1212 25.2273 79.4545C29.6591 82.75 34.8674 84.3977 40.8523 84.3977C44.7538 84.3977 48.3712 83.6402 51.7045 82.125C55.0379 80.572 58.0114 78.2992 60.625 75.3068C63.2386 72.2765 65.4545 68.5833 67.2727 64.2273C69.1288 59.8333 70.4924 54.7765 71.3636 49.0568L79.3182 1.72727H85.9091L78.2386 45.5909L76.6477 59.0568H74.5455C72.9924 66.7083 70.5492 72.8636 67.2159 77.5227C63.9205 82.1818 60 85.572 55.4545 87.6932C50.9091 89.7765 46.0417 90.8182 40.8523 90.8182Z"/>
</mask>
<path d="M40.8523 90.8182C33.428 90.7803 26.9886 88.8485 21.5341 85.0227C16.0795 81.197 11.8561 75.8939 8.86364 69.1136C5.87121 62.2955 4.375 54.4356 4.375 45.5341C4.375 36.7462 5.94697 28.9811 9.09091 22.2386C12.2348 15.4962 16.572 10.2121 22.1023 6.38636C27.6326 2.52273 33.9773 0.59091 41.1364 0.59091C47.0833 0.59091 52.2917 1.84091 56.7614 4.34091C61.2311 6.84091 64.9242 10.4205 67.8409 15.0795C70.7576 19.7386 72.8598 25.3447 74.1477 31.8977H76.5341L78.2386 45.1364L87.0455 89H80.4545L71.4205 42.125C70.5492 37.0871 69.2992 32.447 67.6705 28.2045C66.0417 23.9242 63.9962 20.2121 61.5341 17.0682C59.1099 13.8864 56.2121 11.4242 52.8409 9.68182C49.4697 7.90151 45.5682 7.01136 41.1364 7.01136C35.303 7.01136 30.1326 8.65909 25.625 11.9545C21.1553 15.25 17.6515 19.7955 15.1136 25.5909C12.5758 31.3864 11.3068 38.053 11.3068 45.5909C11.3068 53.1667 12.5189 59.8712 14.9432 65.7045C17.3674 71.5379 20.7955 76.1212 25.2273 79.4545C29.6591 82.75 34.8674 84.3977 40.8523 84.3977C44.7538 84.3977 48.3712 83.6402 51.7045 82.125C55.0379 80.572 58.0114 78.2992 60.625 75.3068C63.2386 72.2765 65.4545 68.5833 67.2727 64.2273C69.1288 59.8333 70.4924 54.7765 71.3636 49.0568L79.3182 1.72727H85.9091L78.2386 45.5909L76.6477 59.0568H74.5455C72.9924 66.7083 70.5492 72.8636 67.2159 77.5227C63.9205 82.1818 60 85.572 55.4545 87.6932C50.9091 89.7765 46.0417 90.8182 40.8523 90.8182Z" fill="#8341E6" shape-rendering="crispEdges"/>
<path d="M40.8523 90.8182L40.8472 91.8182H40.8523V90.8182ZM21.5341 85.0227L22.1083 84.204L22.1083 84.204L21.5341 85.0227ZM8.86364 69.1136L7.94794 69.5155L7.94877 69.5174L8.86364 69.1136ZM9.09091 22.2386L9.99722 22.6612L9.99722 22.6612L9.09091 22.2386ZM22.1023 6.38636L22.6712 7.20876L22.675 7.20612L22.1023 6.38636ZM74.1477 31.8977L73.1665 32.0906L73.3251 32.8977H74.1477V31.8977ZM76.5341 31.8977L77.5259 31.77L77.4136 30.8977H76.5341V31.8977ZM78.2386 45.1364L77.2468 45.2641L77.2513 45.2988L77.2582 45.3332L78.2386 45.1364ZM87.0455 89V90H88.2662L88.0259 88.8032L87.0455 89ZM80.4545 89L79.4726 89.1892L79.6289 90H80.4545V89ZM71.4205 42.125L70.4351 42.2954L70.4367 42.3048L70.4385 42.3142L71.4205 42.125ZM67.6705 28.2045L66.7358 28.5602L66.7369 28.563L67.6705 28.2045ZM61.5341 17.0682L60.7386 17.6743L60.7468 17.6847L61.5341 17.0682ZM52.8409 9.68182L52.3739 10.5661L52.3818 10.5702L52.8409 9.68182ZM25.625 11.9545L25.0348 11.1473L25.0316 11.1497L25.625 11.9545ZM15.1136 25.5909L14.1976 25.1898L14.1976 25.1898L15.1136 25.5909ZM14.9432 65.7045L15.8666 65.3208L15.8666 65.3208L14.9432 65.7045ZM25.2273 79.4545L24.6262 80.2537L24.6306 80.257L25.2273 79.4545ZM51.7045 82.125L52.1184 83.0354L52.1269 83.0314L51.7045 82.125ZM60.625 75.3068L61.3782 75.9647L61.3822 75.9599L60.625 75.3068ZM67.2727 64.2273L66.3515 63.8381L66.3499 63.8421L67.2727 64.2273ZM71.3636 49.0568L70.3775 48.8911L70.3762 48.8986L70.375 48.9062L71.3636 49.0568ZM79.3182 1.72727V0.72727H78.4722L78.332 1.56153L79.3182 1.72727ZM85.9091 1.72727L86.8941 1.89953L87.0991 0.72727H85.9091V1.72727ZM78.2386 45.5909L77.2536 45.4187L77.2488 45.446L77.2455 45.4736L78.2386 45.5909ZM76.6477 59.0568V60.0568H77.5365L77.6408 59.1741L76.6477 59.0568ZM74.5455 59.0568V58.0568H73.728L73.5654 58.8579L74.5455 59.0568ZM67.2159 77.5227L66.4026 76.9409L66.3995 76.9453L67.2159 77.5227ZM55.4545 87.6932L55.8712 88.6023L55.8774 88.5994L55.4545 87.6932ZM40.8574 89.8182C33.6126 89.7812 27.3772 87.8996 22.1083 84.204L20.9599 85.8414C26.6001 89.7974 33.2435 91.7794 40.8472 91.8182L40.8574 89.8182ZM22.1083 84.204C16.8194 80.4944 12.7058 75.3427 9.7785 68.7099L7.94877 69.5174C11.0063 76.4452 15.3397 81.8995 20.9599 85.8414L22.1083 84.204ZM9.77933 68.7118C6.85227 62.0425 5.375 54.3238 5.375 45.5341H3.375C3.375 54.5474 4.89015 62.5484 7.94795 69.5155L9.77933 68.7118ZM5.375 45.5341C5.375 36.866 6.92518 29.2495 9.99722 22.6612L8.1846 21.816C4.96876 28.7126 3.375 36.6264 3.375 45.5341H5.375ZM9.99722 22.6612C13.0743 16.0621 17.302 10.9231 22.6712 7.20875L21.5334 5.56397C15.842 9.50116 11.3953 14.9303 8.1846 21.816L9.99722 22.6612ZM22.675 7.20612C28.0268 3.46718 34.1689 1.59091 41.1364 1.59091V-0.40909C33.7857 -0.40909 27.2383 1.57827 21.5296 5.5666L22.675 7.20612ZM41.1364 1.59091C46.9402 1.59091 51.9752 2.80969 56.2732 5.21367L57.2495 3.46815C52.6081 0.87213 47.2265 -0.40909 41.1364 -0.40909V1.59091ZM56.2732 5.21367C60.5856 7.62566 64.1591 11.0828 66.9933 15.6102L68.6885 14.5489C65.6894 9.75815 61.8766 6.05616 57.2495 3.46815L56.2732 5.21367ZM66.9933 15.6102C69.8329 20.1462 71.8973 25.6323 73.1665 32.0906L75.129 31.7049C73.8224 25.057 71.6822 19.3311 68.6885 14.5489L66.9933 15.6102ZM74.1477 32.8977H76.5341V30.8977H74.1477V32.8977ZM75.5423 32.0254L77.2468 45.2641L79.2305 45.0087L77.5259 31.77L75.5423 32.0254ZM77.2582 45.3332L86.065 89.1968L88.0259 88.8032L79.2191 44.9395L77.2582 45.3332ZM87.0455 88H80.4545V90H87.0455V88ZM81.4365 88.8108L72.4024 41.9358L70.4385 42.3142L79.4726 89.1892L81.4365 88.8108ZM72.4058 41.9546C71.5249 36.8603 70.2588 32.1564 68.604 27.8461L66.7369 28.563C68.3396 32.7376 69.5736 37.3139 70.4351 42.2954L72.4058 41.9546ZM68.6051 27.8489C66.9457 23.4882 64.8538 19.6853 62.3214 16.4516L60.7468 17.6847C63.1387 20.739 65.1376 24.3603 66.7358 28.5602L68.6051 27.8489ZM62.3295 16.4621C59.8205 13.169 56.81 10.6076 53.3001 8.79346L52.3818 10.5702C55.6142 12.2409 58.3992 14.6037 60.7387 17.6742L62.3295 16.4621ZM53.3079 8.79754C49.771 6.92974 45.7044 6.01136 41.1364 6.01136V8.01136C45.432 8.01136 49.1684 8.87328 52.3739 10.5661L53.3079 8.79754ZM41.1364 6.01136C35.101 6.01136 29.7217 7.72074 25.0348 11.1473L26.2152 12.7618C30.5435 9.59743 35.5051 8.01136 41.1364 8.01136V6.01136ZM25.0316 11.1497C20.4021 14.5629 16.7958 19.2565 14.1976 25.1898L16.0297 25.992C18.5072 20.3344 21.9085 15.9371 26.2184 12.7594L25.0316 11.1497ZM14.1976 25.1898C11.5948 31.1335 10.3068 37.941 10.3068 45.5909H12.3068C12.3068 38.1651 13.5567 31.6392 16.0297 25.992L14.1976 25.1898ZM10.3068 45.5909C10.3068 53.2727 11.536 60.1117 14.0198 66.0883L15.8666 65.3208C13.5019 59.6307 12.3068 53.0606 12.3068 45.5909H10.3068ZM14.0198 66.0883C16.5028 72.063 20.0328 76.7989 24.6262 80.2537L25.8284 78.6554C21.5581 75.4435 18.2321 71.0127 15.8666 65.3208L14.0198 66.0883ZM24.6306 80.257C29.2496 83.6916 34.6715 85.3977 40.8523 85.3977V83.3977C35.0633 83.3977 30.0686 81.8084 25.824 78.6521L24.6306 80.257ZM40.8523 85.3977C44.887 85.3977 48.6467 84.6134 52.1183 83.0354L51.2907 81.2146C48.0958 82.6669 44.6206 83.3977 40.8523 83.3977V85.3977ZM52.1269 83.0314C55.5965 81.4149 58.6803 79.0536 61.3782 75.9646L59.8718 74.649C57.3425 77.5449 54.4792 79.729 51.2822 81.2186L52.1269 83.0314ZM61.3822 75.9599C64.076 72.8368 66.3438 69.049 68.1956 64.6125L66.3499 63.8421C64.5653 68.1177 62.4013 71.7163 59.8678 74.6537L61.3822 75.9599ZM68.1939 64.6164C70.0882 60.1319 71.4711 54.9924 72.3522 49.2074L70.375 48.9062C69.5138 54.5607 68.1693 59.5348 66.3515 63.8382L68.1939 64.6164ZM72.3498 49.2226L80.3043 1.89301L78.332 1.56153L70.3775 48.8911L72.3498 49.2226ZM79.3182 2.72727H85.9091V0.72727H79.3182V2.72727ZM84.924 1.55501L77.2536 45.4187L79.2237 45.7632L86.8941 1.89953L84.924 1.55501ZM77.2455 45.4736L75.6546 58.9395L77.6408 59.1741L79.2317 45.7082L77.2455 45.4736ZM76.6477 58.0568H74.5455V60.0568H76.6477V58.0568ZM73.5654 58.8579C72.0308 66.4186 69.63 72.4298 66.4026 76.9409L68.0292 78.1046C71.4684 73.2975 73.954 66.9981 75.5255 59.2557L73.5654 58.8579ZM66.3995 76.9453C63.1904 81.4823 59.3989 84.7489 55.0317 86.787L55.8774 88.5994C60.6011 86.395 64.6505 82.8813 68.0323 78.1002L66.3995 76.9453ZM55.0379 86.7841C50.6281 88.8052 45.9034 89.8182 40.8523 89.8182V91.8182C46.1799 91.8182 51.19 90.7478 55.8712 88.6022L55.0379 86.7841Z" fill="black" fill-opacity="0.5" mask="url(#path-1-outside-1_641_6)"/>
</g>
<defs>
<filter id="filter0_d_641_6" x="0.375" y="0.590942" width="90.6705" height="98.2272" filterUnits="userSpaceOnUse" color-interpolation-filters="sRGB">
<feFlood flood-opacity="0" result="BackgroundImageFix"/>
<feColorMatrix in="SourceAlpha" type="matrix" values="0 0 0 0 0 0 0 0 0 0 0 0 0 0 0 0 0 0 127 0" result="hardAlpha"/>
<feOffset dy="4"/>
<feGaussianBlur stdDeviation="2"/>
<feComposite in2="hardAlpha" operator="out"/>
<feColorMatrix type="matrix" values="0 0 0 0 0 0 0 0 0 0 0 0 0 0 0 0 0 0 0.25 0"/>
<feBlend mode="normal" in2="BackgroundImageFix" result="effect1_dropShadow_641_6"/>
<feBlend mode="normal" in="SourceGraphic" in2="effect1_dropShadow_641_6" result="shape"/>
</filter>
</defs>
</svg>
