<svg width="402" height="133" viewBox="0 0 402 133" fill="none" xmlns="http://www.w3.org/2000/svg">
<g filter="url(#filter0_d_601_10)">
<mask id="path-1-outside-1_601_10" maskUnits="userSpaceOnUse" x="3" y="-1" width="396" height="127" fill="black">
<rect fill="white" x="3" y="-1" width="396" height="127"/>
<path d="M15.8671 28.1818H32.3216V102C32.3216 107.03 31.3671 111.182 29.458 114.455C27.5489 117.727 24.7913 120.167 21.1852 121.773C17.5792 123.379 13.2004 124.182 8.04887 124.182C7.44281 124.182 6.8822 124.167 6.36705 124.136C5.8519 124.136 5.29129 124.121 4.68523 124.091V110.682C5.13978 110.712 5.54887 110.727 5.91251 110.727C6.27614 110.758 6.65493 110.773 7.04887 110.773C10.2004 110.773 12.458 110 13.8216 108.455C15.1852 106.939 15.8671 104.712 15.8671 101.773V28.1818ZM24.0489 18.2727C21.4125 18.2727 19.1549 17.4091 17.2761 15.6818C15.4277 13.9242 14.5034 11.8182 14.5034 9.36363C14.5034 6.87878 15.4277 4.77272 17.2761 3.04545C19.1549 1.28787 21.4125 0.409088 24.0489 0.409088C26.6549 0.409088 28.8822 1.28787 30.7307 3.04545C32.6095 4.77272 33.5489 6.87878 33.5489 9.36363C33.5489 11.8182 32.6095 13.9242 30.7307 15.6818C28.8822 17.4091 26.6549 18.2727 24.0489 18.2727ZM125.289 98V4.90909H141.744V39.7273H142.426C143.274 38.0303 144.471 36.2273 146.017 34.3182C147.562 32.3788 149.653 30.7273 152.289 29.3636C154.926 27.9697 158.289 27.2727 162.38 27.2727C167.774 27.2727 172.638 28.6515 176.971 31.4091C181.335 34.1364 184.789 38.1818 187.335 43.5455C189.911 48.8788 191.198 55.4242 191.198 63.1818C191.198 70.8485 189.941 77.3636 187.426 82.7273C184.911 88.0909 181.486 92.1818 177.153 95C172.82 97.8182 167.911 99.2273 162.426 99.2273C158.426 99.2273 155.108 98.5606 152.471 97.2273C149.835 95.8939 147.714 94.2879 146.108 92.4091C144.532 90.5 143.304 88.697 142.426 87H141.471V98H125.289ZM141.426 63.0909C141.426 67.6061 142.062 71.5606 143.335 74.9545C144.638 78.3485 146.501 81 148.926 82.9091C151.38 84.7879 154.35 85.7273 157.835 85.7273C161.471 85.7273 164.517 84.7576 166.971 82.8182C169.426 80.8485 171.274 78.1667 172.517 74.7727C173.789 71.3485 174.426 67.4545 174.426 63.0909C174.426 58.7576 173.804 54.9091 172.562 51.5455C171.32 48.1818 169.471 45.5455 167.017 43.6364C164.562 41.7273 161.501 40.7727 157.835 40.7727C154.32 40.7727 151.335 41.697 148.88 43.5455C146.426 45.3939 144.562 47.9848 143.289 51.3182C142.047 54.6515 141.426 58.5758 141.426 63.0909ZM202.074 98V4.90909H218.529V39.7273H219.211C220.059 38.0303 221.256 36.2273 222.802 34.3182C224.347 32.3788 226.438 30.7273 229.074 29.3636C231.711 27.9697 235.074 27.2727 239.165 27.2727C244.559 27.2727 249.423 28.6515 253.756 31.4091C258.12 34.1364 261.574 38.1818 264.12 43.5455C266.696 48.8788 267.983 55.4242 267.983 63.1818C267.983 70.8485 266.726 77.3636 264.211 82.7273C261.696 88.0909 258.271 92.1818 253.938 95C249.605 97.8182 244.696 99.2273 239.211 99.2273C235.211 99.2273 231.893 98.5606 229.256 97.2273C226.62 95.8939 224.499 94.2879 222.893 92.4091C221.317 90.5 220.089 88.697 219.211 87H218.256V98H202.074ZM218.211 63.0909C218.211 67.6061 218.847 71.5606 220.12 74.9545C221.423 78.3485 223.286 81 225.711 82.9091C228.165 84.7879 231.135 85.7273 234.62 85.7273C238.256 85.7273 241.302 84.7576 243.756 82.8182C246.211 80.8485 248.059 78.1667 249.302 74.7727C250.574 71.3485 251.211 67.4545 251.211 63.0909C251.211 58.7576 250.589 54.9091 249.347 51.5455C248.105 48.1818 246.256 45.5455 243.802 43.6364C241.347 41.7273 238.286 40.7727 234.62 40.7727C231.105 40.7727 228.12 41.697 225.665 43.5455C223.211 45.3939 221.347 47.9848 220.074 51.3182C218.832 54.6515 218.211 58.5758 218.211 63.0909ZM357.292 98V28.1818H373.247V39.8182H373.974C375.247 35.7879 377.428 32.6818 380.519 30.5C383.641 28.2879 387.201 27.1818 391.201 27.1818C392.11 27.1818 393.125 27.2273 394.247 27.3182C395.398 27.3788 396.353 27.4848 397.11 27.6364V42.7727C396.413 42.5303 395.307 42.3182 393.792 42.1364C392.307 41.9242 390.868 41.8182 389.474 41.8182C386.474 41.8182 383.777 42.4697 381.383 43.7727C379.019 45.0455 377.156 46.8182 375.792 49.0909C374.428 51.3636 373.747 53.9848 373.747 56.9545V98H357.292Z"/>
<path d="M72.2657 99.4545C66.4172 99.3939 61.2505 97.8182 56.7657 94.7273C52.3111 91.6364 48.8263 87.3636 46.3111 81.9091C43.796 76.4545 42.5384 70.1818 42.5384 63.0909C42.5384 56.0303 43.8566 49.8182 46.493 44.4545C49.1293 39.0606 52.7202 34.8485 57.2657 31.8182C61.8111 28.7879 66.9475 27.2727 72.6748 27.2727C76.6142 27.2727 80.1293 28 83.2202 29.4545C86.3111 30.8788 88.9627 32.8939 91.1748 35.5C93.3869 38.0758 95.1748 41.0909 96.5384 44.5455H101.811L105.584 62.9091L114.311 98H101.038L92.8566 62.9091C92.4021 60.6364 91.7354 58.2273 90.8566 55.6818C89.9778 53.1061 88.8415 50.697 87.4475 48.4545C86.0536 46.1818 84.3111 44.3333 82.2202 42.9091C80.1596 41.4848 77.6899 40.7727 74.8111 40.7727C71.5081 40.7727 68.6445 41.7273 66.2202 43.6364C63.8263 45.5151 61.9627 48.1364 60.6293 51.5C59.3263 54.8636 58.6748 58.7121 58.6748 63.0455C58.6748 67.3788 59.3111 71.2727 60.5839 74.7273C61.8869 78.1515 63.7051 80.8485 66.0384 82.8182C68.3718 84.7576 71.0687 85.7273 74.1293 85.7273C76.8869 85.7273 79.3263 85 81.4475 83.5455C83.5687 82.0606 85.3869 80.1667 86.9021 77.8636C88.4172 75.5303 89.6596 73.0758 90.6293 70.5C91.6293 67.8939 92.3718 65.4848 92.8566 63.2727L100.266 28.1818H113.402L105.584 63.2727L101.811 81.5455H96.8566C95.5233 85 93.7354 88.0909 91.493 90.8182C89.2808 93.5152 86.5839 95.6364 83.4021 97.1818C80.2202 98.7273 76.5081 99.4848 72.2657 99.4545ZM304.996 99.4545C299.147 99.3939 293.981 97.8182 289.496 94.7273C285.041 91.6364 281.556 87.3636 279.041 81.9091C276.526 76.4545 275.268 70.1818 275.268 63.0909C275.268 56.0303 276.587 49.8182 279.223 44.4545C281.859 39.0606 285.45 34.8485 289.996 31.8182C294.541 28.7879 299.678 27.2727 305.405 27.2727C309.344 27.2727 312.859 28 315.95 29.4545C319.041 30.8788 321.693 32.8939 323.905 35.5C326.117 38.0758 327.905 41.0909 329.268 44.5455H334.541L338.314 62.9091L347.041 98H333.768L325.587 62.9091C325.132 60.6364 324.465 58.2273 323.587 55.6818C322.708 53.1061 321.571 50.697 320.178 48.4545C318.784 46.1818 317.041 44.3333 314.95 42.9091C312.89 41.4848 310.42 40.7727 307.541 40.7727C304.238 40.7727 301.374 41.7273 298.95 43.6364C296.556 45.5151 294.693 48.1364 293.359 51.5C292.056 54.8636 291.405 58.7121 291.405 63.0455C291.405 67.3788 292.041 71.2727 293.314 74.7273C294.617 78.1515 296.435 80.8485 298.768 82.8182C301.102 84.7576 303.799 85.7273 306.859 85.7273C309.617 85.7273 312.056 85 314.178 83.5455C316.299 82.0606 318.117 80.1667 319.632 77.8636C321.147 75.5303 322.39 73.0758 323.359 70.5C324.359 67.8939 325.102 65.4848 325.587 63.2727L332.996 28.1818H346.132L338.314 63.2727L334.541 81.5455H329.587C328.253 85 326.465 88.0909 324.223 90.8182C322.011 93.5152 319.314 95.6364 316.132 97.1818C312.95 98.7273 309.238 99.4848 304.996 99.4545Z"/>
</mask>
<path d="M15.8671 28.1818H32.3216V102C32.3216 107.03 31.3671 111.182 29.458 114.455C27.5489 117.727 24.7913 120.167 21.1852 121.773C17.5792 123.379 13.2004 124.182 8.04887 124.182C7.44281 124.182 6.8822 124.167 6.36705 124.136C5.8519 124.136 5.29129 124.121 4.68523 124.091V110.682C5.13978 110.712 5.54887 110.727 5.91251 110.727C6.27614 110.758 6.65493 110.773 7.04887 110.773C10.2004 110.773 12.458 110 13.8216 108.455C15.1852 106.939 15.8671 104.712 15.8671 101.773V28.1818ZM24.0489 18.2727C21.4125 18.2727 19.1549 17.4091 17.2761 15.6818C15.4277 13.9242 14.5034 11.8182 14.5034 9.36363C14.5034 6.87878 15.4277 4.77272 17.2761 3.04545C19.1549 1.28787 21.4125 0.409088 24.0489 0.409088C26.6549 0.409088 28.8822 1.28787 30.7307 3.04545C32.6095 4.77272 33.5489 6.87878 33.5489 9.36363C33.5489 11.8182 32.6095 13.9242 30.7307 15.6818C28.8822 17.4091 26.6549 18.2727 24.0489 18.2727ZM125.289 98V4.90909H141.744V39.7273H142.426C143.274 38.0303 144.471 36.2273 146.017 34.3182C147.562 32.3788 149.653 30.7273 152.289 29.3636C154.926 27.9697 158.289 27.2727 162.38 27.2727C167.774 27.2727 172.638 28.6515 176.971 31.4091C181.335 34.1364 184.789 38.1818 187.335 43.5455C189.911 48.8788 191.198 55.4242 191.198 63.1818C191.198 70.8485 189.941 77.3636 187.426 82.7273C184.911 88.0909 181.486 92.1818 177.153 95C172.82 97.8182 167.911 99.2273 162.426 99.2273C158.426 99.2273 155.108 98.5606 152.471 97.2273C149.835 95.8939 147.714 94.2879 146.108 92.4091C144.532 90.5 143.304 88.697 142.426 87H141.471V98H125.289ZM141.426 63.0909C141.426 67.6061 142.062 71.5606 143.335 74.9545C144.638 78.3485 146.501 81 148.926 82.9091C151.38 84.7879 154.35 85.7273 157.835 85.7273C161.471 85.7273 164.517 84.7576 166.971 82.8182C169.426 80.8485 171.274 78.1667 172.517 74.7727C173.789 71.3485 174.426 67.4545 174.426 63.0909C174.426 58.7576 173.804 54.9091 172.562 51.5455C171.32 48.1818 169.471 45.5455 167.017 43.6364C164.562 41.7273 161.501 40.7727 157.835 40.7727C154.32 40.7727 151.335 41.697 148.88 43.5455C146.426 45.3939 144.562 47.9848 143.289 51.3182C142.047 54.6515 141.426 58.5758 141.426 63.0909ZM202.074 98V4.90909H218.529V39.7273H219.211C220.059 38.0303 221.256 36.2273 222.802 34.3182C224.347 32.3788 226.438 30.7273 229.074 29.3636C231.711 27.9697 235.074 27.2727 239.165 27.2727C244.559 27.2727 249.423 28.6515 253.756 31.4091C258.12 34.1364 261.574 38.1818 264.12 43.5455C266.696 48.8788 267.983 55.4242 267.983 63.1818C267.983 70.8485 266.726 77.3636 264.211 82.7273C261.696 88.0909 258.271 92.1818 253.938 95C249.605 97.8182 244.696 99.2273 239.211 99.2273C235.211 99.2273 231.893 98.5606 229.256 97.2273C226.62 95.8939 224.499 94.2879 222.893 92.4091C221.317 90.5 220.089 88.697 219.211 87H218.256V98H202.074ZM218.211 63.0909C218.211 67.6061 218.847 71.5606 220.12 74.9545C221.423 78.3485 223.286 81 225.711 82.9091C228.165 84.7879 231.135 85.7273 234.62 85.7273C238.256 85.7273 241.302 84.7576 243.756 82.8182C246.211 80.8485 248.059 78.1667 249.302 74.7727C250.574 71.3485 251.211 67.4545 251.211 63.0909C251.211 58.7576 250.589 54.9091 249.347 51.5455C248.105 48.1818 246.256 45.5455 243.802 43.6364C241.347 41.7273 238.286 40.7727 234.62 40.7727C231.105 40.7727 228.12 41.697 225.665 43.5455C223.211 45.3939 221.347 47.9848 220.074 51.3182C218.832 54.6515 218.211 58.5758 218.211 63.0909ZM357.292 98V28.1818H373.247V39.8182H373.974C375.247 35.7879 377.428 32.6818 380.519 30.5C383.641 28.2879 387.201 27.1818 391.201 27.1818C392.11 27.1818 393.125 27.2273 394.247 27.3182C395.398 27.3788 396.353 27.4848 397.11 27.6364V42.7727C396.413 42.5303 395.307 42.3182 393.792 42.1364C392.307 41.9242 390.868 41.8182 389.474 41.8182C386.474 41.8182 383.777 42.4697 381.383 43.7727C379.019 45.0455 377.156 46.8182 375.792 49.0909C374.428 51.3636 373.747 53.9848 373.747 56.9545V98H357.292Z" fill="white"/>
<path d="M72.2657 99.4545C66.4172 99.3939 61.2505 97.8182 56.7657 94.7273C52.3111 91.6364 48.8263 87.3636 46.3111 81.9091C43.796 76.4545 42.5384 70.1818 42.5384 63.0909C42.5384 56.0303 43.8566 49.8182 46.493 44.4545C49.1293 39.0606 52.7202 34.8485 57.2657 31.8182C61.8111 28.7879 66.9475 27.2727 72.6748 27.2727C76.6142 27.2727 80.1293 28 83.2202 29.4545C86.3111 30.8788 88.9627 32.8939 91.1748 35.5C93.3869 38.0758 95.1748 41.0909 96.5384 44.5455H101.811L105.584 62.9091L114.311 98H101.038L92.8566 62.9091C92.4021 60.6364 91.7354 58.2273 90.8566 55.6818C89.9778 53.1061 88.8415 50.697 87.4475 48.4545C86.0536 46.1818 84.3111 44.3333 82.2202 42.9091C80.1596 41.4848 77.6899 40.7727 74.8111 40.7727C71.5081 40.7727 68.6445 41.7273 66.2202 43.6364C63.8263 45.5151 61.9627 48.1364 60.6293 51.5C59.3263 54.8636 58.6748 58.7121 58.6748 63.0455C58.6748 67.3788 59.3111 71.2727 60.5839 74.7273C61.8869 78.1515 63.7051 80.8485 66.0384 82.8182C68.3718 84.7576 71.0687 85.7273 74.1293 85.7273C76.8869 85.7273 79.3263 85 81.4475 83.5455C83.5687 82.0606 85.3869 80.1667 86.9021 77.8636C88.4172 75.5303 89.6596 73.0758 90.6293 70.5C91.6293 67.8939 92.3718 65.4848 92.8566 63.2727L100.266 28.1818H113.402L105.584 63.2727L101.811 81.5455H96.8566C95.5233 85 93.7354 88.0909 91.493 90.8182C89.2808 93.5152 86.5839 95.6364 83.4021 97.1818C80.2202 98.7273 76.5081 99.4848 72.2657 99.4545ZM304.996 99.4545C299.147 99.3939 293.981 97.8182 289.496 94.7273C285.041 91.6364 281.556 87.3636 279.041 81.9091C276.526 76.4545 275.268 70.1818 275.268 63.0909C275.268 56.0303 276.587 49.8182 279.223 44.4545C281.859 39.0606 285.45 34.8485 289.996 31.8182C294.541 28.7879 299.678 27.2727 305.405 27.2727C309.344 27.2727 312.859 28 315.95 29.4545C319.041 30.8788 321.693 32.8939 323.905 35.5C326.117 38.0758 327.905 41.0909 329.268 44.5455H334.541L338.314 62.9091L347.041 98H333.768L325.587 62.9091C325.132 60.6364 324.465 58.2273 323.587 55.6818C322.708 53.1061 321.571 50.697 320.178 48.4545C318.784 46.1818 317.041 44.3333 314.95 42.9091C312.89 41.4848 310.42 40.7727 307.541 40.7727C304.238 40.7727 301.374 41.7273 298.95 43.6364C296.556 45.5151 294.693 48.1364 293.359 51.5C292.056 54.8636 291.405 58.7121 291.405 63.0455C291.405 67.3788 292.041 71.2727 293.314 74.7273C294.617 78.1515 296.435 80.8485 298.768 82.8182C301.102 84.7576 303.799 85.7273 306.859 85.7273C309.617 85.7273 312.056 85 314.178 83.5455C316.299 82.0606 318.117 80.1667 319.632 77.8636C321.147 75.5303 322.39 73.0758 323.359 70.5C324.359 67.8939 325.102 65.4848 325.587 63.2727L332.996 28.1818H346.132L338.314 63.2727L334.541 81.5455H329.587C328.253 85 326.465 88.0909 324.223 90.8182C322.011 93.5152 319.314 95.6364 316.132 97.1818C312.95 98.7273 309.238 99.4848 304.996 99.4545Z" fill="#8341E6"/>
<path d="M15.8671 28.1818V27.1818H14.8671V28.1818H15.8671ZM32.3216 28.1818H33.3216V27.1818H32.3216V28.1818ZM29.458 114.455L30.3217 114.958L30.3217 114.958L29.458 114.455ZM21.1852 121.773L20.7784 120.859L20.7784 120.859L21.1852 121.773ZM6.36705 124.136L6.42578 123.138L6.39644 123.136H6.36705V124.136ZM4.68523 124.091H3.68523V125.042L4.6353 125.09L4.68523 124.091ZM4.68523 110.682L4.75175 109.684L3.68523 109.613V110.682H4.68523ZM5.91251 110.727L5.99555 109.731L5.9541 109.727H5.91251V110.727ZM13.8216 108.455L13.0783 107.786L13.0718 107.793L13.8216 108.455ZM17.2761 15.6818L16.5871 16.4065L16.5932 16.4123L16.5993 16.418L17.2761 15.6818ZM17.2761 3.04545L17.9589 3.7761L17.9593 3.77572L17.2761 3.04545ZM30.7307 3.04545L30.0416 3.77015L30.0477 3.77593L30.0539 3.78162L30.7307 3.04545ZM30.7307 15.6818L31.4134 16.4125L31.4138 16.4121L30.7307 15.6818ZM15.8671 29.1818H32.3216V27.1818H15.8671V29.1818ZM31.3216 28.1818V102H33.3216V28.1818H31.3216ZM31.3216 102C31.3216 106.909 30.3895 110.873 28.5942 113.951L30.3217 114.958C32.3446 111.491 33.3216 107.151 33.3216 102H31.3216ZM28.5942 113.951C26.7953 117.034 24.2015 119.335 20.7784 120.859L21.5921 122.686C25.3811 120.999 28.3024 118.42 30.3217 114.958L28.5942 113.951ZM20.7784 120.859C17.3331 122.394 13.1011 123.182 8.04887 123.182V125.182C13.2997 125.182 17.8253 124.364 21.5921 122.686L20.7784 120.859ZM8.04887 123.182C7.45913 123.182 6.91836 123.167 6.42578 123.138L6.30833 125.135C6.84605 125.166 7.42649 125.182 8.04887 125.182V123.182ZM6.36705 123.136C5.87116 123.136 5.32743 123.122 4.73517 123.092L4.6353 125.09C5.25516 125.121 5.83264 125.136 6.36705 125.136V123.136ZM5.68523 124.091V110.682H3.68523V124.091H5.68523ZM4.61872 111.68C5.09015 111.711 5.52197 111.727 5.91251 111.727V109.727C5.57577 109.727 5.18941 109.713 4.75175 109.684L4.61872 111.68ZM5.82946 111.724C6.22279 111.757 6.62938 111.773 7.04887 111.773V109.773C6.68048 109.773 6.32949 109.759 5.99555 109.731L5.82946 111.724ZM7.04887 111.773C10.3355 111.773 12.9365 110.969 14.5714 109.116L13.0718 107.793C11.9794 109.031 10.0653 109.773 7.04887 109.773V111.773ZM14.5649 109.124C16.154 107.358 16.8671 104.851 16.8671 101.773H14.8671C14.8671 104.573 14.2165 106.521 13.0783 107.786L14.5649 109.124ZM16.8671 101.773V28.1818H14.8671V101.773H16.8671ZM24.0489 17.2727C21.6541 17.2727 19.6406 16.4972 17.9529 14.9456L16.5993 16.418C18.6693 18.321 21.1709 19.2727 24.0489 19.2727V17.2727ZM17.9652 14.9571C16.3065 13.38 15.5034 11.5324 15.5034 9.36363H13.5034C13.5034 12.104 14.5488 14.4685 16.5871 16.4065L17.9652 14.9571ZM15.5034 9.36363C15.5034 7.16141 16.3086 5.31816 17.9589 3.7761L16.5934 2.31479C14.5467 4.22728 13.5034 6.59616 13.5034 9.36363H15.5034ZM17.9593 3.77572C19.6478 2.19615 21.6592 1.40909 24.0489 1.40909V-0.590912C21.1658 -0.590912 18.6621 0.379599 16.593 2.31518L17.9593 3.77572ZM24.0489 1.40909C26.4046 1.40909 28.3835 2.19354 30.0416 3.77015L31.4197 2.32075C29.3809 0.38221 26.9052 -0.590912 24.0489 -0.590912V1.40909ZM30.0539 3.78162C31.733 5.32534 32.5489 7.16706 32.5489 9.36363H34.5489C34.5489 6.5905 33.4859 4.22011 31.4075 2.30928L30.0539 3.78162ZM32.5489 9.36363C32.5489 11.5267 31.7351 13.3728 30.0475 14.9515L31.4138 16.4121C33.4838 14.4757 34.5489 12.1096 34.5489 9.36363H32.5489ZM30.0479 14.9512C28.3908 16.4997 26.4099 17.2727 24.0489 17.2727V19.2727C26.9 19.2727 29.3737 18.3185 31.4134 16.4125L30.0479 14.9512ZM72.2657 99.4545L72.2553 100.454L72.2586 100.455L72.2657 99.4545ZM56.7657 94.7273L56.1956 95.5489L56.1982 95.5507L56.7657 94.7273ZM46.3111 81.9091L47.2193 81.4904L47.2193 81.4904L46.3111 81.9091ZM46.493 44.4545L47.3904 44.8957L47.3914 44.8937L46.493 44.4545ZM57.2657 31.8182L56.711 30.9861L56.711 30.9861L57.2657 31.8182ZM83.2202 29.4545L82.7944 30.3594L82.8017 30.3628L83.2202 29.4545ZM91.1748 35.5L90.4124 36.1471L90.4162 36.1515L91.1748 35.5ZM96.5384 44.5455L95.6083 44.9126L95.8581 45.5455H96.5384V44.5455ZM101.811 44.5455L102.791 44.3442L102.627 43.5455H101.811V44.5455ZM105.584 62.9091L104.604 63.1103L104.608 63.1305L104.613 63.1504L105.584 62.9091ZM114.311 98V99H115.59L115.282 97.7586L114.311 98ZM101.038 98L100.065 98.2271L100.245 99H101.038V98ZM92.8566 62.9091L91.876 63.1052L91.8791 63.1207L91.8827 63.1362L92.8566 62.9091ZM90.8566 55.6818L89.9102 56.0047L89.9113 56.0082L90.8566 55.6818ZM87.4475 48.4545L86.5951 48.9774L86.5982 48.9825L87.4475 48.4545ZM82.2202 42.9091L81.6516 43.7317L81.6573 43.7356L82.2202 42.9091ZM66.2202 43.6364L66.8376 44.423L66.8389 44.422L66.2202 43.6364ZM60.6293 51.5L59.6997 51.1315L59.6969 51.1388L60.6293 51.5ZM60.5839 74.7273L59.6455 75.073L59.6493 75.0829L60.5839 74.7273ZM66.0384 82.8182L65.3933 83.5823L65.3992 83.5872L66.0384 82.8182ZM81.4475 83.5455L82.0131 84.3702L82.021 84.3647L81.4475 83.5455ZM86.9021 77.8636L87.7375 78.4133L87.7407 78.4082L86.9021 77.8636ZM90.6293 70.5L89.6957 70.1417L89.6935 70.1477L90.6293 70.5ZM92.8566 63.2727L93.8334 63.4868L93.835 63.4793L92.8566 63.2727ZM100.266 28.1818V27.1818H99.4548L99.2873 27.9752L100.266 28.1818ZM113.402 28.1818L114.378 28.3993L114.649 27.1818H113.402V28.1818ZM105.584 63.2727L104.608 63.0553L104.606 63.0629L104.605 63.0705L105.584 63.2727ZM101.811 81.5455V82.5455H102.626L102.79 81.7477L101.811 81.5455ZM96.8566 81.5455V80.5455H96.1707L95.9237 81.1854L96.8566 81.5455ZM91.493 90.8182L90.7205 90.1831L90.7198 90.184L91.493 90.8182ZM72.2761 98.4546C66.6113 98.3959 61.6418 96.8733 57.3332 93.9039L56.1982 95.5507C60.8593 98.763 66.2231 100.392 72.2553 100.454L72.2761 98.4546ZM57.3358 93.9057C53.0432 90.9272 49.668 86.8008 47.2193 81.4904L45.403 82.3278C47.9846 87.9265 51.579 92.3455 56.1956 95.5489L57.3358 93.9057ZM47.2193 81.4904C44.7746 76.1887 43.5384 70.0631 43.5384 63.0909H41.5384C41.5384 70.3006 42.8174 76.7204 45.403 82.3278L47.2193 81.4904ZM43.5384 63.0909C43.5384 56.1557 44.8327 50.0993 47.3904 44.8957L45.5955 44.0134C42.8805 49.5371 41.5384 55.9049 41.5384 63.0909H43.5384ZM47.3914 44.8937C49.9579 39.6426 53.4366 35.5728 57.8204 32.6502L56.711 30.9861C52.0039 34.1242 48.3007 38.4786 45.5945 44.0154L47.3914 44.8937ZM57.8204 32.6502C62.1934 29.7349 67.1349 28.2727 72.6748 28.2727V26.2727C66.7602 26.2727 61.4289 27.8409 56.711 30.9861L57.8204 32.6502ZM72.6748 28.2727C76.4895 28.2727 79.8557 28.9764 82.7944 30.3594L83.646 28.5497C80.403 27.0236 76.7389 26.2727 72.6748 26.2727V28.2727ZM82.8017 30.3628C85.7598 31.7258 88.2941 33.6516 90.4124 36.1471L91.9372 34.8529C89.6312 32.1363 86.8625 30.0318 83.6387 28.5463L82.8017 30.3628ZM90.4162 36.1515C92.5492 38.6352 94.2817 41.5521 95.6083 44.9126L97.4686 44.1783C96.0678 40.6298 94.2247 37.5164 91.9334 34.8485L90.4162 36.1515ZM96.5384 45.5455H101.811V43.5455H96.5384V45.5455ZM100.832 44.7467L104.604 63.1103L106.563 62.7078L102.791 44.3442L100.832 44.7467ZM104.613 63.1504L113.341 98.2414L115.282 97.7586L106.554 62.6677L104.613 63.1504ZM114.311 97H101.038V99H114.311V97ZM102.012 97.7729L93.8305 62.682L91.8827 63.1362L100.065 98.2271L102.012 97.7729ZM93.8372 62.713C93.3725 60.3897 92.693 57.9369 91.8019 55.3555L89.9113 56.0082C90.7777 58.5177 91.4316 60.883 91.876 63.1052L93.8372 62.713ZM91.803 55.3589C90.9005 52.7136 89.732 50.2354 88.2968 47.9266L86.5982 48.9825C87.9509 51.1585 89.0551 53.4986 89.9102 56.0047L91.803 55.3589ZM88.2999 47.9317C86.8361 45.5451 84.9972 43.5907 82.7832 42.0826L81.6573 43.7356C83.625 45.0759 85.271 46.8186 86.5951 48.9774L88.2999 47.9317ZM82.7888 42.0865C80.5371 40.5301 77.8618 39.7727 74.8111 39.7727V41.7727C77.5181 41.7727 79.7822 42.4396 81.6517 43.7317L82.7888 42.0865ZM74.8111 39.7727C71.3006 39.7727 68.215 40.7927 65.6015 42.8507L66.8389 44.422C69.074 42.6619 71.7156 41.7727 74.8111 41.7727V39.7727ZM65.6029 42.8497C63.0454 44.8568 61.0859 47.6345 59.6997 51.1315L61.559 51.8685C62.8394 48.6382 64.6072 46.1735 66.8376 44.423L65.6029 42.8497ZM59.6969 51.1388C58.3412 54.6382 57.6748 58.6128 57.6748 63.0455H59.6748C59.6748 58.8114 60.3114 55.089 61.5618 51.8612L59.6969 51.1388ZM57.6748 63.0455C57.6748 67.4763 58.3255 71.4901 59.6455 75.073L61.5222 74.3816C60.2968 71.0554 59.6748 67.2813 59.6748 63.0455H57.6748ZM59.6493 75.0829C61.0006 78.6341 62.9068 81.4833 65.3934 83.5823L66.6835 82.054C64.5033 80.2137 62.7732 77.669 61.5185 74.3716L59.6493 75.0829ZM65.3992 83.5872C67.9138 85.6773 70.8375 86.7273 74.1293 86.7273V84.7273C71.3 84.7273 68.8297 83.8379 66.6776 82.0491L65.3992 83.5872ZM74.1293 86.7273C77.0735 86.7273 79.7131 85.9473 82.013 84.3702L80.882 82.7207C78.9395 84.0527 76.7004 84.7273 74.1293 84.7273V86.7273ZM82.021 84.3647C84.2523 82.8027 86.1574 80.815 87.7375 78.4133L86.0666 77.314C84.6164 79.5183 82.8851 81.3185 80.874 82.7262L82.021 84.3647ZM87.7407 78.4082C89.2947 76.0152 90.5699 73.4962 91.5652 70.8523L89.6935 70.1477C88.7494 72.6553 87.5397 75.0454 86.0634 77.319L87.7407 78.4082ZM91.563 70.8583C92.577 68.2156 93.3357 65.7577 93.8334 63.4868L91.8798 63.0586C91.4078 65.212 90.6817 67.5723 89.6957 70.1417L91.563 70.8583ZM93.835 63.4793L101.244 28.3884L99.2873 27.9752L91.8782 63.0661L93.835 63.4793ZM100.266 29.1818H113.402V27.1818H100.266V29.1818ZM112.426 27.9644L104.608 63.0553L106.56 63.4902L114.378 28.3993L112.426 27.9644ZM104.605 63.0705L100.832 81.3433L102.79 81.7477L106.563 63.4749L104.605 63.0705ZM101.811 80.5455H96.8566V82.5455H101.811V80.5455ZM95.9237 81.1854C94.6269 84.5452 92.8919 87.5423 90.7205 90.1831L92.2654 91.4533C94.5789 88.6395 96.4196 85.4548 97.7895 81.9055L95.9237 81.1854ZM90.7198 90.184C88.6006 92.7677 86.0189 94.7991 82.9652 96.2823L83.839 98.0813C87.1488 96.4737 89.9611 94.2626 92.2661 91.4524L90.7198 90.184ZM82.9652 96.2823C79.9466 97.7485 76.3918 98.484 72.2728 98.4546L72.2586 100.455C76.6244 100.486 80.4939 99.7061 83.839 98.0813L82.9652 96.2823ZM125.289 98H124.289V99H125.289V98ZM125.289 4.90909V3.90909H124.289V4.90909H125.289ZM141.744 4.90909H142.744V3.90909H141.744V4.90909ZM141.744 39.7273H140.744V40.7273H141.744V39.7273ZM142.426 39.7273V40.7273H143.044L143.32 40.1745L142.426 39.7273ZM146.017 34.3182L146.794 34.9474L146.799 34.9414L146.017 34.3182ZM152.289 29.3636L152.749 30.2519L152.757 30.2477L152.289 29.3636ZM176.971 31.4091L176.434 32.2528L176.441 32.2571L176.971 31.4091ZM187.335 43.5455L186.431 43.9742L186.434 43.9803L187.335 43.5455ZM187.426 82.7273L186.52 82.3027L186.52 82.3027L187.426 82.7273ZM177.153 95L177.698 95.8383L177.698 95.8383L177.153 95ZM152.471 97.2273L152.02 98.1196L152.02 98.1196L152.471 97.2273ZM146.108 92.4091L145.336 93.0457L145.342 93.0523L145.347 93.0589L146.108 92.4091ZM142.426 87L143.314 86.5401L143.034 86H142.426V87ZM141.471 87V86H140.471V87H141.471ZM141.471 98V99H142.471V98H141.471ZM143.335 74.9545L142.398 75.3057L142.401 75.313L143.335 74.9545ZM148.926 82.9091L148.307 83.6948L148.318 83.7032L148.926 82.9091ZM166.971 82.8182L167.591 83.6028L167.597 83.5981L166.971 82.8182ZM172.517 74.7727L171.579 74.4243L171.578 74.429L172.517 74.7727ZM172.562 51.5455L173.5 51.199L173.5 51.199L172.562 51.5455ZM167.017 43.6364L167.631 42.847L167.631 42.847L167.017 43.6364ZM148.88 43.5455L148.279 42.7466L148.279 42.7466L148.88 43.5455ZM143.289 51.3182L142.355 50.9615L142.352 50.9689L143.289 51.3182ZM126.289 98V4.90909H124.289V98H126.289ZM125.289 5.90909H141.744V3.90909H125.289V5.90909ZM140.744 4.90909V39.7273H142.744V4.90909H140.744ZM141.744 40.7273H142.426V38.7273H141.744V40.7273ZM143.32 40.1745C144.128 38.5579 145.281 36.8157 146.794 34.9474L145.239 33.689C143.661 35.6388 142.42 37.5027 141.531 39.2801L143.32 40.1745ZM146.799 34.9414C148.241 33.1315 150.213 31.5634 152.749 30.2518L151.83 28.4754C149.093 29.8912 146.883 31.626 145.235 33.695L146.799 34.9414ZM152.757 30.2477C155.206 28.9529 158.395 28.2727 162.38 28.2727V26.2727C158.184 26.2727 154.646 26.9865 151.822 28.4796L152.757 30.2477ZM162.38 28.2727C167.594 28.2727 172.27 29.6025 176.434 32.2527L177.508 30.5654C173.006 27.7005 167.954 26.2727 162.38 26.2727V28.2727ZM176.441 32.2571C180.619 34.8683 183.955 38.756 186.431 43.9742L188.238 43.1167C185.624 37.6077 182.05 33.4044 177.501 30.5611L176.441 32.2571ZM186.434 43.9803C188.928 49.1428 190.198 55.5301 190.198 63.1818H192.198C192.198 55.3184 190.894 48.6148 188.235 43.1106L186.434 43.9803ZM190.198 63.1818C190.198 70.7432 188.958 77.105 186.52 82.3027L188.331 83.1518C190.924 77.6223 192.198 70.9537 192.198 63.1818H190.198ZM186.52 82.3027C184.072 87.5227 180.763 91.4593 176.608 94.1617L177.698 95.8383C182.21 92.9043 185.749 88.6591 188.331 83.1518L186.52 82.3027ZM176.608 94.1617C172.447 96.8678 167.729 98.2273 162.426 98.2273V100.227C168.092 100.227 173.192 98.7686 177.698 95.8383L176.608 94.1617ZM162.426 98.2273C158.53 98.2273 155.378 97.577 152.922 96.3349L152.02 98.1196C154.837 99.5442 158.322 100.227 162.426 100.227V98.2273ZM152.922 96.3349C150.381 95.0498 148.373 93.52 146.868 91.7593L145.347 93.0589C147.054 95.0557 149.288 96.7381 152.02 98.1196L152.922 96.3349ZM146.879 91.7725C145.336 89.903 144.152 88.159 143.314 86.5401L141.538 87.4599C142.457 89.235 143.728 91.097 145.336 93.0457L146.879 91.7725ZM142.426 86H141.471V88H142.426V86ZM140.471 87V98H142.471V87H140.471ZM141.471 97H125.289V99H141.471V97ZM140.426 63.0909C140.426 67.6976 141.075 71.7757 142.398 75.3057L144.271 74.6034C143.049 71.3455 142.426 67.5145 142.426 63.0909H140.426ZM142.401 75.313C143.757 78.8448 145.718 81.6557 148.307 83.6947L149.544 82.1235C147.285 80.3443 145.518 77.8521 144.268 74.5961L142.401 75.313ZM148.318 83.7032C150.969 85.7323 154.16 86.7273 157.835 86.7273V84.7273C154.54 84.7273 151.792 83.8434 149.534 82.115L148.318 83.7032ZM157.835 86.7273C161.658 86.7273 164.932 85.7037 167.591 83.6028L166.351 82.0335C164.101 83.8115 161.284 84.7273 157.835 84.7273V86.7273ZM167.597 83.5981C170.214 81.4982 172.16 78.6558 173.456 75.1165L171.578 74.429C170.388 77.6776 168.638 80.1988 166.345 82.0383L167.597 83.5981ZM173.454 75.1211C174.775 71.5661 175.426 67.5509 175.426 63.0909H173.426C173.426 67.3582 172.803 71.1309 171.579 74.4243L173.454 75.1211ZM175.426 63.0909C175.426 58.6633 174.791 54.694 173.5 51.199L171.624 51.8919C172.818 55.1242 173.426 58.8519 173.426 63.0909H175.426ZM173.5 51.199C172.203 47.6877 170.254 44.8873 167.631 42.847L166.403 44.4257C168.689 46.2036 170.436 48.6759 171.624 51.8919L173.5 51.199ZM167.631 42.847C164.97 40.778 161.682 39.7727 157.835 39.7727V41.7727C161.32 41.7727 164.154 42.6765 166.403 44.4257L167.631 42.847ZM157.835 39.7727C154.135 39.7727 150.931 40.7492 148.279 42.7466L149.482 44.3443C151.739 42.6447 154.504 41.7727 157.835 41.7727V39.7727ZM148.279 42.7466C145.651 44.7255 143.684 47.4813 142.355 50.9615L144.224 51.6749C145.44 48.4884 147.2 46.0623 149.482 44.3443L148.279 42.7466ZM142.352 50.9689C141.059 54.4395 140.426 58.4872 140.426 63.0909H142.426C142.426 58.6643 143.035 54.8635 144.226 51.6674L142.352 50.9689ZM202.074 98H201.074V99H202.074V98ZM202.074 4.90909V3.90909H201.074V4.90909H202.074ZM218.529 4.90909H219.529V3.90909H218.529V4.90909ZM218.529 39.7273H217.529V40.7273H218.529V39.7273ZM219.211 39.7273V40.7273H219.829L220.105 40.1745L219.211 39.7273ZM222.802 34.3182L223.579 34.9474L223.584 34.9414L222.802 34.3182ZM229.074 29.3636L229.534 30.2519L229.542 30.2477L229.074 29.3636ZM253.756 31.4091L253.219 32.2528L253.226 32.2571L253.756 31.4091ZM264.12 43.5455L263.216 43.9742L263.219 43.9803L264.12 43.5455ZM264.211 82.7273L263.305 82.3027L263.305 82.3027L264.211 82.7273ZM253.938 95L254.483 95.8383L254.483 95.8383L253.938 95ZM229.256 97.2273L228.805 98.1196L228.805 98.1196L229.256 97.2273ZM222.893 92.4091L222.121 93.0457L222.127 93.0523L222.132 93.0589L222.893 92.4091ZM219.211 87L220.099 86.5401L219.819 86H219.211V87ZM218.256 87V86H217.256V87H218.256ZM218.256 98V99H219.256V98H218.256ZM220.12 74.9545L219.183 75.3057L219.186 75.313L220.12 74.9545ZM225.711 82.9091L225.092 83.6948L225.103 83.7032L225.711 82.9091ZM243.756 82.8182L244.376 83.6028L244.382 83.5981L243.756 82.8182ZM249.302 74.7727L248.364 74.4243L248.363 74.429L249.302 74.7727ZM249.347 51.5455L250.285 51.199L250.285 51.199L249.347 51.5455ZM243.802 43.6364L244.416 42.847L244.416 42.847L243.802 43.6364ZM225.665 43.5455L225.064 42.7466L225.064 42.7466L225.665 43.5455ZM220.074 51.3182L219.14 50.9615L219.137 50.9689L220.074 51.3182ZM203.074 98V4.90909H201.074V98H203.074ZM202.074 5.90909H218.529V3.90909H202.074V5.90909ZM217.529 4.90909V39.7273H219.529V4.90909H217.529ZM218.529 40.7273H219.211V38.7273H218.529V40.7273ZM220.105 40.1745C220.913 38.5579 222.066 36.8157 223.579 34.9474L222.024 33.689C220.446 35.6388 219.205 37.5027 218.316 39.2801L220.105 40.1745ZM223.584 34.9414C225.026 33.1315 226.998 31.5634 229.534 30.2518L228.615 28.4754C225.878 29.8912 223.668 31.626 222.02 33.695L223.584 34.9414ZM229.542 30.2477C231.991 28.9529 235.18 28.2727 239.165 28.2727V26.2727C234.969 26.2727 231.431 26.9865 228.607 28.4796L229.542 30.2477ZM239.165 28.2727C244.379 28.2727 249.055 29.6025 253.219 32.2527L254.293 30.5654C249.791 27.7005 244.739 26.2727 239.165 26.2727V28.2727ZM253.226 32.2571C257.404 34.8683 260.74 38.756 263.216 43.9742L265.023 43.1167C262.409 37.6077 258.835 33.4044 254.286 30.5611L253.226 32.2571ZM263.219 43.9803C265.713 49.1428 266.983 55.5301 266.983 63.1818H268.983C268.983 55.3184 267.679 48.6148 265.02 43.1106L263.219 43.9803ZM266.983 63.1818C266.983 70.7432 265.743 77.105 263.305 82.3027L265.116 83.1518C267.709 77.6223 268.983 70.9537 268.983 63.1818H266.983ZM263.305 82.3027C260.857 87.5227 257.548 91.4593 253.393 94.1617L254.483 95.8383C258.995 92.9043 262.534 88.6591 265.116 83.1518L263.305 82.3027ZM253.393 94.1617C249.232 96.8678 244.514 98.2273 239.211 98.2273V100.227C244.877 100.227 249.977 98.7686 254.483 95.8383L253.393 94.1617ZM239.211 98.2273C235.315 98.2273 232.163 97.577 229.707 96.3349L228.805 98.1196C231.622 99.5442 235.107 100.227 239.211 100.227V98.2273ZM229.707 96.3349C227.166 95.0498 225.158 93.52 223.653 91.7593L222.132 93.0589C223.839 95.0557 226.073 96.7381 228.805 98.1196L229.707 96.3349ZM223.664 91.7725C222.121 89.903 220.937 88.159 220.099 86.5401L218.323 87.4599C219.242 89.235 220.513 91.097 222.121 93.0457L223.664 91.7725ZM219.211 86H218.256V88H219.211V86ZM217.256 87V98H219.256V87H217.256ZM218.256 97H202.074V99H218.256V97ZM217.211 63.0909C217.211 67.6976 217.86 71.7757 219.183 75.3057L221.056 74.6034C219.834 71.3455 219.211 67.5145 219.211 63.0909H217.211ZM219.186 75.313C220.542 78.8448 222.503 81.6557 225.092 83.6947L226.329 82.1235C224.07 80.3443 222.303 77.8521 221.053 74.5961L219.186 75.313ZM225.103 83.7032C227.754 85.7323 230.945 86.7273 234.62 86.7273V84.7273C231.325 84.7273 228.577 83.8434 226.319 82.115L225.103 83.7032ZM234.62 86.7273C238.443 86.7273 241.717 85.7037 244.376 83.6028L243.136 82.0335C240.886 83.8115 238.069 84.7273 234.62 84.7273V86.7273ZM244.382 83.5981C246.999 81.4982 248.945 78.6558 250.241 75.1165L248.363 74.429C247.173 77.6776 245.423 80.1988 243.13 82.0383L244.382 83.5981ZM250.239 75.1211C251.56 71.5661 252.211 67.5509 252.211 63.0909H250.211C250.211 67.3582 249.588 71.1309 248.364 74.4243L250.239 75.1211ZM252.211 63.0909C252.211 58.6633 251.576 54.694 250.285 51.199L248.409 51.8919C249.603 55.1242 250.211 58.8519 250.211 63.0909H252.211ZM250.285 51.199C248.988 47.6877 247.039 44.8873 244.416 42.847L243.188 44.4257C245.474 46.2036 247.221 48.6759 248.409 51.8919L250.285 51.199ZM244.416 42.847C241.755 40.778 238.467 39.7727 234.62 39.7727V41.7727C238.105 41.7727 240.939 42.6765 243.188 44.4257L244.416 42.847ZM234.62 39.7727C230.92 39.7727 227.716 40.7492 225.064 42.7466L226.267 44.3443C228.524 42.6447 231.289 41.7727 234.62 41.7727V39.7727ZM225.064 42.7466C222.436 44.7255 220.469 47.4813 219.14 50.9615L221.009 51.6749C222.225 48.4884 223.985 46.0623 226.267 44.3443L225.064 42.7466ZM219.137 50.9689C217.844 54.4395 217.211 58.4872 217.211 63.0909H219.211C219.211 58.6643 219.82 54.8635 221.011 51.6674L219.137 50.9689ZM304.996 99.4545L304.985 100.454L304.989 100.455L304.996 99.4545ZM289.496 94.7273L288.926 95.5489L288.928 95.5507L289.496 94.7273ZM279.041 81.9091L279.949 81.4904L279.949 81.4904L279.041 81.9091ZM279.223 44.4545L280.12 44.8957L280.121 44.8937L279.223 44.4545ZM289.996 31.8182L289.441 30.9861L289.441 30.9861L289.996 31.8182ZM315.95 29.4545L315.524 30.3594L315.532 30.3628L315.95 29.4545ZM323.905 35.5L323.142 36.1471L323.146 36.1515L323.905 35.5ZM329.268 44.5455L328.338 44.9126L328.588 45.5455H329.268V44.5455ZM334.541 44.5455L335.521 44.3442L335.357 43.5455H334.541V44.5455ZM338.314 62.9091L337.334 63.1103L337.338 63.1305L337.343 63.1504L338.314 62.9091ZM347.041 98V99H348.32L348.012 97.7586L347.041 98ZM333.768 98L332.795 98.2271L332.975 99H333.768V98ZM325.587 62.9091L324.606 63.1052L324.609 63.1207L324.613 63.1362L325.587 62.9091ZM323.587 55.6818L322.64 56.0047L322.641 56.0082L323.587 55.6818ZM320.178 48.4545L319.325 48.9774L319.328 48.9825L320.178 48.4545ZM314.95 42.9091L314.382 43.7317L314.387 43.7356L314.95 42.9091ZM298.95 43.6364L299.568 44.423L299.569 44.422L298.95 43.6364ZM293.359 51.5L292.43 51.1315L292.427 51.1388L293.359 51.5ZM293.314 74.7273L292.375 75.073L292.379 75.0829L293.314 74.7273ZM298.768 82.8182L298.123 83.5823L298.129 83.5872L298.768 82.8182ZM314.178 83.5455L314.743 84.3702L314.751 84.3647L314.178 83.5455ZM319.632 77.8636L320.468 78.4133L320.471 78.4082L319.632 77.8636ZM323.359 70.5L322.426 70.1417L322.423 70.1477L323.359 70.5ZM325.587 63.2727L326.563 63.4868L326.565 63.4793L325.587 63.2727ZM332.996 28.1818V27.1818H332.185L332.017 27.9752L332.996 28.1818ZM346.132 28.1818L347.108 28.3993L347.379 27.1818H346.132V28.1818ZM338.314 63.2727L337.338 63.0553L337.336 63.0629L337.335 63.0705L338.314 63.2727ZM334.541 81.5455V82.5455H335.356L335.521 81.7477L334.541 81.5455ZM329.587 81.5455V80.5455H328.901L328.654 81.1854L329.587 81.5455ZM324.223 90.8182L323.451 90.1831L323.45 90.184L324.223 90.8182ZM305.006 98.4546C299.341 98.3959 294.372 96.8733 290.063 93.9039L288.928 95.5507C293.589 98.763 298.953 100.392 304.985 100.454L305.006 98.4546ZM290.066 93.9057C285.773 90.9272 282.398 86.8008 279.949 81.4904L278.133 82.3278C280.715 87.9265 284.309 92.3455 288.926 95.5489L290.066 93.9057ZM279.949 81.4904C277.505 76.1887 276.268 70.0631 276.268 63.0909H274.268C274.268 70.3006 275.547 76.7204 278.133 82.3278L279.949 81.4904ZM276.268 63.0909C276.268 56.1557 277.563 50.0993 280.12 44.8957L278.326 44.0134C275.611 49.5371 274.268 55.9049 274.268 63.0909H276.268ZM280.121 44.8937C282.688 39.6426 286.167 35.5728 290.55 32.6502L289.441 30.9861C284.734 34.1242 281.031 38.4786 278.325 44.0154L280.121 44.8937ZM290.55 32.6502C294.923 29.7349 299.865 28.2727 305.405 28.2727V26.2727C299.49 26.2727 294.159 27.8409 289.441 30.9861L290.55 32.6502ZM305.405 28.2727C309.219 28.2727 312.586 28.9764 315.524 30.3594L316.376 28.5497C313.133 27.0236 309.469 26.2727 305.405 26.2727V28.2727ZM315.532 30.3628C318.49 31.7258 321.024 33.6516 323.142 36.1471L324.667 34.8529C322.361 32.1363 319.593 30.0318 316.369 28.5463L315.532 30.3628ZM323.146 36.1515C325.279 38.6352 327.012 41.5521 328.338 44.9126L330.199 44.1783C328.798 40.6298 326.955 37.5164 324.663 34.8485L323.146 36.1515ZM329.268 45.5455H334.541V43.5455H329.268V45.5455ZM333.562 44.7467L337.334 63.1103L339.293 62.7078L335.521 44.3442L333.562 44.7467ZM337.343 63.1504L346.071 98.2414L348.012 97.7586L339.284 62.6677L337.343 63.1504ZM347.041 97H333.768V99H347.041V97ZM334.742 97.7729L326.56 62.682L324.613 63.1362L332.795 98.2271L334.742 97.7729ZM326.567 62.713C326.103 60.3897 325.423 57.9369 324.532 55.3555L322.641 56.0082C323.508 58.5177 324.162 60.883 324.606 63.1052L326.567 62.713ZM324.533 55.3589C323.631 52.7136 322.462 50.2354 321.027 47.9266L319.328 48.9825C320.681 51.1585 321.785 53.4986 322.64 56.0047L324.533 55.3589ZM321.03 47.9317C319.566 45.5451 317.727 43.5907 315.513 42.0826L314.387 43.7356C316.355 45.0759 318.001 46.8186 319.325 48.9774L321.03 47.9317ZM315.519 42.0865C313.267 40.5301 310.592 39.7727 307.541 39.7727V41.7727C310.248 41.7727 312.512 42.4396 314.382 43.7317L315.519 42.0865ZM307.541 39.7727C304.031 39.7727 300.945 40.7927 298.332 42.8507L299.569 44.422C301.804 42.6619 304.446 41.7727 307.541 41.7727V39.7727ZM298.333 42.8497C295.775 44.8568 293.816 47.6345 292.43 51.1315L294.289 51.8685C295.569 48.6382 297.337 46.1735 299.568 44.423L298.333 42.8497ZM292.427 51.1388C291.071 54.6382 290.405 58.6128 290.405 63.0455H292.405C292.405 58.8114 293.041 55.089 294.292 51.8612L292.427 51.1388ZM290.405 63.0455C290.405 67.4763 291.056 71.4901 292.376 75.073L294.252 74.3816C293.027 71.0554 292.405 67.2813 292.405 63.0455H290.405ZM292.379 75.0829C293.731 78.6341 295.637 81.4833 298.123 83.5823L299.413 82.054C297.233 80.2137 295.503 77.669 294.249 74.3716L292.379 75.0829ZM298.129 83.5872C300.644 85.6773 303.567 86.7273 306.859 86.7273V84.7273C304.03 84.7273 301.56 83.8379 299.408 82.0491L298.129 83.5872ZM306.859 86.7273C309.803 86.7273 312.443 85.9473 314.743 84.3702L313.612 82.7207C311.669 84.0527 309.43 84.7273 306.859 84.7273V86.7273ZM314.751 84.3647C316.982 82.8027 318.887 80.815 320.467 78.4133L318.797 77.314C317.346 79.5183 315.615 81.3185 313.604 82.7262L314.751 84.3647ZM320.471 78.4082C322.025 76.0152 323.3 73.4962 324.295 70.8523L322.423 70.1477C321.479 72.6553 320.27 75.0454 318.793 77.319L320.471 78.4082ZM324.293 70.8583C325.307 68.2156 326.066 65.7577 326.563 63.4868L324.61 63.0586C324.138 65.212 323.412 67.5723 322.426 70.1417L324.293 70.8583ZM326.565 63.4793L333.974 28.3884L332.017 27.9752L324.608 63.0661L326.565 63.4793ZM332.996 29.1818H346.132V27.1818H332.996V29.1818ZM345.156 27.9644L337.338 63.0553L339.29 63.4902L347.108 28.3993L345.156 27.9644ZM337.335 63.0705L333.562 81.3433L335.521 81.7477L339.293 63.4749L337.335 63.0705ZM334.541 80.5455H329.587V82.5455H334.541V80.5455ZM328.654 81.1854C327.357 84.5452 325.622 87.5423 323.451 90.1831L324.995 91.4533C327.309 88.6395 329.15 85.4548 330.52 81.9055L328.654 81.1854ZM323.45 90.184C321.331 92.7677 318.749 94.7991 315.695 96.2823L316.569 98.0813C319.879 96.4737 322.691 94.2626 324.996 91.4524L323.45 90.184ZM315.695 96.2823C312.677 97.7485 309.122 98.484 305.003 98.4546L304.989 100.455C309.354 100.486 313.224 99.7061 316.569 98.0813L315.695 96.2823ZM357.292 98H356.292V99H357.292V98ZM357.292 28.1818V27.1818H356.292V28.1818H357.292ZM373.247 28.1818H374.247V27.1818H373.247V28.1818ZM373.247 39.8182H372.247V40.8182H373.247V39.8182ZM373.974 39.8182V40.8182H374.707L374.927 40.1193L373.974 39.8182ZM380.519 30.5L381.096 31.317L381.098 31.3159L380.519 30.5ZM394.247 27.3182L394.166 28.3149L394.18 28.316L394.194 28.3168L394.247 27.3182ZM397.11 27.6364H398.11V26.8166L397.306 26.6558L397.11 27.6364ZM397.11 42.7727L396.782 43.7172L398.11 44.1793V42.7727H397.11ZM393.792 42.1364L393.651 43.1263L393.662 43.1279L393.673 43.1292L393.792 42.1364ZM381.383 43.7727L381.857 44.6532L381.861 44.651L381.383 43.7727ZM373.747 98V99H374.747V98H373.747ZM358.292 98V28.1818H356.292V98H358.292ZM357.292 29.1818H373.247V27.1818H357.292V29.1818ZM372.247 28.1818V39.8182H374.247V28.1818H372.247ZM373.247 40.8182H373.974V38.8182H373.247V40.8182ZM374.927 40.1193C376.142 36.2718 378.205 33.358 381.096 31.317L379.943 29.683C376.652 32.0057 374.351 35.3039 373.02 39.517L374.927 40.1193ZM381.098 31.3159C384.042 29.2292 387.398 28.1818 391.201 28.1818V26.1818C387.004 26.1818 383.239 27.3465 379.941 29.6841L381.098 31.3159ZM391.201 28.1818C392.078 28.1818 393.065 28.2257 394.166 28.3149L394.327 26.3214C393.185 26.2288 392.143 26.1818 391.201 26.1818V28.1818ZM394.194 28.3168C395.318 28.376 396.221 28.4783 396.914 28.6169L397.306 26.6558C396.484 26.4914 395.478 26.3816 394.299 26.3196L394.194 28.3168ZM396.11 27.6364V42.7727H398.11V27.6364H396.11ZM397.439 41.8282C396.635 41.5485 395.439 41.3268 393.911 41.1435L393.673 43.1292C395.175 43.3095 396.192 43.5121 396.782 43.7172L397.439 41.8282ZM393.933 41.1464C392.405 40.9281 390.919 40.8182 389.474 40.8182V42.8182C390.817 42.8182 392.209 42.9204 393.651 43.1263L393.933 41.1464ZM389.474 40.8182C386.324 40.8182 383.46 41.5037 380.905 42.8944L381.861 44.651C384.094 43.4357 386.624 42.8182 389.474 42.8182V40.8182ZM380.909 42.8923C378.389 44.2491 376.392 46.1474 374.935 48.5764L376.65 49.6054C377.919 47.489 379.65 45.8418 381.857 44.6532L380.909 42.8923ZM374.935 48.5764C373.467 51.0227 372.747 53.826 372.747 56.9545H374.747C374.747 54.1437 375.39 51.7046 376.65 49.6054L374.935 48.5764ZM372.747 56.9545V98H374.747V56.9545H372.747ZM373.747 97H357.292V99H373.747V97Z" fill="black" mask="url(#path-1-outside-1_601_10)"/>
</g>
<defs>
<filter id="filter0_d_601_10" x="0.685234" y="0.409058" width="400.425" height="131.773" filterUnits="userSpaceOnUse" color-interpolation-filters="sRGB">
<feFlood flood-opacity="0" result="BackgroundImageFix"/>
<feColorMatrix in="SourceAlpha" type="matrix" values="0 0 0 0 0 0 0 0 0 0 0 0 0 0 0 0 0 0 127 0" result="hardAlpha"/>
<feOffset dy="4"/>
<feGaussianBlur stdDeviation="2"/>
<feComposite in2="hardAlpha" operator="out"/>
<feColorMatrix type="matrix" values="0 0 0 0 0 0 0 0 0 0 0 0 0 0 0 0 0 0 0.25 0"/>
<feBlend mode="normal" in2="BackgroundImageFix" result="effect1_dropShadow_601_10"/>
<feBlend mode="normal" in="SourceGraphic" in2="effect1_dropShadow_601_10" result="shape"/>
</filter>
</defs>
</svg>
