<!DOCTYPE svg PUBLIC "-//W3C//DTD SVG 1.1//EN" "http://www.w3.org/Graphics/SVG/1.1/DTD/svg11.dtd">
<!-- Uploaded to: SVG Repo, www.svgrepo.com, Transformed by: SVG Repo Mixer Tools -->
<svg width="256px" height="256px" viewBox="-16.32 -16.32 80.64 80.64" xmlns="http://www.w3.org/2000/svg" fill="#9AC791" stroke="#9AC791" stroke-width="2.256" transform="matrix(1, 0, 0, 1, 0, 0)rotate(0)">
<g id="SVGRepo_bgCarrier" stroke-width="0" transform="translate(0,0), scale(1)">
<path transform="translate(-16.32, -16.32), scale(2.52)" d="M16,29.998424426785537C18.610121907633523,29.815504430658095,21.103958721107237,28.741712483038988,23.105772245195727,27.05679743697045C24.966923246212126,25.490277235721457,25.728978090875223,23.116933259815443,26.78146240689425,20.92372890225104C27.85605792308507,18.68444843710986,29.694047457691287,16.540391546936412,29.331594950610167,14.083206021769271C28.96932902323036,11.627285382159272,26.601539525943,10.096783767698856,24.91562074574314,8.27457064713031C23.28787716306444,6.515235768064098,21.901241984239174,4.398621826027467,19.638926283535444,3.606955192904657C17.32853325171284,2.798464551158924,14.85867729883087,3.4723258905926024,12.450846201550405,3.912692199764889C9.774737589247948,4.402123569712236,6.549406610761909,4.212615264046508,4.8244806319212525,6.316357343829228C3.0988658114029293,8.420939543849798,4.469127132747351,11.595394935657247,3.9595077956606897,14.268838572000316C3.4154960643393384,17.122703398855826,0.8808801212346261,19.73746246072253,1.736889194802,22.513744449236775C2.595049812541131,25.297004510199066,5.644949499669272,26.746364057275596,8.223976458826515,28.099728811038C10.635433496187561,29.36515992566396,13.28334870835991,30.188810110417062,16,29.998424426785537" fill="#000000" strokewidth="0"/>
</g>
<g id="SVGRepo_tracerCarrier" stroke-linecap="round" stroke-linejoin="round" stroke="#CCCCCC" stroke-width="0.288"/>
<g id="SVGRepo_iconCarrier">
<defs>
<style>.a{fill:none;stroke:#9AC791;stroke-linecap:round;stroke-linejoin:round;}.b{fill:#9AC791;}</style>
</defs>
<path class="a" d="M40.5,5.5H7.5a2,2,0,0,0-2,2v33a2,2,0,0,0,2,2h33a2,2,0,0,0,2-2V7.5A2,2,0,0,0,40.5,5.5Z"/>
<path class="a" d="M28.3266,15.09V31.7719a5.5345,5.5345,0,0,1-5.5083,5.5605h0a5.4653,5.4653,0,0,1-3.8949-1.6286"/>
<circle class="b" cx="28.3266" cy="11.4176" r="0.75"/>
</g>
</svg>