<svg width="464" height="129" viewBox="0 0 464 129" fill="none" xmlns="http://www.w3.org/2000/svg">
<g filter="url(#filter0_d_641_5)">
<path d="M17.7727 24.1818H23.2727V102.5C23.2727 106.106 22.5303 109.227 21.0455 111.864C19.5606 114.53 17.5152 116.576 14.9091 118C12.3333 119.455 9.34848 120.182 5.95455 120.182C5.71212 120.182 5.45455 120.167 5.18182 120.136C4.90909 120.136 4.59091 120.106 4.22727 120.045L4.5 114.909C4.74242 114.909 4.9697 114.909 5.18182 114.909C5.39394 114.909 5.62121 114.909 5.86364 114.909C9.25758 114.909 12.0909 113.803 14.3636 111.591C16.6364 109.409 17.7727 106.379 17.7727 102.5V24.1818ZM20.5 11.8182C19.2576 11.8182 18.197 11.3939 17.3182 10.5454C16.4394 9.69697 16 8.66667 16 7.45454C16 6.24242 16.4394 5.21212 17.3182 4.36363C18.197 3.51515 19.2576 3.0909 20.5 3.0909C21.7121 3.0909 22.7576 3.51515 23.6364 4.36363C24.5152 5.21212 24.9545 6.24242 24.9545 7.45454C24.9545 8.66667 24.5152 9.69697 23.6364 10.5454C22.7576 11.3939 21.7121 11.8182 20.5 11.8182ZM121.775 94V0.909088H127.275V39.7727H127.82C128.911 36.7727 130.456 34.0151 132.456 31.5C134.456 28.9848 136.941 26.9697 139.911 25.4545C142.881 23.9091 146.35 23.1364 150.32 23.1364C155.926 23.1364 160.82 24.697 165.002 27.8182C169.184 30.9091 172.426 35.1818 174.729 40.6364C177.032 46.0606 178.184 52.2727 178.184 59.2727C178.184 66.3333 177.032 72.5909 174.729 78.0455C172.426 83.4697 169.199 87.7273 165.047 90.8182C160.896 93.9091 156.002 95.4545 150.365 95.4545C146.396 95.4545 142.926 94.697 139.956 93.1818C136.987 91.6364 134.502 89.6061 132.502 87.0909C130.502 84.5455 128.941 81.7727 127.82 78.7727H127.184V94H121.775ZM127.229 59.2273C127.229 65.1667 128.123 70.4848 129.911 75.1818C131.729 79.8485 134.335 83.5455 137.729 86.2727C141.123 88.9697 145.184 90.3182 149.911 90.3182C154.699 90.3182 158.79 88.9545 162.184 86.2273C165.578 83.4697 168.168 79.7424 169.956 75.0455C171.775 70.3485 172.684 65.0758 172.684 59.2273C172.684 53.3788 171.775 48.1212 169.956 43.4545C168.168 38.7879 165.578 35.1061 162.184 32.4091C158.79 29.6818 154.699 28.3182 149.911 28.3182C145.184 28.3182 141.123 29.6667 137.729 32.3636C134.335 35.0303 131.729 38.697 129.911 43.3636C128.123 48 127.229 53.2879 127.229 59.2273ZM195.435 94V0.909088H200.935V39.7727H201.48C202.571 36.7727 204.116 34.0151 206.116 31.5C208.116 28.9848 210.601 26.9697 213.571 25.4545C216.541 23.9091 220.01 23.1364 223.98 23.1364C229.586 23.1364 234.48 24.697 238.662 27.8182C242.844 30.9091 246.086 35.1818 248.389 40.6364C250.692 46.0606 251.844 52.2727 251.844 59.2727C251.844 66.3333 250.692 72.5909 248.389 78.0455C246.086 83.4697 242.859 87.7273 238.707 90.8182C234.556 93.9091 229.662 95.4545 224.025 95.4545C220.056 95.4545 216.586 94.697 213.616 93.1818C210.647 91.6364 208.162 89.6061 206.162 87.0909C204.162 84.5455 202.601 81.7727 201.48 78.7727H200.844V94H195.435ZM200.889 59.2273C200.889 65.1667 201.783 70.4848 203.571 75.1818C205.389 79.8485 207.995 83.5455 211.389 86.2727C214.783 88.9697 218.844 90.3182 223.571 90.3182C228.359 90.3182 232.45 88.9545 235.844 86.2273C239.238 83.4697 241.828 79.7424 243.616 75.0455C245.435 70.3485 246.344 65.0758 246.344 59.2273C246.344 53.3788 245.435 48.1212 243.616 43.4545C241.828 38.7879 239.238 35.1061 235.844 32.4091C232.45 29.6818 228.359 28.3182 223.571 28.3182C218.844 28.3182 214.783 29.6667 211.389 32.3636C207.995 35.0303 205.389 38.697 203.571 43.3636C201.783 48 200.889 53.2879 200.889 59.2273ZM285.64 95.5C281.61 95.5 277.913 94.697 274.549 93.0909C271.216 91.4848 268.534 89.1364 266.504 86.0455C264.504 82.9545 263.504 79.197 263.504 74.7727C263.504 71.8636 264.019 69.303 265.049 67.0909C266.079 64.8788 267.67 62.9697 269.822 61.3636C271.973 59.7576 274.731 58.4394 278.095 57.4091C281.458 56.3485 285.473 55.5303 290.14 54.9545C293.685 54.5303 296.852 54.1212 299.64 53.7273C302.428 53.303 304.61 52.6515 306.185 51.7727C307.792 50.8939 308.595 49.5606 308.595 47.7727V44.8636C308.595 39.7727 306.988 35.7273 303.776 32.7273C300.564 29.7273 296.14 28.2273 290.504 28.2273C285.504 28.2273 281.292 29.3333 277.867 31.5455C274.473 33.7273 272.095 36.5455 270.731 40L265.504 38.0455C266.837 34.7121 268.761 31.9394 271.276 29.7273C273.822 27.5151 276.731 25.8636 280.004 24.7727C283.307 23.6818 286.761 23.1364 290.367 23.1364C293.488 23.1364 296.458 23.5758 299.276 24.4545C302.125 25.3333 304.655 26.6667 306.867 28.4545C309.11 30.2424 310.882 32.5303 312.185 35.3182C313.488 38.0758 314.14 41.3788 314.14 45.2273V94H308.595V81.4091H308.185C306.973 84.0152 305.307 86.3939 303.185 88.5455C301.095 90.6667 298.564 92.3636 295.595 93.6364C292.655 94.8788 289.337 95.5 285.64 95.5ZM286.185 90.3636C290.549 90.3636 294.413 89.303 297.776 87.1818C301.17 85.0303 303.822 82.0909 305.731 78.3636C307.64 74.6364 308.595 70.4091 308.595 65.6818V55.4091C307.898 56.0151 306.882 56.5606 305.549 57.0455C304.246 57.5 302.761 57.9091 301.095 58.2727C299.458 58.6061 297.731 58.9091 295.913 59.1818C294.125 59.4242 292.382 59.6515 290.685 59.8636C285.595 60.4697 281.443 61.4091 278.231 62.6818C275.049 63.9242 272.716 65.5606 271.231 67.5909C269.776 69.6212 269.049 72.0758 269.049 74.9545C269.049 79.7121 270.685 83.4697 273.958 86.2273C277.231 88.9848 281.307 90.3636 286.185 90.3636ZM333.55 94V24.1818H338.959V35.0909H339.459C340.974 31.5152 343.535 28.6515 347.141 26.5C350.747 24.3182 354.853 23.2273 359.459 23.2273C359.944 23.2273 360.429 23.2273 360.914 23.2273C361.398 23.2273 361.853 23.2424 362.277 23.2727V28.8636C361.914 28.8333 361.474 28.7879 360.959 28.7273C360.474 28.6364 359.868 28.5909 359.141 28.5909C355.262 28.5909 351.808 29.4242 348.777 31.0909C345.777 32.7576 343.414 35.0606 341.686 38C339.959 40.9091 339.095 44.2424 339.095 48V94H333.55ZM373.767 80.9091C373.676 79.8239 373.233 78.946 372.437 78.2756C371.647 77.6051 370.625 77.2699 369.369 77.2699C368.522 77.2699 367.77 77.4261 367.111 77.7386C366.451 78.0511 365.934 78.4773 365.559 79.017C365.184 79.5568 364.997 80.1761 364.997 80.875C364.997 81.3239 365.082 81.7301 365.253 82.0938C365.429 82.4517 365.676 82.7727 365.994 83.0568C366.312 83.3352 366.69 83.5795 367.128 83.7898C367.565 84 368.048 84.1847 368.576 84.3438L370.486 84.9062C371.139 85.1051 371.741 85.3352 372.292 85.5966C372.849 85.858 373.332 86.1705 373.741 86.5341C374.156 86.892 374.477 87.3125 374.704 87.7955C374.937 88.2784 375.054 88.8352 375.054 89.4659C375.054 90.3864 374.815 91.2102 374.338 91.9375C373.866 92.6648 373.193 93.2386 372.318 93.6591C371.449 94.0739 370.423 94.2812 369.241 94.2812C368.116 94.2812 367.136 94.0909 366.301 93.7102C365.471 93.3295 364.815 92.8011 364.332 92.125C363.849 91.4432 363.576 90.6591 363.514 89.7727H364.605C364.662 90.4943 364.892 91.1193 365.295 91.6477C365.704 92.1705 366.247 92.5739 366.923 92.858C367.599 93.142 368.372 93.2841 369.241 93.2841C370.179 93.2841 371.005 93.125 371.721 92.8068C372.437 92.483 372.997 92.0341 373.4 91.4602C373.804 90.8864 374.005 90.2187 374.005 89.4574C374.005 88.8437 373.861 88.3182 373.571 87.8807C373.281 87.4432 372.852 87.0653 372.284 86.7472C371.721 86.429 371.022 86.1449 370.187 85.8949L368.15 85.2812C366.787 84.8665 365.744 84.3011 365.022 83.5852C364.307 82.8693 363.949 81.9773 363.949 80.9091C363.949 80.0114 364.187 79.2159 364.665 78.5227C365.142 77.8239 365.79 77.2756 366.608 76.8778C367.432 76.4801 368.361 76.2812 369.395 76.2812C370.434 76.2812 371.352 76.483 372.147 76.8864C372.943 77.2841 373.574 77.8324 374.04 78.5312C374.505 79.2244 374.764 80.017 374.815 80.9091H373.767ZM377.385 77.5341V76.5455H389.615V77.5341H384.033V94H382.967V77.5341H377.385ZM404.598 76.5455H405.663V88.1023C405.663 89.2898 405.388 90.3494 404.837 91.2812C404.286 92.2074 403.524 92.9403 402.553 93.4801C401.587 94.0142 400.476 94.2812 399.22 94.2812C397.97 94.2812 396.859 94.0142 395.888 93.4801C394.916 92.9403 394.152 92.2045 393.595 91.2727C393.044 90.3409 392.771 89.2841 392.777 88.1023V76.5455H393.842V88.0426C393.842 89.0483 394.07 89.9432 394.524 90.7273C394.984 91.5114 395.618 92.1307 396.425 92.5852C397.232 93.0341 398.163 93.2585 399.22 93.2585C400.277 93.2585 401.209 93.0341 402.016 92.5852C402.823 92.1307 403.453 91.5114 403.908 90.7273C404.368 89.9432 404.598 89.0483 404.598 88.0426V76.5455ZM414.828 94H409.987V76.5455H415.203C416.839 76.5455 418.24 76.892 419.404 77.5852C420.569 78.2784 421.461 79.2727 422.081 80.5682C422.706 81.858 423.015 83.4062 423.01 85.2131C423.004 87.0597 422.68 88.6392 422.038 89.9517C421.396 91.2585 420.467 92.2614 419.251 92.9602C418.035 93.6534 416.561 94 414.828 94ZM411.052 93.0114H414.785C416.342 93.0114 417.654 92.7017 418.723 92.0824C419.791 91.4574 420.598 90.5625 421.143 89.3977C421.694 88.233 421.967 86.8381 421.961 85.2131C421.961 83.6108 421.697 82.2386 421.169 81.0966C420.64 79.9489 419.87 79.0682 418.859 78.4545C417.853 77.8409 416.62 77.5341 415.16 77.5341H411.052V93.0114ZM427.512 76.5455V94H426.446V76.5455H427.512ZM445.727 85.2727C445.727 87.0739 445.415 88.6477 444.79 89.9943C444.165 91.3352 443.295 92.3778 442.182 93.1222C441.074 93.8665 439.795 94.2386 438.346 94.2386C436.892 94.2386 435.608 93.8665 434.494 93.1222C433.386 92.3722 432.52 91.3267 431.895 89.9858C431.27 88.6392 430.957 87.0682 430.957 85.2727C430.957 83.4716 431.27 81.9006 431.895 80.5597C432.525 79.2187 433.395 78.1761 434.503 77.4318C435.611 76.6818 436.892 76.3068 438.346 76.3068C439.795 76.3068 441.074 76.679 442.182 77.4233C443.295 78.1676 444.165 79.2131 444.79 80.5597C445.415 81.9006 445.727 83.4716 445.727 85.2727ZM444.687 85.2727C444.687 83.6534 444.415 82.25 443.869 81.0625C443.329 79.875 442.582 78.9574 441.628 78.3097C440.673 77.6562 439.579 77.3295 438.346 77.3295C437.114 77.3295 436.02 77.6534 435.065 78.3011C434.111 78.9432 433.361 79.8608 432.815 81.054C432.275 82.2415 432.006 83.6477 432.006 85.2727C432.006 86.8807 432.273 88.2812 432.807 89.4744C433.346 90.6619 434.094 91.5824 435.048 92.2358C436.003 92.8892 437.102 93.2159 438.346 93.2159C439.579 93.2159 440.673 92.892 441.628 92.2443C442.582 91.5909 443.329 90.6705 443.869 89.483C444.415 88.2955 444.687 86.892 444.687 85.2727ZM458.58 80.9091C458.489 79.8239 458.046 78.946 457.25 78.2756C456.46 77.6051 455.438 77.2699 454.182 77.2699C453.335 77.2699 452.582 77.4261 451.923 77.7386C451.264 78.0511 450.747 78.4773 450.372 79.017C449.997 79.5568 449.81 80.1761 449.81 80.875C449.81 81.3239 449.895 81.7301 450.065 82.0938C450.242 82.4517 450.489 82.7727 450.807 83.0568C451.125 83.3352 451.503 83.5795 451.94 83.7898C452.378 84 452.861 84.1847 453.389 84.3438L455.298 84.9062C455.952 85.1051 456.554 85.3352 457.105 85.5966C457.662 85.858 458.145 86.1705 458.554 86.5341C458.969 86.892 459.29 87.3125 459.517 87.7955C459.75 88.2784 459.867 88.8352 459.867 89.4659C459.867 90.3864 459.628 91.2102 459.151 91.9375C458.679 92.6648 458.006 93.2386 457.131 93.6591C456.261 94.0739 455.236 94.2812 454.054 94.2812C452.929 94.2812 451.949 94.0909 451.114 93.7102C450.284 93.3295 449.628 92.8011 449.145 92.125C448.662 91.4432 448.389 90.6591 448.327 89.7727H449.418C449.475 90.4943 449.705 91.1193 450.108 91.6477C450.517 92.1705 451.06 92.5739 451.736 92.858C452.412 93.142 453.185 93.2841 454.054 93.2841C454.992 93.2841 455.818 93.125 456.534 92.8068C457.25 92.483 457.81 92.0341 458.213 91.4602C458.617 90.8864 458.818 90.2187 458.818 89.4574C458.818 88.8437 458.673 88.3182 458.384 87.8807C458.094 87.4432 457.665 87.0653 457.097 86.7472C456.534 86.429 455.835 86.1449 455 85.8949L452.963 85.2812C451.6 84.8665 450.557 84.3011 449.835 83.5852C449.119 82.8693 448.761 81.9773 448.761 80.9091C448.761 80.0114 449 79.2159 449.477 78.5227C449.955 77.8239 450.602 77.2756 451.421 76.8778C452.244 76.4801 453.173 76.2812 454.207 76.2812C455.247 76.2812 456.165 76.483 456.96 76.8864C457.756 77.2841 458.386 77.8324 458.852 78.5312C459.318 79.2244 459.577 80.017 459.628 80.9091H458.58Z" fill="white"/>
<path d="M67.8418 95.4545C61.9024 95.4242 56.7509 93.8788 52.3873 90.8182C48.0236 87.7576 44.6448 83.5152 42.2509 78.0909C39.857 72.6364 38.66 66.3485 38.66 59.2273C38.66 52.197 39.9176 45.9848 42.4327 40.5909C44.9479 35.197 48.4176 30.9697 52.8418 27.9091C57.2661 24.8182 62.3418 23.2727 68.0691 23.2727C72.8267 23.2727 76.9933 24.2727 80.5691 26.2727C84.1448 28.2727 87.0994 31.1364 89.4327 34.8636C91.7661 38.5909 93.4479 43.0758 94.4782 48.3182H96.3873L97.7509 58.9091L104.796 94H99.5236L92.2964 56.5C91.5994 52.4697 90.5994 48.7576 89.2964 45.3636C87.9933 41.9394 86.357 38.9697 84.3873 36.4545C82.4479 33.9091 80.1297 31.9394 77.4327 30.5455C74.7358 29.1212 71.6145 28.4091 68.0691 28.4091C63.4024 28.4091 59.2661 29.7273 55.66 32.3636C52.0842 35 49.2812 38.6364 47.2509 43.2727C45.2206 47.9091 44.2055 53.2424 44.2055 59.2727C44.2055 65.3333 45.1752 70.697 47.1145 75.3636C49.0539 80.0303 51.7964 83.697 55.3418 86.3636C58.8873 89 63.0539 90.3182 67.8418 90.3182C70.963 90.3182 73.857 89.7121 76.5236 88.5C79.1903 87.2576 81.5691 85.4394 83.66 83.0455C85.7509 80.6212 87.5236 77.6667 88.9782 74.1818C90.463 70.6667 91.5539 66.6212 92.2509 62.0455L98.6145 24.1818H103.887L97.7509 59.2727L96.4782 70.0455H94.7964C93.5539 76.1667 91.5994 81.0909 88.9327 84.8182C86.2964 88.5455 83.16 91.2576 79.5236 92.9545C75.8873 94.6212 71.9933 95.4545 67.8418 95.4545Z" fill="#8341E6"/>
</g>
<defs>
<filter id="filter0_d_641_5" x="0.227295" y="0.909119" width="463.639" height="127.273" filterUnits="userSpaceOnUse" color-interpolation-filters="sRGB">
<feFlood flood-opacity="0" result="BackgroundImageFix"/>
<feColorMatrix in="SourceAlpha" type="matrix" values="0 0 0 0 0 0 0 0 0 0 0 0 0 0 0 0 0 0 127 0" result="hardAlpha"/>
<feOffset dy="4"/>
<feGaussianBlur stdDeviation="2"/>
<feComposite in2="hardAlpha" operator="out"/>
<feColorMatrix type="matrix" values="0 0 0 0 0 0 0 0 0 0 0 0 0 0 0 0 0 0 0.25 0"/>
<feBlend mode="normal" in2="BackgroundImageFix" result="effect1_dropShadow_641_5"/>
<feBlend mode="normal" in="SourceGraphic" in2="effect1_dropShadow_641_5" result="shape"/>
</filter>
</defs>
</svg>
