<svg width="492" height="133" viewBox="0 0 492 133" fill="none" xmlns="http://www.w3.org/2000/svg">
<g filter="url(#filter0_d_613_6)">
<mask id="path-1-outside-1_613_6" maskUnits="userSpaceOnUse" x="3" y="-1" width="486" height="127" fill="black">
<rect fill="white" x="3" y="-1" width="486" height="127"/>
<path d="M15.4545 28.1818H31.9091V102C31.9091 107.03 30.9545 111.182 29.0455 114.455C27.1364 117.727 24.3788 120.167 20.7727 121.773C17.1667 123.379 12.7879 124.182 7.63636 124.182C7.0303 124.182 6.4697 124.167 5.95455 124.136C5.43939 124.136 4.87879 124.121 4.27273 124.091V110.682C4.72727 110.712 5.13636 110.727 5.5 110.727C5.86364 110.758 6.24242 110.773 6.63636 110.773C9.78788 110.773 12.0455 110 13.4091 108.455C14.7727 106.939 15.4545 104.712 15.4545 101.773V28.1818ZM23.6364 18.2727C21 18.2727 18.7424 17.4091 16.8636 15.6818C15.0152 13.9242 14.0909 11.8182 14.0909 9.36363C14.0909 6.87878 15.0152 4.77272 16.8636 3.04545C18.7424 1.28787 21 0.409088 23.6364 0.409088C26.2424 0.409088 28.4697 1.28787 30.3182 3.04545C32.197 4.77272 33.1364 6.87878 33.1364 9.36363C33.1364 11.8182 32.197 13.9242 30.3182 15.6818C28.4697 17.4091 26.2424 18.2727 23.6364 18.2727ZM124.877 98V4.90909H141.331V39.7273H142.013C142.862 38.0303 144.059 36.2273 145.604 34.3182C147.15 32.3788 149.24 30.7273 151.877 29.3636C154.513 27.9697 157.877 27.2727 161.968 27.2727C167.362 27.2727 172.225 28.6515 176.559 31.4091C180.922 34.1364 184.377 38.1818 186.922 43.5455C189.498 48.8788 190.786 55.4242 190.786 63.1818C190.786 70.8485 189.528 77.3636 187.013 82.7273C184.498 88.0909 181.074 92.1818 176.74 95C172.407 97.8182 167.498 99.2273 162.013 99.2273C158.013 99.2273 154.695 98.5606 152.059 97.2273C149.422 95.8939 147.301 94.2879 145.695 92.4091C144.119 90.5 142.892 88.697 142.013 87H141.059V98H124.877ZM141.013 63.0909C141.013 67.6061 141.65 71.5606 142.922 74.9545C144.225 78.3485 146.089 81 148.513 82.9091C150.968 84.7879 153.937 85.7273 157.422 85.7273C161.059 85.7273 164.104 84.7576 166.559 82.8182C169.013 80.8485 170.862 78.1667 172.104 74.7727C173.377 71.3485 174.013 67.4545 174.013 63.0909C174.013 58.7576 173.392 54.9091 172.15 51.5455C170.907 48.1818 169.059 45.5455 166.604 43.6364C164.15 41.7273 161.089 40.7727 157.422 40.7727C153.907 40.7727 150.922 41.697 148.468 43.5455C146.013 45.3939 144.15 47.9848 142.877 51.3182C141.634 54.6515 141.013 58.5758 141.013 63.0909ZM201.662 98V4.90909H218.116V39.7273H218.798C219.647 38.0303 220.844 36.2273 222.389 34.3182C223.935 32.3788 226.025 30.7273 228.662 29.3636C231.298 27.9697 234.662 27.2727 238.753 27.2727C244.147 27.2727 249.01 28.6515 253.344 31.4091C257.707 34.1364 261.162 38.1818 263.707 43.5455C266.283 48.8788 267.571 55.4242 267.571 63.1818C267.571 70.8485 266.313 77.3636 263.798 82.7273C261.283 88.0909 257.859 92.1818 253.525 95C249.192 97.8182 244.283 99.2273 238.798 99.2273C234.798 99.2273 231.48 98.5606 228.844 97.2273C226.207 95.8939 224.086 94.2879 222.48 92.4091C220.904 90.5 219.677 88.697 218.798 87H217.844V98H201.662ZM217.798 63.0909C217.798 67.6061 218.435 71.5606 219.707 74.9545C221.01 78.3485 222.874 81 225.298 82.9091C227.753 84.7879 230.722 85.7273 234.207 85.7273C237.844 85.7273 240.889 84.7576 243.344 82.8182C245.798 80.8485 247.647 78.1667 248.889 74.7727C250.162 71.3485 250.798 67.4545 250.798 63.0909C250.798 58.7576 250.177 54.9091 248.935 51.5455C247.692 48.1818 245.844 45.5455 243.389 43.6364C240.935 41.7273 237.874 40.7727 234.207 40.7727C230.692 40.7727 227.707 41.697 225.253 43.5455C222.798 45.3939 220.935 47.9848 219.662 51.3182C218.419 54.6515 217.798 58.5758 217.798 63.0909ZM356.88 98V28.1818H372.834V39.8182H373.561C374.834 35.7879 377.016 32.6818 380.107 30.5C383.228 28.2879 386.789 27.1818 390.789 27.1818C391.698 27.1818 392.713 27.2273 393.834 27.3182C394.986 27.3788 395.94 27.4848 396.698 27.6364V42.7727C396.001 42.5303 394.895 42.3182 393.38 42.1364C391.895 41.9242 390.455 41.8182 389.061 41.8182C386.061 41.8182 383.364 42.4697 380.97 43.7727C378.607 45.0455 376.743 46.8182 375.38 49.0909C374.016 51.3636 373.334 53.9848 373.334 56.9545V98H356.88ZM401.359 83.096C400.495 83.096 399.791 83.304 399.247 83.72C398.703 84.136 398.431 84.72 398.431 85.472C398.431 86.336 398.791 87.112 399.511 87.8C400.023 88.296 400.679 88.824 401.479 89.384C402.295 89.928 402.855 90.32 403.159 90.56C403.463 90.8 403.831 91.128 404.263 91.544C405.047 92.328 405.439 93.232 405.439 94.256C405.439 95.584 404.991 96.592 404.095 97.28C403.215 97.952 401.975 98.288 400.375 98.288C398.791 98.288 397.463 97.872 396.391 97.04L396.967 96.2C398.055 96.936 399.207 97.304 400.423 97.304C401.639 97.304 402.583 97.048 403.255 96.536C403.943 96.024 404.287 95.304 404.287 94.376C404.287 93.576 403.943 92.84 403.255 92.168C402.775 91.688 402.127 91.168 401.311 90.608C400.511 90.048 399.951 89.648 399.631 89.408C399.311 89.152 398.935 88.816 398.503 88.4C397.687 87.584 397.279 86.64 397.279 85.568C397.279 84.496 397.655 83.656 398.407 83.048C399.175 82.44 400.231 82.136 401.575 82.136C402.919 82.136 404.127 82.4 405.199 82.928L404.791 83.816C403.799 83.336 402.655 83.096 401.359 83.096ZM411.927 83.408H406.647V82.424H418.287V83.408H413.007V98H411.927V83.408ZM431.91 96.392C430.854 97.624 429.246 98.24 427.086 98.24C424.926 98.24 423.318 97.624 422.262 96.392C421.206 95.16 420.678 93.456 420.678 91.28V82.424H421.782V91.28C421.782 95.264 423.55 97.256 427.086 97.256C430.622 97.256 432.39 95.264 432.39 91.28V82.424H433.494V91.28C433.494 93.456 432.966 95.16 431.91 96.392ZM443.375 97.184C445.423 97.184 447.063 96.632 448.295 95.528C449.543 94.424 450.167 92.76 450.167 90.536C450.167 88.312 449.463 86.544 448.055 85.232C446.663 83.92 444.943 83.264 442.895 83.264C441.439 83.264 440.319 83.296 439.535 83.36V97.016C440.495 97.128 441.775 97.184 443.375 97.184ZM442.895 82.28C445.295 82.28 447.295 83.024 448.895 84.512C450.511 85.984 451.319 87.992 451.319 90.536C451.319 93.08 450.575 94.992 449.087 96.272C447.615 97.552 445.711 98.192 443.375 98.192C441.759 98.192 440.095 98.112 438.383 97.952V82.424C439.663 82.328 441.167 82.28 442.895 82.28ZM455.405 98V82.424H456.509V98H455.405ZM468.44 98.24C466.216 98.24 464.352 97.464 462.848 95.912C461.344 94.36 460.592 92.464 460.592 90.224C460.592 87.968 461.344 86.064 462.848 84.512C464.352 82.96 466.216 82.184 468.44 82.184C470.664 82.184 472.528 82.96 474.032 84.512C475.536 86.064 476.288 87.968 476.288 90.224C476.288 92.464 475.536 94.36 474.032 95.912C472.528 97.464 470.664 98.24 468.44 98.24ZM468.44 83.168C466.52 83.168 464.92 83.848 463.64 85.208C462.376 86.568 461.744 88.24 461.744 90.224C461.744 92.192 462.376 93.856 463.64 95.216C464.92 96.56 466.52 97.232 468.44 97.232C470.376 97.232 471.976 96.56 473.24 95.216C474.504 93.856 475.136 92.192 475.136 90.224C475.136 88.24 474.504 86.568 473.24 85.208C471.976 83.848 470.376 83.168 468.44 83.168ZM483.523 83.096C482.659 83.096 481.955 83.304 481.411 83.72C480.867 84.136 480.595 84.72 480.595 85.472C480.595 86.336 480.955 87.112 481.675 87.8C482.187 88.296 482.843 88.824 483.643 89.384C484.459 89.928 485.019 90.32 485.323 90.56C485.627 90.8 485.995 91.128 486.427 91.544C487.211 92.328 487.603 93.232 487.603 94.256C487.603 95.584 487.155 96.592 486.259 97.28C485.379 97.952 484.139 98.288 482.539 98.288C480.955 98.288 479.627 97.872 478.555 97.04L479.131 96.2C480.219 96.936 481.371 97.304 482.587 97.304C483.803 97.304 484.747 97.048 485.419 96.536C486.107 96.024 486.451 95.304 486.451 94.376C486.451 93.576 486.107 92.84 485.419 92.168C484.939 91.688 484.291 91.168 483.475 90.608C482.675 90.048 482.115 89.648 481.795 89.408C481.475 89.152 481.099 88.816 480.667 88.4C479.851 87.584 479.443 86.64 479.443 85.568C479.443 84.496 479.819 83.656 480.571 83.048C481.339 82.44 482.395 82.136 483.739 82.136C485.083 82.136 486.291 82.4 487.363 82.928L486.955 83.816C485.963 83.336 484.819 83.096 483.523 83.096Z"/>
<path d="M71.8532 99.4545C66.0047 99.3939 60.838 97.8182 56.3532 94.7273C51.8986 91.6364 48.4138 87.3636 45.8986 81.9091C43.3835 76.4545 42.1259 70.1818 42.1259 63.0909C42.1259 56.0303 43.4441 49.8182 46.0805 44.4545C48.7168 39.0606 52.3077 34.8485 56.8532 31.8182C61.3986 28.7879 66.535 27.2727 72.2623 27.2727C76.2017 27.2727 79.7168 28 82.8077 29.4545C85.8986 30.8788 88.5502 32.8939 90.7623 35.5C92.9744 38.0758 94.7623 41.0909 96.1259 44.5455H101.399L105.171 62.9091L113.899 98H100.626L92.4441 62.9091C91.9895 60.6364 91.3229 58.2273 90.4441 55.6818C89.5653 53.1061 88.4289 50.697 87.035 48.4545C85.6411 46.1818 83.8986 44.3333 81.8077 42.9091C79.7471 41.4848 77.2774 40.7727 74.3986 40.7727C71.0956 40.7727 68.232 41.7273 65.8077 43.6364C63.4138 45.5151 61.5502 48.1364 60.2168 51.5C58.9138 54.8636 58.2623 58.7121 58.2623 63.0455C58.2623 67.3788 58.8986 71.2727 60.1714 74.7273C61.4744 78.1515 63.2926 80.8485 65.6259 82.8182C67.9592 84.7576 70.6562 85.7273 73.7168 85.7273C76.4744 85.7273 78.9138 85 81.035 83.5455C83.1562 82.0606 84.9744 80.1667 86.4895 77.8636C88.0047 75.5303 89.2471 73.0758 90.2168 70.5C91.2168 67.8939 91.9592 65.4848 92.4441 63.2727L99.8532 28.1818H112.99L105.171 63.2727L101.399 81.5455H96.4441C95.1108 85 93.3229 88.0909 91.0805 90.8182C88.8683 93.5152 86.1714 95.6364 82.9895 97.1818C79.8077 98.7273 76.0956 99.4848 71.8532 99.4545ZM304.583 99.4545C298.735 99.3939 293.568 97.8182 289.083 94.7273C284.629 91.6364 281.144 87.3636 278.629 81.9091C276.113 76.4545 274.856 70.1818 274.856 63.0909C274.856 56.0303 276.174 49.8182 278.81 44.4545C281.447 39.0606 285.038 34.8485 289.583 31.8182C294.129 28.7879 299.265 27.2727 304.992 27.2727C308.932 27.2727 312.447 28 315.538 29.4545C318.629 30.8788 321.28 32.8939 323.492 35.5C325.704 38.0758 327.492 41.0909 328.856 44.5455H334.129L337.901 62.9091L346.629 98H333.356L325.174 62.9091C324.72 60.6364 324.053 58.2273 323.174 55.6818C322.295 53.1061 321.159 50.697 319.765 48.4545C318.371 46.1818 316.629 44.3333 314.538 42.9091C312.477 41.4848 310.007 40.7727 307.129 40.7727C303.826 40.7727 300.962 41.7273 298.538 43.6364C296.144 45.5151 294.28 48.1364 292.947 51.5C291.644 54.8636 290.992 58.7121 290.992 63.0455C290.992 67.3788 291.629 71.2727 292.901 74.7273C294.204 78.1515 296.023 80.8485 298.356 82.8182C300.689 84.7576 303.386 85.7273 306.447 85.7273C309.204 85.7273 311.644 85 313.765 83.5455C315.886 82.0606 317.704 80.1667 319.22 77.8636C320.735 75.5303 321.977 73.0758 322.947 70.5C323.947 67.8939 324.689 65.4848 325.174 63.2727L332.583 28.1818H345.72L337.901 63.2727L334.129 81.5455H329.174C327.841 85 326.053 88.0909 323.81 90.8182C321.598 93.5152 318.901 95.6364 315.72 97.1818C312.538 98.7273 308.826 99.4848 304.583 99.4545Z"/>
</mask>
<path d="M15.4545 28.1818H31.9091V102C31.9091 107.03 30.9545 111.182 29.0455 114.455C27.1364 117.727 24.3788 120.167 20.7727 121.773C17.1667 123.379 12.7879 124.182 7.63636 124.182C7.0303 124.182 6.4697 124.167 5.95455 124.136C5.43939 124.136 4.87879 124.121 4.27273 124.091V110.682C4.72727 110.712 5.13636 110.727 5.5 110.727C5.86364 110.758 6.24242 110.773 6.63636 110.773C9.78788 110.773 12.0455 110 13.4091 108.455C14.7727 106.939 15.4545 104.712 15.4545 101.773V28.1818ZM23.6364 18.2727C21 18.2727 18.7424 17.4091 16.8636 15.6818C15.0152 13.9242 14.0909 11.8182 14.0909 9.36363C14.0909 6.87878 15.0152 4.77272 16.8636 3.04545C18.7424 1.28787 21 0.409088 23.6364 0.409088C26.2424 0.409088 28.4697 1.28787 30.3182 3.04545C32.197 4.77272 33.1364 6.87878 33.1364 9.36363C33.1364 11.8182 32.197 13.9242 30.3182 15.6818C28.4697 17.4091 26.2424 18.2727 23.6364 18.2727ZM124.877 98V4.90909H141.331V39.7273H142.013C142.862 38.0303 144.059 36.2273 145.604 34.3182C147.15 32.3788 149.24 30.7273 151.877 29.3636C154.513 27.9697 157.877 27.2727 161.968 27.2727C167.362 27.2727 172.225 28.6515 176.559 31.4091C180.922 34.1364 184.377 38.1818 186.922 43.5455C189.498 48.8788 190.786 55.4242 190.786 63.1818C190.786 70.8485 189.528 77.3636 187.013 82.7273C184.498 88.0909 181.074 92.1818 176.74 95C172.407 97.8182 167.498 99.2273 162.013 99.2273C158.013 99.2273 154.695 98.5606 152.059 97.2273C149.422 95.8939 147.301 94.2879 145.695 92.4091C144.119 90.5 142.892 88.697 142.013 87H141.059V98H124.877ZM141.013 63.0909C141.013 67.6061 141.65 71.5606 142.922 74.9545C144.225 78.3485 146.089 81 148.513 82.9091C150.968 84.7879 153.937 85.7273 157.422 85.7273C161.059 85.7273 164.104 84.7576 166.559 82.8182C169.013 80.8485 170.862 78.1667 172.104 74.7727C173.377 71.3485 174.013 67.4545 174.013 63.0909C174.013 58.7576 173.392 54.9091 172.15 51.5455C170.907 48.1818 169.059 45.5455 166.604 43.6364C164.15 41.7273 161.089 40.7727 157.422 40.7727C153.907 40.7727 150.922 41.697 148.468 43.5455C146.013 45.3939 144.15 47.9848 142.877 51.3182C141.634 54.6515 141.013 58.5758 141.013 63.0909ZM201.662 98V4.90909H218.116V39.7273H218.798C219.647 38.0303 220.844 36.2273 222.389 34.3182C223.935 32.3788 226.025 30.7273 228.662 29.3636C231.298 27.9697 234.662 27.2727 238.753 27.2727C244.147 27.2727 249.01 28.6515 253.344 31.4091C257.707 34.1364 261.162 38.1818 263.707 43.5455C266.283 48.8788 267.571 55.4242 267.571 63.1818C267.571 70.8485 266.313 77.3636 263.798 82.7273C261.283 88.0909 257.859 92.1818 253.525 95C249.192 97.8182 244.283 99.2273 238.798 99.2273C234.798 99.2273 231.48 98.5606 228.844 97.2273C226.207 95.8939 224.086 94.2879 222.48 92.4091C220.904 90.5 219.677 88.697 218.798 87H217.844V98H201.662ZM217.798 63.0909C217.798 67.6061 218.435 71.5606 219.707 74.9545C221.01 78.3485 222.874 81 225.298 82.9091C227.753 84.7879 230.722 85.7273 234.207 85.7273C237.844 85.7273 240.889 84.7576 243.344 82.8182C245.798 80.8485 247.647 78.1667 248.889 74.7727C250.162 71.3485 250.798 67.4545 250.798 63.0909C250.798 58.7576 250.177 54.9091 248.935 51.5455C247.692 48.1818 245.844 45.5455 243.389 43.6364C240.935 41.7273 237.874 40.7727 234.207 40.7727C230.692 40.7727 227.707 41.697 225.253 43.5455C222.798 45.3939 220.935 47.9848 219.662 51.3182C218.419 54.6515 217.798 58.5758 217.798 63.0909ZM356.88 98V28.1818H372.834V39.8182H373.561C374.834 35.7879 377.016 32.6818 380.107 30.5C383.228 28.2879 386.789 27.1818 390.789 27.1818C391.698 27.1818 392.713 27.2273 393.834 27.3182C394.986 27.3788 395.94 27.4848 396.698 27.6364V42.7727C396.001 42.5303 394.895 42.3182 393.38 42.1364C391.895 41.9242 390.455 41.8182 389.061 41.8182C386.061 41.8182 383.364 42.4697 380.97 43.7727C378.607 45.0455 376.743 46.8182 375.38 49.0909C374.016 51.3636 373.334 53.9848 373.334 56.9545V98H356.88ZM401.359 83.096C400.495 83.096 399.791 83.304 399.247 83.72C398.703 84.136 398.431 84.72 398.431 85.472C398.431 86.336 398.791 87.112 399.511 87.8C400.023 88.296 400.679 88.824 401.479 89.384C402.295 89.928 402.855 90.32 403.159 90.56C403.463 90.8 403.831 91.128 404.263 91.544C405.047 92.328 405.439 93.232 405.439 94.256C405.439 95.584 404.991 96.592 404.095 97.28C403.215 97.952 401.975 98.288 400.375 98.288C398.791 98.288 397.463 97.872 396.391 97.04L396.967 96.2C398.055 96.936 399.207 97.304 400.423 97.304C401.639 97.304 402.583 97.048 403.255 96.536C403.943 96.024 404.287 95.304 404.287 94.376C404.287 93.576 403.943 92.84 403.255 92.168C402.775 91.688 402.127 91.168 401.311 90.608C400.511 90.048 399.951 89.648 399.631 89.408C399.311 89.152 398.935 88.816 398.503 88.4C397.687 87.584 397.279 86.64 397.279 85.568C397.279 84.496 397.655 83.656 398.407 83.048C399.175 82.44 400.231 82.136 401.575 82.136C402.919 82.136 404.127 82.4 405.199 82.928L404.791 83.816C403.799 83.336 402.655 83.096 401.359 83.096ZM411.927 83.408H406.647V82.424H418.287V83.408H413.007V98H411.927V83.408ZM431.91 96.392C430.854 97.624 429.246 98.24 427.086 98.24C424.926 98.24 423.318 97.624 422.262 96.392C421.206 95.16 420.678 93.456 420.678 91.28V82.424H421.782V91.28C421.782 95.264 423.55 97.256 427.086 97.256C430.622 97.256 432.39 95.264 432.39 91.28V82.424H433.494V91.28C433.494 93.456 432.966 95.16 431.91 96.392ZM443.375 97.184C445.423 97.184 447.063 96.632 448.295 95.528C449.543 94.424 450.167 92.76 450.167 90.536C450.167 88.312 449.463 86.544 448.055 85.232C446.663 83.92 444.943 83.264 442.895 83.264C441.439 83.264 440.319 83.296 439.535 83.36V97.016C440.495 97.128 441.775 97.184 443.375 97.184ZM442.895 82.28C445.295 82.28 447.295 83.024 448.895 84.512C450.511 85.984 451.319 87.992 451.319 90.536C451.319 93.08 450.575 94.992 449.087 96.272C447.615 97.552 445.711 98.192 443.375 98.192C441.759 98.192 440.095 98.112 438.383 97.952V82.424C439.663 82.328 441.167 82.28 442.895 82.28ZM455.405 98V82.424H456.509V98H455.405ZM468.44 98.24C466.216 98.24 464.352 97.464 462.848 95.912C461.344 94.36 460.592 92.464 460.592 90.224C460.592 87.968 461.344 86.064 462.848 84.512C464.352 82.96 466.216 82.184 468.44 82.184C470.664 82.184 472.528 82.96 474.032 84.512C475.536 86.064 476.288 87.968 476.288 90.224C476.288 92.464 475.536 94.36 474.032 95.912C472.528 97.464 470.664 98.24 468.44 98.24ZM468.44 83.168C466.52 83.168 464.92 83.848 463.64 85.208C462.376 86.568 461.744 88.24 461.744 90.224C461.744 92.192 462.376 93.856 463.64 95.216C464.92 96.56 466.52 97.232 468.44 97.232C470.376 97.232 471.976 96.56 473.24 95.216C474.504 93.856 475.136 92.192 475.136 90.224C475.136 88.24 474.504 86.568 473.24 85.208C471.976 83.848 470.376 83.168 468.44 83.168ZM483.523 83.096C482.659 83.096 481.955 83.304 481.411 83.72C480.867 84.136 480.595 84.72 480.595 85.472C480.595 86.336 480.955 87.112 481.675 87.8C482.187 88.296 482.843 88.824 483.643 89.384C484.459 89.928 485.019 90.32 485.323 90.56C485.627 90.8 485.995 91.128 486.427 91.544C487.211 92.328 487.603 93.232 487.603 94.256C487.603 95.584 487.155 96.592 486.259 97.28C485.379 97.952 484.139 98.288 482.539 98.288C480.955 98.288 479.627 97.872 478.555 97.04L479.131 96.2C480.219 96.936 481.371 97.304 482.587 97.304C483.803 97.304 484.747 97.048 485.419 96.536C486.107 96.024 486.451 95.304 486.451 94.376C486.451 93.576 486.107 92.84 485.419 92.168C484.939 91.688 484.291 91.168 483.475 90.608C482.675 90.048 482.115 89.648 481.795 89.408C481.475 89.152 481.099 88.816 480.667 88.4C479.851 87.584 479.443 86.64 479.443 85.568C479.443 84.496 479.819 83.656 480.571 83.048C481.339 82.44 482.395 82.136 483.739 82.136C485.083 82.136 486.291 82.4 487.363 82.928L486.955 83.816C485.963 83.336 484.819 83.096 483.523 83.096Z" fill="white"/>
<path d="M71.8532 99.4545C66.0047 99.3939 60.838 97.8182 56.3532 94.7273C51.8986 91.6364 48.4138 87.3636 45.8986 81.9091C43.3835 76.4545 42.1259 70.1818 42.1259 63.0909C42.1259 56.0303 43.4441 49.8182 46.0805 44.4545C48.7168 39.0606 52.3077 34.8485 56.8532 31.8182C61.3986 28.7879 66.535 27.2727 72.2623 27.2727C76.2017 27.2727 79.7168 28 82.8077 29.4545C85.8986 30.8788 88.5502 32.8939 90.7623 35.5C92.9744 38.0758 94.7623 41.0909 96.1259 44.5455H101.399L105.171 62.9091L113.899 98H100.626L92.4441 62.9091C91.9895 60.6364 91.3229 58.2273 90.4441 55.6818C89.5653 53.1061 88.4289 50.697 87.035 48.4545C85.6411 46.1818 83.8986 44.3333 81.8077 42.9091C79.7471 41.4848 77.2774 40.7727 74.3986 40.7727C71.0956 40.7727 68.232 41.7273 65.8077 43.6364C63.4138 45.5151 61.5502 48.1364 60.2168 51.5C58.9138 54.8636 58.2623 58.7121 58.2623 63.0455C58.2623 67.3788 58.8986 71.2727 60.1714 74.7273C61.4744 78.1515 63.2926 80.8485 65.6259 82.8182C67.9592 84.7576 70.6562 85.7273 73.7168 85.7273C76.4744 85.7273 78.9138 85 81.035 83.5455C83.1562 82.0606 84.9744 80.1667 86.4895 77.8636C88.0047 75.5303 89.2471 73.0758 90.2168 70.5C91.2168 67.8939 91.9592 65.4848 92.4441 63.2727L99.8532 28.1818H112.99L105.171 63.2727L101.399 81.5455H96.4441C95.1108 85 93.3229 88.0909 91.0805 90.8182C88.8683 93.5152 86.1714 95.6364 82.9895 97.1818C79.8077 98.7273 76.0956 99.4848 71.8532 99.4545ZM304.583 99.4545C298.735 99.3939 293.568 97.8182 289.083 94.7273C284.629 91.6364 281.144 87.3636 278.629 81.9091C276.113 76.4545 274.856 70.1818 274.856 63.0909C274.856 56.0303 276.174 49.8182 278.81 44.4545C281.447 39.0606 285.038 34.8485 289.583 31.8182C294.129 28.7879 299.265 27.2727 304.992 27.2727C308.932 27.2727 312.447 28 315.538 29.4545C318.629 30.8788 321.28 32.8939 323.492 35.5C325.704 38.0758 327.492 41.0909 328.856 44.5455H334.129L337.901 62.9091L346.629 98H333.356L325.174 62.9091C324.72 60.6364 324.053 58.2273 323.174 55.6818C322.295 53.1061 321.159 50.697 319.765 48.4545C318.371 46.1818 316.629 44.3333 314.538 42.9091C312.477 41.4848 310.007 40.7727 307.129 40.7727C303.826 40.7727 300.962 41.7273 298.538 43.6364C296.144 45.5151 294.28 48.1364 292.947 51.5C291.644 54.8636 290.992 58.7121 290.992 63.0455C290.992 67.3788 291.629 71.2727 292.901 74.7273C294.204 78.1515 296.023 80.8485 298.356 82.8182C300.689 84.7576 303.386 85.7273 306.447 85.7273C309.204 85.7273 311.644 85 313.765 83.5455C315.886 82.0606 317.704 80.1667 319.22 77.8636C320.735 75.5303 321.977 73.0758 322.947 70.5C323.947 67.8939 324.689 65.4848 325.174 63.2727L332.583 28.1818H345.72L337.901 63.2727L334.129 81.5455H329.174C327.841 85 326.053 88.0909 323.81 90.8182C321.598 93.5152 318.901 95.6364 315.72 97.1818C312.538 98.7273 308.826 99.4848 304.583 99.4545Z" fill="#8341E6"/>
<path d="M15.4545 28.1818V27.1818H14.4545V28.1818H15.4545ZM31.9091 28.1818H32.9091V27.1818H31.9091V28.1818ZM29.0455 114.455L29.9092 114.958L29.9092 114.958L29.0455 114.455ZM20.7727 121.773L20.3659 120.859L20.3659 120.859L20.7727 121.773ZM5.95455 124.136L6.01327 123.138L5.98393 123.136H5.95455V124.136ZM4.27273 124.091H3.27273V125.042L4.22279 125.09L4.27273 124.091ZM4.27273 110.682L4.33925 109.684L3.27273 109.613V110.682H4.27273ZM5.5 110.727L5.58305 109.731L5.54159 109.727H5.5V110.727ZM13.4091 108.455L12.6658 107.786L12.6593 107.793L13.4091 108.455ZM16.8636 15.6818L16.1746 16.4065L16.1807 16.4123L16.1868 16.418L16.8636 15.6818ZM16.8636 3.04545L17.5464 3.7761L17.5468 3.77572L16.8636 3.04545ZM30.3182 3.04545L29.6291 3.77015L29.6352 3.77593L29.6414 3.78162L30.3182 3.04545ZM30.3182 15.6818L31.0009 16.4125L31.0013 16.4121L30.3182 15.6818ZM15.4545 29.1818H31.9091V27.1818H15.4545V29.1818ZM30.9091 28.1818V102H32.9091V28.1818H30.9091ZM30.9091 102C30.9091 106.909 29.977 110.873 28.1817 113.951L29.9092 114.958C31.9321 111.491 32.9091 107.151 32.9091 102H30.9091ZM28.1817 113.951C26.3828 117.034 23.789 119.335 20.3659 120.859L21.1796 122.686C24.9686 120.999 27.8899 118.42 29.9092 114.958L28.1817 113.951ZM20.3659 120.859C16.9206 122.394 12.6886 123.182 7.63636 123.182V125.182C12.8872 125.182 17.4128 124.364 21.1796 122.686L20.3659 120.859ZM7.63636 123.182C7.04662 123.182 6.50585 123.167 6.01327 123.138L5.89582 125.135C6.43354 125.166 7.01399 125.182 7.63636 125.182V123.182ZM5.95455 123.136C5.45866 123.136 4.91492 123.122 4.32266 123.092L4.22279 125.09C4.84265 125.121 5.42013 125.136 5.95455 125.136V123.136ZM5.27273 124.091V110.682H3.27273V124.091H5.27273ZM4.20621 111.68C4.67764 111.711 5.10947 111.727 5.5 111.727V109.727C5.16326 109.727 4.7769 109.713 4.33925 109.684L4.20621 111.68ZM5.41695 111.724C5.81029 111.757 6.21687 111.773 6.63636 111.773V109.773C6.26798 109.773 5.91698 109.759 5.58305 109.731L5.41695 111.724ZM6.63636 111.773C9.92296 111.773 12.524 110.969 14.1589 109.116L12.6593 107.793C11.5669 109.031 9.6528 109.773 6.63636 109.773V111.773ZM14.1524 109.124C15.7415 107.358 16.4545 104.851 16.4545 101.773H14.4545C14.4545 104.573 13.804 106.521 12.6658 107.786L14.1524 109.124ZM16.4545 101.773V28.1818H14.4545V101.773H16.4545ZM23.6364 17.2727C21.2416 17.2727 19.2281 16.4972 17.5404 14.9456L16.1868 16.418C18.2568 18.321 20.7584 19.2727 23.6364 19.2727V17.2727ZM17.5527 14.9571C15.894 13.38 15.0909 11.5324 15.0909 9.36363H13.0909C13.0909 12.104 14.1363 14.4685 16.1746 16.4065L17.5527 14.9571ZM15.0909 9.36363C15.0909 7.16141 15.8961 5.31816 17.5464 3.7761L16.1809 2.31479C14.1342 4.22728 13.0909 6.59616 13.0909 9.36363H15.0909ZM17.5468 3.77572C19.2353 2.19615 21.2467 1.40909 23.6364 1.40909V-0.590912C20.7533 -0.590912 18.2495 0.379599 16.1805 2.31518L17.5468 3.77572ZM23.6364 1.40909C25.9921 1.40909 27.971 2.19354 29.6291 3.77015L31.0072 2.32075C28.9684 0.38221 26.4927 -0.590912 23.6364 -0.590912V1.40909ZM29.6414 3.78162C31.3205 5.32534 32.1364 7.16706 32.1364 9.36363H34.1364C34.1364 6.5905 33.0734 4.22011 30.995 2.30928L29.6414 3.78162ZM32.1364 9.36363C32.1364 11.5267 31.3226 13.3728 29.635 14.9515L31.0013 16.4121C33.0713 14.4757 34.1364 12.1096 34.1364 9.36363H32.1364ZM29.6354 14.9512C27.9783 16.4997 25.9974 17.2727 23.6364 17.2727V19.2727C26.4875 19.2727 28.9611 18.3185 31.0009 16.4125L29.6354 14.9512ZM71.8532 99.4545L71.8428 100.454L71.846 100.455L71.8532 99.4545ZM56.3532 94.7273L55.7831 95.5489L55.7857 95.5507L56.3532 94.7273ZM45.8986 81.9091L46.8067 81.4904L46.8067 81.4904L45.8986 81.9091ZM46.0805 44.4545L46.9779 44.8957L46.9789 44.8937L46.0805 44.4545ZM56.8532 31.8182L56.2985 30.9861L56.2985 30.9861L56.8532 31.8182ZM82.8077 29.4545L82.3819 30.3594L82.3892 30.3628L82.8077 29.4545ZM90.7623 35.5L89.9999 36.1471L90.0036 36.1515L90.7623 35.5ZM96.1259 44.5455L95.1958 44.9126L95.4456 45.5455H96.1259V44.5455ZM101.399 44.5455L102.378 44.3442L102.214 43.5455H101.399V44.5455ZM105.171 62.9091L104.192 63.1103L104.196 63.1305L104.201 63.1504L105.171 62.9091ZM113.899 98V99H115.178L114.869 97.7586L113.899 98ZM100.626 98L99.652 98.2271L99.8323 99H100.626V98ZM92.4441 62.9091L91.4635 63.1052L91.4666 63.1207L91.4702 63.1362L92.4441 62.9091ZM90.4441 55.6818L89.4977 56.0047L89.4988 56.0082L90.4441 55.6818ZM87.035 48.4545L86.1825 48.9774L86.1857 48.9825L87.035 48.4545ZM81.8077 42.9091L81.2391 43.7317L81.2448 43.7356L81.8077 42.9091ZM65.8077 43.6364L66.4251 44.423L66.4264 44.422L65.8077 43.6364ZM60.2168 51.5L59.2872 51.1315L59.2843 51.1388L60.2168 51.5ZM60.1714 74.7273L59.233 75.073L59.2367 75.0829L60.1714 74.7273ZM65.6259 82.8182L64.9808 83.5823L64.9867 83.5872L65.6259 82.8182ZM81.035 83.5455L81.6006 84.3702L81.6085 84.3647L81.035 83.5455ZM86.4895 77.8636L87.325 78.4133L87.3282 78.4082L86.4895 77.8636ZM90.2168 70.5L89.2832 70.1417L89.2809 70.1477L90.2168 70.5ZM92.4441 63.2727L93.4209 63.4868L93.4225 63.4793L92.4441 63.2727ZM99.8532 28.1818V27.1818H99.0423L98.8748 27.9752L99.8532 28.1818ZM112.99 28.1818L113.966 28.3993L114.237 27.1818H112.99V28.1818ZM105.171 63.2727L104.195 63.0553L104.194 63.0629L104.192 63.0705L105.171 63.2727ZM101.399 81.5455V82.5455H102.213L102.378 81.7477L101.399 81.5455ZM96.4441 81.5455V80.5455H95.7582L95.5112 81.1854L96.4441 81.5455ZM91.0805 90.8182L90.308 90.1831L90.3073 90.184L91.0805 90.8182ZM71.8635 98.4546C66.1988 98.3959 61.2293 96.8733 56.9207 93.9039L55.7857 95.5507C60.4468 98.763 65.8106 100.392 71.8428 100.454L71.8635 98.4546ZM56.9233 93.9057C52.6307 90.9272 49.2555 86.8008 46.8067 81.4904L44.9905 82.3278C47.5721 87.9265 51.1665 92.3455 55.7831 95.5489L56.9233 93.9057ZM46.8067 81.4904C44.3621 76.1887 43.1259 70.0631 43.1259 63.0909H41.1259C41.1259 70.3006 42.4049 76.7204 44.9905 82.3278L46.8067 81.4904ZM43.1259 63.0909C43.1259 56.1557 44.4202 50.0993 46.9779 44.8957L45.183 44.0134C42.468 49.5371 41.1259 55.9049 41.1259 63.0909H43.1259ZM46.9789 44.8937C49.5454 39.6426 53.0241 35.5728 57.4079 32.6502L56.2985 30.9861C51.5914 34.1242 47.8882 38.4786 45.182 44.0154L46.9789 44.8937ZM57.4079 32.6502C61.7809 29.7349 66.7223 28.2727 72.2623 28.2727V26.2727C66.3477 26.2727 61.0164 27.8409 56.2985 30.9861L57.4079 32.6502ZM72.2623 28.2727C76.077 28.2727 79.4432 28.9764 82.3819 30.3594L83.2335 28.5497C79.9905 27.0236 76.3264 26.2727 72.2623 26.2727V28.2727ZM82.3892 30.3628C85.3473 31.7258 87.8816 33.6516 89.9999 36.1471L91.5247 34.8529C89.2187 32.1363 86.45 30.0318 83.2262 28.5463L82.3892 30.3628ZM90.0036 36.1515C92.1366 38.6352 93.8692 41.5521 95.1958 44.9126L97.0561 44.1783C95.6553 40.6298 93.8121 37.5164 91.5209 34.8485L90.0036 36.1515ZM96.1259 45.5455H101.399V43.5455H96.1259V45.5455ZM100.419 44.7467L104.192 63.1103L106.151 62.7078L102.378 44.3442L100.419 44.7467ZM104.201 63.1504L112.928 98.2414L114.869 97.7586L106.142 62.6677L104.201 63.1504ZM113.899 97H100.626V99H113.899V97ZM101.6 97.7729L93.418 62.682L91.4702 63.1362L99.652 98.2271L101.6 97.7729ZM93.4247 62.713C92.96 60.3897 92.2805 57.9369 91.3893 55.3555L89.4988 56.0082C90.3652 58.5177 91.0191 60.883 91.4635 63.1052L93.4247 62.713ZM91.3905 55.3589C90.488 52.7136 89.3195 50.2354 87.8843 47.9266L86.1857 48.9825C87.5384 51.1585 88.6426 53.4986 89.4977 56.0047L91.3905 55.3589ZM87.8874 47.9317C86.4236 45.5451 84.5847 43.5907 82.3707 42.0826L81.2448 43.7356C83.2125 45.0759 84.8585 46.8186 86.1826 48.9774L87.8874 47.9317ZM82.3763 42.0865C80.1246 40.5301 77.4493 39.7727 74.3986 39.7727V41.7727C77.1056 41.7727 79.3697 42.4396 81.2391 43.7317L82.3763 42.0865ZM74.3986 39.7727C70.8881 39.7727 67.8025 40.7927 65.189 42.8507L66.4264 44.422C68.6615 42.6619 71.3031 41.7727 74.3986 41.7727V39.7727ZM65.1903 42.8497C62.6329 44.8568 60.6734 47.6345 59.2872 51.1315L61.1464 51.8685C62.4269 48.6382 64.1947 46.1735 66.4251 44.423L65.1903 42.8497ZM59.2843 51.1388C57.9287 54.6382 57.2623 58.6128 57.2623 63.0455H59.2623C59.2623 58.8114 59.8989 55.089 61.1493 51.8612L59.2843 51.1388ZM57.2623 63.0455C57.2623 67.4763 57.913 71.4901 59.233 75.073L61.1097 74.3816C59.8843 71.0554 59.2623 67.2813 59.2623 63.0455H57.2623ZM59.2367 75.0829C60.5881 78.6341 62.4943 81.4833 64.9809 83.5823L66.271 82.054C64.0908 80.2137 62.3607 77.669 61.106 74.3716L59.2367 75.0829ZM64.9867 83.5872C67.5013 85.6773 70.425 86.7273 73.7168 86.7273V84.7273C70.8875 84.7273 68.4172 83.8379 66.2651 82.0491L64.9867 83.5872ZM73.7168 86.7273C76.661 86.7273 79.3006 85.9473 81.6005 84.3702L80.4695 82.7207C78.527 84.0527 76.2878 84.7273 73.7168 84.7273V86.7273ZM81.6085 84.3647C83.8398 82.8027 85.7449 80.815 87.325 78.4133L85.6541 77.314C84.2039 79.5183 82.4726 81.3185 80.4615 82.7262L81.6085 84.3647ZM87.3282 78.4082C88.8822 76.0152 90.1573 73.4962 91.1527 70.8523L89.2809 70.1477C88.3369 72.6553 87.1272 75.0454 85.6509 77.319L87.3282 78.4082ZM91.1504 70.8583C92.1645 68.2156 92.9232 65.7577 93.4209 63.4868L91.4673 63.0586C90.9953 65.212 90.2692 67.5723 89.2832 70.1417L91.1504 70.8583ZM93.4225 63.4793L100.832 28.3884L98.8748 27.9752L91.4657 63.0661L93.4225 63.4793ZM99.8532 29.1818H112.99V27.1818H99.8532V29.1818ZM112.013 27.9644L104.195 63.0553L106.147 63.4902L113.966 28.3993L112.013 27.9644ZM104.192 63.0705L100.419 81.3433L102.378 81.7477L106.151 63.4749L104.192 63.0705ZM101.399 80.5455H96.4441V82.5455H101.399V80.5455ZM95.5112 81.1854C94.2144 84.5452 92.4794 87.5423 90.308 90.1831L91.8529 91.4533C94.1664 88.6395 96.0071 85.4548 97.377 81.9055L95.5112 81.1854ZM90.3073 90.184C88.1881 92.7677 85.6064 94.7991 82.5526 96.2823L83.4265 98.0813C86.7363 96.4737 89.5486 94.2626 91.8536 91.4524L90.3073 90.184ZM82.5526 96.2823C79.5341 97.7485 75.9793 98.484 71.8603 98.4546L71.846 100.455C76.2119 100.486 80.0814 99.7061 83.4265 98.0813L82.5526 96.2823ZM124.877 98H123.877V99H124.877V98ZM124.877 4.90909V3.90909H123.877V4.90909H124.877ZM141.331 4.90909H142.331V3.90909H141.331V4.90909ZM141.331 39.7273H140.331V40.7273H141.331V39.7273ZM142.013 39.7273V40.7273H142.631L142.908 40.1745L142.013 39.7273ZM145.604 34.3182L146.381 34.9474L146.386 34.9414L145.604 34.3182ZM151.877 29.3636L152.336 30.2519L152.344 30.2477L151.877 29.3636ZM176.559 31.4091L176.022 32.2528L176.029 32.2571L176.559 31.4091ZM186.922 43.5455L186.019 43.9742L186.022 43.9803L186.922 43.5455ZM187.013 82.7273L186.108 82.3027L186.108 82.3027L187.013 82.7273ZM176.74 95L177.286 95.8383L177.286 95.8383L176.74 95ZM152.059 97.2273L151.607 98.1196L151.607 98.1196L152.059 97.2273ZM145.695 92.4091L144.924 93.0457L144.929 93.0523L144.935 93.0589L145.695 92.4091ZM142.013 87L142.901 86.5401L142.621 86H142.013V87ZM141.059 87V86H140.059V87H141.059ZM141.059 98V99H142.059V98H141.059ZM142.922 74.9545L141.986 75.3057L141.989 75.313L142.922 74.9545ZM148.513 82.9091L147.894 83.6948L147.905 83.7032L148.513 82.9091ZM166.559 82.8182L167.179 83.6028L167.185 83.5981L166.559 82.8182ZM172.104 74.7727L171.167 74.4243L171.165 74.429L172.104 74.7727ZM172.15 51.5455L173.088 51.199L173.088 51.199L172.15 51.5455ZM166.604 43.6364L167.218 42.847L167.218 42.847L166.604 43.6364ZM148.468 43.5455L147.866 42.7466L147.866 42.7466L148.468 43.5455ZM142.877 51.3182L141.943 50.9615L141.94 50.9689L142.877 51.3182ZM125.877 98V4.90909H123.877V98H125.877ZM124.877 5.90909H141.331V3.90909H124.877V5.90909ZM140.331 4.90909V39.7273H142.331V4.90909H140.331ZM141.331 40.7273H142.013V38.7273H141.331V40.7273ZM142.908 40.1745C143.716 38.5579 144.869 36.8157 146.381 34.9474L144.827 33.689C143.248 35.6388 142.007 37.5027 141.119 39.2801L142.908 40.1745ZM146.386 34.9414C147.828 33.1315 149.801 31.5634 152.336 30.2518L151.417 28.4754C148.68 29.8912 146.471 31.626 144.822 33.695L146.386 34.9414ZM152.344 30.2477C154.793 28.9529 157.982 28.2727 161.968 28.2727V26.2727C157.771 26.2727 154.233 26.9865 151.409 28.4796L152.344 30.2477ZM161.968 28.2727C167.181 28.2727 171.857 29.6025 176.022 32.2527L177.096 30.5654C172.593 27.7005 167.542 26.2727 161.968 26.2727V28.2727ZM176.029 32.2571C180.207 34.8683 183.542 38.756 186.019 43.9742L187.826 43.1167C185.211 37.6077 181.638 33.4044 177.089 30.5611L176.029 32.2571ZM186.022 43.9803C188.515 49.1428 189.786 55.5301 189.786 63.1818H191.786C191.786 55.3184 190.481 48.6148 187.823 43.1106L186.022 43.9803ZM189.786 63.1818C189.786 70.7432 188.545 77.105 186.108 82.3027L187.919 83.1518C190.512 77.6223 191.786 70.9537 191.786 63.1818H189.786ZM186.108 82.3027C183.66 87.5227 180.351 91.4593 176.195 94.1617L177.286 95.8383C181.797 92.9043 185.336 88.6591 187.919 83.1518L186.108 82.3027ZM176.195 94.1617C172.034 96.8678 167.317 98.2273 162.013 98.2273V100.227C167.679 100.227 172.78 98.7686 177.286 95.8383L176.195 94.1617ZM162.013 98.2273C158.117 98.2273 154.966 97.577 152.51 96.3349L151.607 98.1196C154.424 99.5442 157.909 100.227 162.013 100.227V98.2273ZM152.51 96.3349C149.969 95.0498 147.96 93.52 146.455 91.7593L144.935 93.0589C146.642 95.0557 148.876 96.7381 151.607 98.1196L152.51 96.3349ZM146.466 91.7725C144.923 89.903 143.74 88.159 142.901 86.5401L141.125 87.4599C142.044 89.235 143.315 91.097 144.924 93.0457L146.466 91.7725ZM142.013 86H141.059V88H142.013V86ZM140.059 87V98H142.059V87H140.059ZM141.059 97H124.877V99H141.059V97ZM140.013 63.0909C140.013 67.6976 140.662 71.7757 141.986 75.3057L143.859 74.6034C142.637 71.3455 142.013 67.5145 142.013 63.0909H140.013ZM141.989 75.313C143.345 78.8448 145.305 81.6557 147.894 83.6947L149.132 82.1235C146.873 80.3443 145.106 77.8521 143.856 74.5961L141.989 75.313ZM147.905 83.7032C150.556 85.7323 153.747 86.7273 157.422 86.7273V84.7273C154.128 84.7273 151.379 83.8434 149.121 82.115L147.905 83.7032ZM157.422 86.7273C161.245 86.7273 164.52 85.7037 167.179 83.6028L165.939 82.0335C163.688 83.8115 160.872 84.7273 157.422 84.7273V86.7273ZM167.185 83.5981C169.801 81.4982 171.748 78.6558 173.043 75.1165L171.165 74.429C169.976 77.6776 168.225 80.1988 165.933 82.0383L167.185 83.5981ZM173.041 75.1211C174.363 71.5661 175.013 67.5509 175.013 63.0909H173.013C173.013 67.3582 172.391 71.1309 171.167 74.4243L173.041 75.1211ZM175.013 63.0909C175.013 58.6633 174.379 54.694 173.088 51.199L171.211 51.8919C172.405 55.1242 173.013 58.8519 173.013 63.0909H175.013ZM173.088 51.199C171.791 47.6877 169.841 44.8873 167.218 42.847L165.99 44.4257C168.276 46.2036 170.024 48.6759 171.211 51.8919L173.088 51.199ZM167.218 42.847C164.558 40.778 161.27 39.7727 157.422 39.7727V41.7727C160.908 41.7727 163.741 42.6765 165.99 44.4257L167.218 42.847ZM157.422 39.7727C153.723 39.7727 150.518 40.7492 147.866 42.7466L149.069 44.3443C151.326 42.6447 154.092 41.7727 157.422 41.7727V39.7727ZM147.866 42.7466C145.238 44.7255 143.271 47.4813 141.943 50.9615L143.811 51.6749C145.028 48.4884 146.788 46.0623 149.069 44.3443L147.866 42.7466ZM141.94 50.9689C140.646 54.4395 140.013 58.4872 140.013 63.0909H142.013C142.013 58.6643 142.623 54.8635 143.814 51.6674L141.94 50.9689ZM201.662 98H200.662V99H201.662V98ZM201.662 4.90909V3.90909H200.662V4.90909H201.662ZM218.116 4.90909H219.116V3.90909H218.116V4.90909ZM218.116 39.7273H217.116V40.7273H218.116V39.7273ZM218.798 39.7273V40.7273H219.416L219.693 40.1745L218.798 39.7273ZM222.389 34.3182L223.166 34.9474L223.171 34.9414L222.389 34.3182ZM228.662 29.3636L229.121 30.2519L229.129 30.2477L228.662 29.3636ZM253.344 31.4091L252.807 32.2528L252.814 32.2571L253.344 31.4091ZM263.707 43.5455L262.804 43.9742L262.807 43.9803L263.707 43.5455ZM263.798 82.7273L262.893 82.3027L262.893 82.3027L263.798 82.7273ZM253.525 95L254.071 95.8383L254.071 95.8383L253.525 95ZM228.844 97.2273L228.392 98.1196L228.392 98.1196L228.844 97.2273ZM222.48 92.4091L221.709 93.0457L221.714 93.0523L221.72 93.0589L222.48 92.4091ZM218.798 87L219.686 86.5401L219.406 86H218.798V87ZM217.844 87V86H216.844V87H217.844ZM217.844 98V99H218.844V98H217.844ZM219.707 74.9545L218.771 75.3057L218.774 75.313L219.707 74.9545ZM225.298 82.9091L224.679 83.6948L224.69 83.7032L225.298 82.9091ZM243.344 82.8182L243.964 83.6028L243.97 83.5981L243.344 82.8182ZM248.889 74.7727L247.952 74.4243L247.95 74.429L248.889 74.7727ZM248.935 51.5455L249.873 51.199L249.873 51.199L248.935 51.5455ZM243.389 43.6364L244.003 42.847L244.003 42.847L243.389 43.6364ZM225.253 43.5455L224.651 42.7466L224.651 42.7466L225.253 43.5455ZM219.662 51.3182L218.728 50.9615L218.725 50.9689L219.662 51.3182ZM202.662 98V4.90909H200.662V98H202.662ZM201.662 5.90909H218.116V3.90909H201.662V5.90909ZM217.116 4.90909V39.7273H219.116V4.90909H217.116ZM218.116 40.7273H218.798V38.7273H218.116V40.7273ZM219.693 40.1745C220.501 38.5579 221.654 36.8157 223.166 34.9474L221.612 33.689C220.033 35.6388 218.792 37.5027 217.904 39.2801L219.693 40.1745ZM223.171 34.9414C224.613 33.1315 226.586 31.5634 229.121 30.2518L228.202 28.4754C225.465 29.8912 223.256 31.626 221.607 33.695L223.171 34.9414ZM229.129 30.2477C231.578 28.9529 234.767 28.2727 238.753 28.2727V26.2727C234.556 26.2727 231.018 26.9865 228.194 28.4796L229.129 30.2477ZM238.753 28.2727C243.966 28.2727 248.642 29.6025 252.807 32.2527L253.881 30.5654C249.378 27.7005 244.327 26.2727 238.753 26.2727V28.2727ZM252.814 32.2571C256.992 34.8683 260.327 38.756 262.804 43.9742L264.611 43.1167C261.996 37.6077 258.423 33.4044 253.874 30.5611L252.814 32.2571ZM262.807 43.9803C265.3 49.1428 266.571 55.5301 266.571 63.1818H268.571C268.571 55.3184 267.266 48.6148 264.608 43.1106L262.807 43.9803ZM266.571 63.1818C266.571 70.7432 265.33 77.105 262.893 82.3027L264.704 83.1518C267.297 77.6223 268.571 70.9537 268.571 63.1818H266.571ZM262.893 82.3027C260.445 87.5227 257.136 91.4593 252.98 94.1617L254.071 95.8383C258.582 92.9043 262.121 88.6591 264.704 83.1518L262.893 82.3027ZM252.98 94.1617C248.819 96.8678 244.102 98.2273 238.798 98.2273V100.227C244.464 100.227 249.565 98.7686 254.071 95.8383L252.98 94.1617ZM238.798 98.2273C234.902 98.2273 231.751 97.577 229.295 96.3349L228.392 98.1196C231.209 99.5442 234.694 100.227 238.798 100.227V98.2273ZM229.295 96.3349C226.754 95.0498 224.745 93.52 223.24 91.7593L221.72 93.0589C223.427 95.0557 225.661 96.7381 228.392 98.1196L229.295 96.3349ZM223.251 91.7725C221.708 89.903 220.524 88.159 219.686 86.5401L217.91 87.4599C218.829 89.235 220.1 91.097 221.709 93.0457L223.251 91.7725ZM218.798 86H217.844V88H218.798V86ZM216.844 87V98H218.844V87H216.844ZM217.844 97H201.662V99H217.844V97ZM216.798 63.0909C216.798 67.6976 217.447 71.7757 218.771 75.3057L220.644 74.6034C219.422 71.3455 218.798 67.5145 218.798 63.0909H216.798ZM218.774 75.313C220.13 78.8448 222.09 81.6557 224.679 83.6947L225.917 82.1235C223.658 80.3443 221.891 77.8521 220.641 74.5961L218.774 75.313ZM224.69 83.7032C227.341 85.7323 230.532 86.7273 234.207 86.7273V84.7273C230.913 84.7273 228.164 83.8434 225.906 82.115L224.69 83.7032ZM234.207 86.7273C238.03 86.7273 241.305 85.7037 243.964 83.6028L242.724 82.0335C240.473 83.8115 237.657 84.7273 234.207 84.7273V86.7273ZM243.97 83.5981C246.586 81.4982 248.533 78.6558 249.828 75.1165L247.95 74.429C246.761 77.6776 245.01 80.1988 242.718 82.0383L243.97 83.5981ZM249.826 75.1211C251.148 71.5661 251.798 67.5509 251.798 63.0909H249.798C249.798 67.3582 249.176 71.1309 247.952 74.4243L249.826 75.1211ZM251.798 63.0909C251.798 58.6633 251.164 54.694 249.873 51.199L247.996 51.8919C249.19 55.1242 249.798 58.8519 249.798 63.0909H251.798ZM249.873 51.199C248.576 47.6877 246.626 44.8873 244.003 42.847L242.775 44.4257C245.061 46.2036 246.809 48.6759 247.996 51.8919L249.873 51.199ZM244.003 42.847C241.343 40.778 238.055 39.7727 234.207 39.7727V41.7727C237.693 41.7727 240.526 42.6765 242.775 44.4257L244.003 42.847ZM234.207 39.7727C230.508 39.7727 227.303 40.7492 224.651 42.7466L225.854 44.3443C228.111 42.6447 230.877 41.7727 234.207 41.7727V39.7727ZM224.651 42.7466C222.023 44.7255 220.056 47.4813 218.728 50.9615L220.596 51.6749C221.813 48.4884 223.573 46.0623 225.854 44.3443L224.651 42.7466ZM218.725 50.9689C217.431 54.4395 216.798 58.4872 216.798 63.0909H218.798C218.798 58.6643 219.408 54.8635 220.599 51.6674L218.725 50.9689ZM304.583 99.4545L304.573 100.454L304.576 100.455L304.583 99.4545ZM289.083 94.7273L288.513 95.5489L288.516 95.5507L289.083 94.7273ZM278.629 81.9091L279.537 81.4904L279.537 81.4904L278.629 81.9091ZM278.81 44.4545L279.708 44.8957L279.709 44.8937L278.81 44.4545ZM289.583 31.8182L289.028 30.9861L289.028 30.9861L289.583 31.8182ZM315.538 29.4545L315.112 30.3594L315.119 30.3628L315.538 29.4545ZM323.492 35.5L322.73 36.1471L322.734 36.1515L323.492 35.5ZM328.856 44.5455L327.926 44.9126L328.176 45.5455H328.856V44.5455ZM334.129 44.5455L335.108 44.3442L334.944 43.5455H334.129V44.5455ZM337.901 62.9091L336.922 63.1103L336.926 63.1305L336.931 63.1504L337.901 62.9091ZM346.629 98V99H347.908L347.599 97.7586L346.629 98ZM333.356 98L332.382 98.2271L332.562 99H333.356V98ZM325.174 62.9091L324.194 63.1052L324.197 63.1207L324.2 63.1362L325.174 62.9091ZM323.174 55.6818L322.228 56.0047L322.229 56.0082L323.174 55.6818ZM319.765 48.4545L318.913 48.9774L318.916 48.9825L319.765 48.4545ZM314.538 42.9091L313.969 43.7317L313.975 43.7356L314.538 42.9091ZM298.538 43.6364L299.155 44.423L299.156 44.422L298.538 43.6364ZM292.947 51.5L292.017 51.1315L292.014 51.1388L292.947 51.5ZM292.901 74.7273L291.963 75.073L291.967 75.0829L292.901 74.7273ZM298.356 82.8182L297.711 83.5823L297.717 83.5872L298.356 82.8182ZM313.765 83.5455L314.331 84.3702L314.338 84.3647L313.765 83.5455ZM319.22 77.8636L320.055 78.4133L320.058 78.4082L319.22 77.8636ZM322.947 70.5L322.013 70.1417L322.011 70.1477L322.947 70.5ZM325.174 63.2727L326.151 63.4868L326.153 63.4793L325.174 63.2727ZM332.583 28.1818V27.1818H331.772L331.605 27.9752L332.583 28.1818ZM345.72 28.1818L346.696 28.3993L346.967 27.1818H345.72V28.1818ZM337.901 63.2727L336.925 63.0553L336.924 63.0629L336.922 63.0705L337.901 63.2727ZM334.129 81.5455V82.5455H334.943L335.108 81.7477L334.129 81.5455ZM329.174 81.5455V80.5455H328.488L328.241 81.1854L329.174 81.5455ZM323.81 90.8182L323.038 90.1831L323.037 90.184L323.81 90.8182ZM304.594 98.4546C298.929 98.3959 293.959 96.8733 289.651 93.9039L288.516 95.5507C293.177 98.763 298.541 100.392 304.573 100.454L304.594 98.4546ZM289.653 93.9057C285.361 90.9272 281.985 86.8008 279.537 81.4904L277.721 82.3278C280.302 87.9265 283.897 92.3455 288.513 95.5489L289.653 93.9057ZM279.537 81.4904C277.092 76.1887 275.856 70.0631 275.856 63.0909H273.856C273.856 70.3006 275.135 76.7204 277.721 82.3278L279.537 81.4904ZM275.856 63.0909C275.856 56.1557 277.15 50.0993 279.708 44.8957L277.913 44.0134C275.198 49.5371 273.856 55.9049 273.856 63.0909H275.856ZM279.709 44.8937C282.275 39.6426 285.754 35.5728 290.138 32.6502L289.028 30.9861C284.321 34.1242 280.618 38.4786 277.912 44.0154L279.709 44.8937ZM290.138 32.6502C294.511 29.7349 299.452 28.2727 304.992 28.2727V26.2727C299.078 26.2727 293.746 27.8409 289.028 30.9861L290.138 32.6502ZM304.992 28.2727C308.807 28.2727 312.173 28.9764 315.112 30.3594L315.964 28.5497C312.72 27.0236 309.056 26.2727 304.992 26.2727V28.2727ZM315.119 30.3628C318.077 31.7258 320.612 33.6516 322.73 36.1471L324.255 34.8529C321.949 32.1363 319.18 30.0318 315.956 28.5463L315.119 30.3628ZM322.734 36.1515C324.867 38.6352 326.599 41.5521 327.926 44.9126L329.786 44.1783C328.385 40.6298 326.542 37.5164 324.251 34.8485L322.734 36.1515ZM328.856 45.5455H334.129V43.5455H328.856V45.5455ZM333.149 44.7467L336.922 63.1103L338.881 62.7078L335.108 44.3442L333.149 44.7467ZM336.931 63.1504L345.658 98.2414L347.599 97.7586L338.872 62.6677L336.931 63.1504ZM346.629 97H333.356V99H346.629V97ZM334.33 97.7729L326.148 62.682L324.2 63.1362L332.382 98.2271L334.33 97.7729ZM326.155 62.713C325.69 60.3897 325.011 57.9369 324.119 55.3555L322.229 56.0082C323.095 58.5177 323.749 60.883 324.194 63.1052L326.155 62.713ZM324.121 55.3589C323.218 52.7136 322.05 50.2354 320.614 47.9266L318.916 48.9825C320.268 51.1585 321.373 53.4986 322.228 56.0047L324.121 55.3589ZM320.617 47.9317C319.154 45.5451 317.315 43.5907 315.101 42.0826L313.975 43.7356C315.943 45.0759 317.589 46.8186 318.913 48.9774L320.617 47.9317ZM315.106 42.0865C312.855 40.5301 310.179 39.7727 307.129 39.7727V41.7727C309.836 41.7727 312.1 42.4396 313.969 43.7317L315.106 42.0865ZM307.129 39.7727C303.618 39.7727 300.532 40.7927 297.919 42.8507L299.156 44.422C301.392 42.6619 304.033 41.7727 307.129 41.7727V39.7727ZM297.92 42.8497C295.363 44.8568 293.403 47.6345 292.017 51.1315L293.876 51.8685C295.157 48.6382 296.925 46.1735 299.155 44.423L297.92 42.8497ZM292.014 51.1388C290.659 54.6382 289.992 58.6128 289.992 63.0455H291.992C291.992 58.8114 292.629 55.089 293.879 51.8612L292.014 51.1388ZM289.992 63.0455C289.992 67.4763 290.643 71.4901 291.963 75.073L293.84 74.3816C292.614 71.0554 291.992 67.2813 291.992 63.0455H289.992ZM291.967 75.0829C293.318 78.6341 295.224 81.4833 297.711 83.5823L299.001 82.054C296.821 80.2137 295.091 77.669 293.836 74.3716L291.967 75.0829ZM297.717 83.5872C300.231 85.6773 303.155 86.7273 306.447 86.7273V84.7273C303.617 84.7273 301.147 83.8379 298.995 82.0491L297.717 83.5872ZM306.447 86.7273C309.391 86.7273 312.031 85.9473 314.331 84.3702L313.199 82.7207C311.257 84.0527 309.018 84.7273 306.447 84.7273V86.7273ZM314.338 84.3647C316.57 82.8027 318.475 80.815 320.055 78.4133L318.384 77.314C316.934 79.5183 315.203 81.3185 313.192 82.7262L314.338 84.3647ZM320.058 78.4082C321.612 76.0152 322.887 73.4962 323.883 70.8523L322.011 70.1477C321.067 72.6553 319.857 75.0454 318.381 77.319L320.058 78.4082ZM323.88 70.8583C324.894 68.2156 325.653 65.7577 326.151 63.4868L324.197 63.0586C323.725 65.212 322.999 67.5723 322.013 70.1417L323.88 70.8583ZM326.153 63.4793L333.562 28.3884L331.605 27.9752L324.196 63.0661L326.153 63.4793ZM332.583 29.1818H345.72V27.1818H332.583V29.1818ZM344.743 27.9644L336.925 63.0553L338.877 63.4902L346.696 28.3993L344.743 27.9644ZM336.922 63.0705L333.149 81.3433L335.108 81.7477L338.881 63.4749L336.922 63.0705ZM334.129 80.5455H329.174V82.5455H334.129V80.5455ZM328.241 81.1854C326.944 84.5452 325.209 87.5423 323.038 90.1831L324.583 91.4533C326.896 88.6395 328.737 85.4548 330.107 81.9055L328.241 81.1854ZM323.037 90.184C320.918 92.7677 318.336 94.7991 315.283 96.2823L316.156 98.0813C319.466 96.4737 322.279 94.2626 324.584 91.4524L323.037 90.184ZM315.283 96.2823C312.264 97.7485 308.709 98.484 304.59 98.4546L304.576 100.455C308.942 100.486 312.811 99.7061 316.156 98.0813L315.283 96.2823ZM356.88 98H355.88V99H356.88V98ZM356.88 28.1818V27.1818H355.88V28.1818H356.88ZM372.834 28.1818H373.834V27.1818H372.834V28.1818ZM372.834 39.8182H371.834V40.8182H372.834V39.8182ZM373.561 39.8182V40.8182H374.294L374.515 40.1193L373.561 39.8182ZM380.107 30.5L380.683 31.317L380.685 31.3159L380.107 30.5ZM393.834 27.3182L393.753 28.3149L393.767 28.316L393.782 28.3168L393.834 27.3182ZM396.698 27.6364H397.698V26.8166L396.894 26.6558L396.698 27.6364ZM396.698 42.7727L396.369 43.7172L397.698 44.1793V42.7727H396.698ZM393.38 42.1364L393.238 43.1263L393.249 43.1279L393.26 43.1292L393.38 42.1364ZM380.97 43.7727L381.445 44.6532L381.449 44.651L380.97 43.7727ZM373.334 98V99H374.334V98H373.334ZM357.88 98V28.1818H355.88V98H357.88ZM356.88 29.1818H372.834V27.1818H356.88V29.1818ZM371.834 28.1818V39.8182H373.834V28.1818H371.834ZM372.834 40.8182H373.561V38.8182H372.834V40.8182ZM374.515 40.1193C375.73 36.2718 377.792 33.358 380.683 31.317L379.53 29.683C376.24 32.0057 373.938 35.3039 372.608 39.517L374.515 40.1193ZM380.685 31.3159C383.629 29.2292 386.986 28.1818 390.789 28.1818V26.1818C386.591 26.1818 382.827 27.3465 379.529 29.6841L380.685 31.3159ZM390.789 28.1818C391.665 28.1818 392.653 28.2257 393.753 28.3149L393.915 26.3214C392.773 26.2288 391.73 26.1818 390.789 26.1818V28.1818ZM393.782 28.3168C394.906 28.376 395.808 28.4783 396.502 28.6169L396.894 26.6558C396.072 26.4914 395.065 26.3816 393.887 26.3196L393.782 28.3168ZM395.698 27.6364V42.7727H397.698V27.6364H395.698ZM397.026 41.8282C396.222 41.5485 395.026 41.3268 393.499 41.1435L393.26 43.1292C394.763 43.3095 395.779 43.5121 396.369 43.7172L397.026 41.8282ZM393.521 41.1464C391.993 40.9281 390.506 40.8182 389.061 40.8182V42.8182C390.405 42.8182 391.797 42.9204 393.238 43.1263L393.521 41.1464ZM389.061 40.8182C385.912 40.8182 383.047 41.5037 380.492 42.8944L381.449 44.651C383.681 43.4357 386.211 42.8182 389.061 42.8182V40.8182ZM380.496 42.8923C377.976 44.2491 375.979 46.1474 374.522 48.5764L376.237 49.6054C377.507 47.489 379.237 45.8418 381.445 44.6532L380.496 42.8923ZM374.522 48.5764C373.054 51.0227 372.334 53.826 372.334 56.9545H374.334C374.334 54.1437 374.978 51.7046 376.237 49.6054L374.522 48.5764ZM372.334 56.9545V98H374.334V56.9545H372.334ZM373.334 97H356.88V99H373.334V97ZM399.247 83.72L398.64 82.9256L398.64 82.9256L399.247 83.72ZM399.511 87.8L400.207 87.0817L400.202 87.077L399.511 87.8ZM401.479 89.384L400.906 90.2032L400.915 90.2097L400.924 90.216L401.479 89.384ZM403.159 90.56L402.539 91.3449L402.539 91.3449L403.159 90.56ZM404.263 91.544L404.97 90.8369L404.963 90.8302L404.957 90.8237L404.263 91.544ZM404.095 97.28L404.702 98.0748L404.704 98.0732L404.095 97.28ZM396.391 97.04L395.566 96.4745L395.033 97.252L395.778 97.83L396.391 97.04ZM396.967 96.2L397.527 95.3717L396.704 94.8149L396.142 95.6345L396.967 96.2ZM403.255 96.536L402.658 95.7337L402.649 95.7406L403.255 96.536ZM403.255 92.168L402.548 92.8752L402.556 92.8834L403.255 92.168ZM401.311 90.608L400.738 91.4273L400.745 91.4325L401.311 90.608ZM399.631 89.408L399.006 90.1889L399.018 90.1986L399.031 90.208L399.631 89.408ZM398.503 88.4L397.796 89.1071L397.803 89.1138L397.809 89.1203L398.503 88.4ZM398.407 83.048L397.786 82.2639L397.778 82.2704L398.407 83.048ZM405.199 82.928L406.108 83.3455L406.514 82.461L405.641 82.0309L405.199 82.928ZM404.791 83.816L404.355 84.7162L405.274 85.1605L405.7 84.2335L404.791 83.816ZM401.359 82.096C400.334 82.096 399.399 82.3447 398.64 82.9256L399.854 84.5144C400.183 84.2633 400.656 84.096 401.359 84.096V82.096ZM398.64 82.9256C397.821 83.5512 397.431 84.4437 397.431 85.472H399.431C399.431 84.9963 399.585 84.7208 399.854 84.5144L398.64 82.9256ZM397.431 85.472C397.431 86.6515 397.936 87.6778 398.82 88.523L400.202 87.077C399.646 86.5462 399.431 86.0205 399.431 85.472H397.431ZM398.815 88.5182C399.376 89.0617 400.077 89.6231 400.906 90.2032L402.052 88.5648C401.281 88.0249 400.67 87.5303 400.207 87.0818L398.815 88.5182ZM400.924 90.216C401.742 90.7609 402.271 91.1327 402.539 91.3449L403.779 89.7751C403.439 89.5073 402.848 89.0951 402.034 88.5519L400.924 90.216ZM402.539 91.3449C402.808 91.5568 403.15 91.8602 403.569 92.2643L404.957 90.8237C404.512 90.3958 404.118 90.0432 403.779 89.7751L402.539 91.3449ZM403.556 92.2511C404.169 92.8647 404.439 93.5205 404.439 94.256H406.439C406.439 92.9435 405.925 91.7913 404.97 90.8369L403.556 92.2511ZM404.439 94.256C404.439 95.3347 404.091 96.0227 403.486 96.4868L404.704 98.0732C405.891 97.1613 406.439 95.8333 406.439 94.256H404.439ZM403.488 96.4852C402.845 96.9764 401.85 97.288 400.375 97.288V99.288C402.1 99.288 403.585 98.9276 404.702 98.0748L403.488 96.4852ZM400.375 97.288C398.974 97.288 397.872 96.9239 397.004 96.25L395.778 97.83C397.054 98.8201 398.608 99.288 400.375 99.288V97.288ZM397.216 97.6055L397.792 96.7655L396.142 95.6345L395.566 96.4745L397.216 97.6055ZM396.407 97.0283C397.646 97.8668 398.991 98.304 400.423 98.304V96.304C399.423 96.304 398.464 96.0052 397.527 95.3717L396.407 97.0283ZM400.423 98.304C401.765 98.304 402.953 98.0232 403.861 97.3314L402.649 95.7406C402.213 96.0728 401.513 96.304 400.423 96.304V98.304ZM403.852 97.3382C404.817 96.6202 405.287 95.5899 405.287 94.376H403.287C403.287 95.0181 403.069 95.4278 402.658 95.7338L403.852 97.3382ZM405.287 94.376C405.287 93.2534 404.793 92.2719 403.954 91.4526L402.556 92.8834C403.093 93.4081 403.287 93.8986 403.287 94.376H405.287ZM403.962 91.4609C403.424 90.9228 402.723 90.364 401.877 89.7835L400.745 91.4325C401.531 91.972 402.126 92.4532 402.548 92.8751L403.962 91.4609ZM401.884 89.7888C401.084 89.2287 400.536 88.8371 400.231 88.608L399.031 90.208C399.366 90.4589 399.938 90.8673 400.738 91.4272L401.884 89.7888ZM400.256 88.6271C399.968 88.3968 399.616 88.0832 399.197 87.6797L397.809 89.1203C398.254 89.5488 398.654 89.9072 399.006 90.1889L400.256 88.6271ZM399.21 87.6929C398.566 87.0486 398.279 86.3532 398.279 85.568H396.279C396.279 86.9268 396.808 88.1194 397.796 89.1071L399.21 87.6929ZM398.279 85.568C398.279 84.7607 398.546 84.2215 399.036 83.8256L397.778 82.2704C396.764 83.0905 396.279 84.2313 396.279 85.568H398.279ZM399.028 83.832C399.563 83.4079 400.373 83.136 401.575 83.136V81.136C400.089 81.136 398.787 81.4721 397.786 82.264L399.028 83.832ZM401.575 83.136C402.785 83.136 403.839 83.3728 404.757 83.8251L405.641 82.0309C404.415 81.4272 403.053 81.136 401.575 81.136V83.136ZM404.29 82.5105L403.882 83.3985L405.7 84.2335L406.108 83.3455L404.29 82.5105ZM405.227 82.9158C404.077 82.3595 402.779 82.096 401.359 82.096V84.096C402.531 84.096 403.521 84.3125 404.355 84.7162L405.227 82.9158ZM411.927 83.408H412.927V82.408H411.927V83.408ZM406.647 83.408H405.647V84.408H406.647V83.408ZM406.647 82.424V81.424H405.647V82.424H406.647ZM418.287 82.424H419.287V81.424H418.287V82.424ZM418.287 83.408V84.408H419.287V83.408H418.287ZM413.007 83.408V82.408H412.007V83.408H413.007ZM413.007 98V99H414.007V98H413.007ZM411.927 98H410.927V99H411.927V98ZM411.927 82.408H406.647V84.408H411.927V82.408ZM407.647 83.408V82.424H405.647V83.408H407.647ZM406.647 83.424H418.287V81.424H406.647V83.424ZM417.287 82.424V83.408H419.287V82.424H417.287ZM418.287 82.408H413.007V84.408H418.287V82.408ZM412.007 83.408V98H414.007V83.408H412.007ZM413.007 97H411.927V99H413.007V97ZM412.927 98V83.408H410.927V98H412.927ZM431.91 96.392L432.669 97.0428L432.669 97.0428L431.91 96.392ZM422.262 96.392L421.503 97.0428L421.503 97.0428L422.262 96.392ZM420.678 82.424V81.424H419.678V82.424H420.678ZM421.782 82.424H422.782V81.424H421.782V82.424ZM432.39 82.424V81.424H431.39V82.424H432.39ZM433.494 82.424H434.494V81.424H433.494V82.424ZM431.151 95.7412C430.342 96.6841 429.056 97.24 427.086 97.24V99.24C429.435 99.24 431.365 98.5639 432.669 97.0428L431.151 95.7412ZM427.086 97.24C425.115 97.24 423.829 96.6841 423.021 95.7412L421.503 97.0428C422.806 98.5639 424.736 99.24 427.086 99.24V97.24ZM423.021 95.7412C422.167 94.7443 421.678 93.2994 421.678 91.28H419.678C419.678 93.6126 420.245 95.5757 421.503 97.0428L423.021 95.7412ZM421.678 91.28V82.424H419.678V91.28H421.678ZM420.678 83.424H421.782V81.424H420.678V83.424ZM420.782 82.424V91.28H422.782V82.424H420.782ZM420.782 91.28C420.782 93.3987 421.249 95.1745 422.36 96.4258C423.491 97.6998 425.131 98.256 427.086 98.256V96.256C425.505 96.256 424.493 95.8162 423.856 95.0982C423.198 94.3575 422.782 93.1453 422.782 91.28H420.782ZM427.086 98.256C429.041 98.256 430.681 97.6998 431.812 96.4258C432.922 95.1745 433.39 93.3987 433.39 91.28H431.39C431.39 93.1453 430.973 94.3575 430.316 95.0982C429.679 95.8162 428.667 96.256 427.086 96.256V98.256ZM433.39 91.28V82.424H431.39V91.28H433.39ZM432.39 83.424H433.494V81.424H432.39V83.424ZM432.494 82.424V91.28H434.494V82.424H432.494ZM432.494 91.28C432.494 93.2994 432.005 94.7443 431.151 95.7412L432.669 97.0428C433.927 95.5757 434.494 93.6126 434.494 91.28H432.494ZM448.295 95.528L447.633 94.779L447.628 94.7833L448.295 95.528ZM448.055 85.232L447.369 85.9597L447.373 85.9636L448.055 85.232ZM439.535 83.36L439.454 82.3633L438.535 82.4383V83.36H439.535ZM439.535 97.016H438.535V97.9061L439.419 98.0093L439.535 97.016ZM448.895 84.512L448.214 85.2443L448.222 85.2513L448.895 84.512ZM449.087 96.272L448.435 95.5139L448.431 95.5174L449.087 96.272ZM438.383 97.952H437.383V98.8629L438.29 98.9477L438.383 97.952ZM438.383 82.424L438.308 81.4268L437.383 81.4962V82.424H438.383ZM443.375 98.184C445.608 98.184 447.506 97.5778 448.962 96.2727L447.628 94.7833C446.62 95.6862 445.238 96.184 443.375 96.184V98.184ZM448.958 96.277C450.486 94.9252 451.167 92.9455 451.167 90.536H449.167C449.167 92.5745 448.6 93.9228 447.633 94.779L448.958 96.277ZM451.167 90.536C451.167 88.0818 450.38 86.0315 448.737 84.5004L447.373 85.9636C448.546 87.0565 449.167 88.5422 449.167 90.536H451.167ZM448.741 84.5043C447.15 83.0043 445.178 82.264 442.895 82.264V84.264C444.708 84.264 446.177 84.8357 447.369 85.9597L448.741 84.5043ZM442.895 82.264C441.431 82.264 440.279 82.296 439.454 82.3633L439.616 84.3567C440.36 84.296 441.448 84.264 442.895 84.264V82.264ZM438.535 83.36V97.016H440.535V83.36H438.535ZM439.419 98.0093C440.434 98.1277 441.758 98.184 443.375 98.184V96.184C441.792 96.184 440.556 96.1283 439.651 96.0227L439.419 98.0093ZM442.895 83.28C445.069 83.28 446.818 83.9459 448.214 85.2443L449.576 83.7797C447.772 82.1021 445.521 81.28 442.895 81.28V83.28ZM448.222 85.2513C449.595 86.5022 450.319 88.2228 450.319 90.536H452.319C452.319 87.7612 451.427 85.4658 449.569 83.7727L448.222 85.2513ZM450.319 90.536C450.319 92.8809 449.641 94.4767 448.435 95.5139L449.739 97.0301C451.51 95.5073 452.319 93.2791 452.319 90.536H450.319ZM448.431 95.5174C447.175 96.6092 445.52 97.192 443.375 97.192V99.192C445.902 99.192 448.055 98.4948 449.743 97.0266L448.431 95.5174ZM443.375 97.192C441.792 97.192 440.159 97.1136 438.476 96.9563L438.29 98.9477C440.031 99.1104 441.726 99.192 443.375 99.192V97.192ZM439.383 97.952V82.424H437.383V97.952H439.383ZM438.458 83.4212C439.706 83.3276 441.184 83.28 442.895 83.28V81.28C441.15 81.28 439.62 81.3284 438.308 81.4268L438.458 83.4212ZM455.405 98H454.405V99H455.405V98ZM455.405 82.424V81.424H454.405V82.424H455.405ZM456.509 82.424H457.509V81.424H456.509V82.424ZM456.509 98V99H457.509V98H456.509ZM456.405 98V82.424H454.405V98H456.405ZM455.405 83.424H456.509V81.424H455.405V83.424ZM455.509 82.424V98H457.509V82.424H455.509ZM456.509 97H455.405V99H456.509V97ZM462.848 95.912L463.567 95.2161L462.848 95.912ZM462.848 84.512L463.567 85.2079L463.567 85.2079L462.848 84.512ZM474.032 84.512L474.751 83.8161L474.751 83.8161L474.032 84.512ZM474.032 95.912L474.751 96.6079L474.751 96.6079L474.032 95.912ZM463.64 85.208L462.912 84.5226L462.908 84.5272L463.64 85.208ZM463.64 95.216L462.908 95.8968L462.916 95.9057L463.64 95.216ZM473.24 95.216L473.969 95.9011L473.973 95.8968L473.24 95.216ZM473.24 85.208L473.973 84.5272L473.973 84.5272L473.24 85.208ZM468.44 97.24C466.478 97.24 464.876 96.5675 463.567 95.2161L462.13 96.6079C463.829 98.3605 465.955 99.24 468.44 99.24V97.24ZM463.567 95.2161C462.251 93.8581 461.592 92.2147 461.592 90.224H459.592C459.592 92.7133 460.438 94.8619 462.13 96.6079L463.567 95.2161ZM461.592 90.224C461.592 88.2151 462.252 86.5645 463.567 85.2079L462.13 83.8161C460.437 85.5635 459.592 87.7209 459.592 90.224H461.592ZM463.567 85.2079C464.876 83.8565 466.478 83.184 468.44 83.184V81.184C465.955 81.184 463.829 82.0635 462.13 83.8161L463.567 85.2079ZM468.44 83.184C470.403 83.184 472.005 83.8565 473.314 85.2079L474.751 83.8161C473.052 82.0635 470.926 81.184 468.44 81.184V83.184ZM473.314 85.2079C474.629 86.5645 475.288 88.2151 475.288 90.224H477.288C477.288 87.7209 476.444 85.5635 474.751 83.8161L473.314 85.2079ZM475.288 90.224C475.288 92.2147 474.63 93.8581 473.314 95.2161L474.751 96.6079C476.443 94.8619 477.288 92.7133 477.288 90.224H475.288ZM473.314 95.2161C472.005 96.5675 470.403 97.24 468.44 97.24V99.24C470.926 99.24 473.052 98.3605 474.751 96.6079L473.314 95.2161ZM468.44 82.168C466.253 82.168 464.387 82.9556 462.912 84.5226L464.369 85.8934C465.454 84.7404 466.787 84.168 468.44 84.168V82.168ZM462.908 84.5272C461.46 86.0857 460.744 88.0064 460.744 90.224H462.744C462.744 88.4736 463.293 87.0503 464.373 85.8888L462.908 84.5272ZM460.744 90.224C460.744 92.4279 461.461 94.34 462.908 95.8968L464.373 94.5352C463.292 93.372 462.744 91.9561 462.744 90.224H460.744ZM462.916 95.9057C464.392 97.4554 466.257 98.232 468.44 98.232V96.232C466.784 96.232 465.449 95.6646 464.365 94.5263L462.916 95.9057ZM468.44 98.232C470.637 98.232 472.506 97.4569 473.969 95.9011L472.512 94.5309C471.447 95.6631 470.116 96.232 468.44 96.232V98.232ZM473.973 95.8968C475.42 94.34 476.136 92.4279 476.136 90.224H474.136C474.136 91.9561 473.589 93.372 472.508 94.5352L473.973 95.8968ZM476.136 90.224C476.136 88.0064 475.421 86.0857 473.973 84.5272L472.508 85.8888C473.588 87.0503 474.136 88.4736 474.136 90.224H476.136ZM473.973 84.5272C472.511 82.954 470.641 82.168 468.44 82.168V84.168C470.112 84.168 471.442 84.742 472.508 85.8888L473.973 84.5272ZM481.411 83.72L480.804 82.9256L480.804 82.9256L481.411 83.72ZM481.675 87.8L482.371 87.0817L482.366 87.077L481.675 87.8ZM483.643 89.384L483.07 90.2032L483.079 90.2097L483.089 90.216L483.643 89.384ZM485.323 90.56L484.704 91.3449L484.704 91.3449L485.323 90.56ZM486.427 91.544L487.134 90.8369L487.128 90.8302L487.121 90.8237L486.427 91.544ZM486.259 97.28L486.866 98.0748L486.868 98.0732L486.259 97.28ZM478.555 97.04L477.731 96.4745L477.198 97.252L477.942 97.83L478.555 97.04ZM479.131 96.2L479.692 95.3717L478.869 94.8149L478.307 95.6345L479.131 96.2ZM485.419 96.536L484.822 95.7337L484.813 95.7406L485.419 96.536ZM485.419 92.168L484.712 92.8752L484.721 92.8834L485.419 92.168ZM483.475 90.608L482.902 91.4273L482.91 91.4325L483.475 90.608ZM481.795 89.408L481.171 90.1889L481.183 90.1986L481.195 90.208L481.795 89.408ZM480.667 88.4L479.96 89.1071L479.967 89.1138L479.974 89.1203L480.667 88.4ZM480.571 83.048L479.951 82.2639L479.943 82.2704L480.571 83.048ZM487.363 82.928L488.272 83.3455L488.678 82.461L487.805 82.0309L487.363 82.928ZM486.955 83.816L486.52 84.7162L487.438 85.1605L487.864 84.2335L486.955 83.816ZM483.523 82.096C482.498 82.096 481.564 82.3447 480.804 82.9256L482.019 84.5144C482.347 84.2633 482.821 84.096 483.523 84.096V82.096ZM480.804 82.9256C479.986 83.5512 479.595 84.4437 479.595 85.472H481.595C481.595 84.9963 481.749 84.7208 482.019 84.5144L480.804 82.9256ZM479.595 85.472C479.595 86.6515 480.1 87.6778 480.985 88.523L482.366 87.077C481.811 86.5462 481.595 86.0205 481.595 85.472H479.595ZM480.98 88.5182C481.541 89.0617 482.241 89.6231 483.07 90.2032L484.217 88.5648C483.446 88.0249 482.834 87.5303 482.371 87.0818L480.98 88.5182ZM483.089 90.216C483.906 90.7609 484.435 91.1327 484.704 91.3449L485.943 89.7751C485.604 89.5073 485.013 89.0951 484.198 88.5519L483.089 90.216ZM484.704 91.3449C484.972 91.5568 485.314 91.8602 485.734 92.2643L487.121 90.8237C486.677 90.3958 486.283 90.0432 485.943 89.7751L484.704 91.3449ZM485.72 92.2511C486.334 92.8647 486.603 93.5205 486.603 94.256H488.603C488.603 92.9435 488.089 91.7913 487.134 90.8369L485.72 92.2511ZM486.603 94.256C486.603 95.3347 486.255 96.0227 485.65 96.4868L486.868 98.0732C488.056 97.1613 488.603 95.8333 488.603 94.256H486.603ZM485.652 96.4852C485.009 96.9764 484.014 97.288 482.539 97.288V99.288C484.264 99.288 485.75 98.9276 486.866 98.0748L485.652 96.4852ZM482.539 97.288C481.139 97.288 480.037 96.9239 479.169 96.25L477.942 97.83C479.218 98.8201 480.772 99.288 482.539 99.288V97.288ZM479.38 97.6055L479.956 96.7655L478.307 95.6345L477.731 96.4745L479.38 97.6055ZM478.571 97.0283C479.811 97.8668 481.155 98.304 482.587 98.304V96.304C481.587 96.304 480.628 96.0052 479.692 95.3717L478.571 97.0283ZM482.587 98.304C483.929 98.304 485.117 98.0232 486.025 97.3314L484.813 95.7406C484.377 96.0728 483.678 96.304 482.587 96.304V98.304ZM486.016 97.3382C486.981 96.6202 487.451 95.5899 487.451 94.376H485.451C485.451 95.0181 485.234 95.4278 484.822 95.7338L486.016 97.3382ZM487.451 94.376C487.451 93.2534 486.957 92.2719 486.118 91.4526L484.721 92.8834C485.258 93.4081 485.451 93.8986 485.451 94.376H487.451ZM486.126 91.4609C485.588 90.9228 484.887 90.364 484.041 89.7835L482.91 91.4325C483.696 91.972 484.29 92.4532 484.712 92.8751L486.126 91.4609ZM484.049 89.7888C483.249 89.2287 482.701 88.8371 482.395 88.608L481.195 90.208C481.53 90.4589 482.102 90.8673 482.902 91.4272L484.049 89.7888ZM482.42 88.6271C482.132 88.3968 481.78 88.0832 481.361 87.6797L479.974 89.1203C480.419 89.5488 480.819 89.9072 481.171 90.1889L482.42 88.6271ZM481.374 87.6929C480.73 87.0486 480.443 86.3532 480.443 85.568H478.443C478.443 86.9268 478.973 88.1194 479.96 89.1071L481.374 87.6929ZM480.443 85.568C480.443 84.7607 480.71 84.2215 481.2 83.8256L479.943 82.2704C478.928 83.0905 478.443 84.2313 478.443 85.568H480.443ZM481.192 83.832C481.728 83.4079 482.538 83.136 483.739 83.136V81.136C482.253 81.136 480.951 81.4721 479.951 82.264L481.192 83.832ZM483.739 83.136C484.949 83.136 486.003 83.3728 486.922 83.8251L487.805 82.0309C486.579 81.4272 485.217 81.136 483.739 81.136V83.136ZM486.455 82.5105L486.047 83.3985L487.864 84.2335L488.272 83.3455L486.455 82.5105ZM487.391 82.9158C486.241 82.3595 484.944 82.096 483.523 82.096V84.096C484.695 84.096 485.686 84.3125 486.52 84.7162L487.391 82.9158Z" fill="black" mask="url(#path-1-outside-1_613_6)"/>
</g>
<defs>
<filter id="filter0_d_613_6" x="0.272728" y="0.409058" width="491.331" height="131.773" filterUnits="userSpaceOnUse" color-interpolation-filters="sRGB">
<feFlood flood-opacity="0" result="BackgroundImageFix"/>
<feColorMatrix in="SourceAlpha" type="matrix" values="0 0 0 0 0 0 0 0 0 0 0 0 0 0 0 0 0 0 127 0" result="hardAlpha"/>
<feOffset dy="4"/>
<feGaussianBlur stdDeviation="2"/>
<feComposite in2="hardAlpha" operator="out"/>
<feColorMatrix type="matrix" values="0 0 0 0 0 0 0 0 0 0 0 0 0 0 0 0 0 0 0.25 0"/>
<feBlend mode="normal" in2="BackgroundImageFix" result="effect1_dropShadow_613_6"/>
<feBlend mode="normal" in="SourceGraphic" in2="effect1_dropShadow_613_6" result="shape"/>
</filter>
</defs>
</svg>
