<svg width="367" height="129" viewBox="0 0 367 129" fill="none" xmlns="http://www.w3.org/2000/svg">
<g filter="url(#filter0_d_641_6)">
<path d="M17.7727 24.1818H23.2727V102.5C23.2727 106.106 22.5303 109.227 21.0455 111.864C19.5606 114.53 17.5152 116.576 14.9091 118C12.3333 119.455 9.34848 120.182 5.95455 120.182C5.71212 120.182 5.45455 120.167 5.18182 120.136C4.90909 120.136 4.59091 120.106 4.22727 120.045L4.5 114.909C4.74242 114.909 4.9697 114.909 5.18182 114.909C5.39394 114.909 5.62121 114.909 5.86364 114.909C9.25758 114.909 12.0909 113.803 14.3636 111.591C16.6364 109.409 17.7727 106.379 17.7727 102.5V24.1818ZM20.5 11.8182C19.2576 11.8182 18.197 11.3939 17.3182 10.5454C16.4394 9.69697 16 8.66667 16 7.45454C16 6.24242 16.4394 5.21212 17.3182 4.36363C18.197 3.51515 19.2576 3.0909 20.5 3.0909C21.7121 3.0909 22.7576 3.51515 23.6364 4.36363C24.5152 5.21212 24.9545 6.24242 24.9545 7.45454C24.9545 8.66667 24.5152 9.69697 23.6364 10.5454C22.7576 11.3939 21.7121 11.8182 20.5 11.8182ZM121.775 94V0.909088H127.275V39.7727H127.82C128.911 36.7727 130.456 34.0151 132.456 31.5C134.456 28.9848 136.941 26.9697 139.911 25.4545C142.881 23.9091 146.35 23.1364 150.32 23.1364C155.926 23.1364 160.82 24.697 165.002 27.8182C169.184 30.9091 172.426 35.1818 174.729 40.6364C177.032 46.0606 178.184 52.2727 178.184 59.2727C178.184 66.3333 177.032 72.5909 174.729 78.0455C172.426 83.4697 169.199 87.7273 165.047 90.8182C160.896 93.9091 156.002 95.4545 150.365 95.4545C146.396 95.4545 142.926 94.697 139.956 93.1818C136.987 91.6364 134.502 89.6061 132.502 87.0909C130.502 84.5455 128.941 81.7727 127.82 78.7727H127.184V94H121.775ZM127.229 59.2273C127.229 65.1667 128.123 70.4848 129.911 75.1818C131.729 79.8485 134.335 83.5455 137.729 86.2727C141.123 88.9697 145.184 90.3182 149.911 90.3182C154.699 90.3182 158.79 88.9545 162.184 86.2273C165.578 83.4697 168.168 79.7424 169.956 75.0455C171.775 70.3485 172.684 65.0758 172.684 59.2273C172.684 53.3788 171.775 48.1212 169.956 43.4545C168.168 38.7879 165.578 35.1061 162.184 32.4091C158.79 29.6818 154.699 28.3182 149.911 28.3182C145.184 28.3182 141.123 29.6667 137.729 32.3636C134.335 35.0303 131.729 38.697 129.911 43.3636C128.123 48 127.229 53.2879 127.229 59.2273ZM195.435 94V0.909088H200.935V39.7727H201.48C202.571 36.7727 204.116 34.0151 206.116 31.5C208.116 28.9848 210.601 26.9697 213.571 25.4545C216.541 23.9091 220.01 23.1364 223.98 23.1364C229.586 23.1364 234.48 24.697 238.662 27.8182C242.844 30.9091 246.086 35.1818 248.389 40.6364C250.692 46.0606 251.844 52.2727 251.844 59.2727C251.844 66.3333 250.692 72.5909 248.389 78.0455C246.086 83.4697 242.859 87.7273 238.707 90.8182C234.556 93.9091 229.662 95.4545 224.025 95.4545C220.056 95.4545 216.586 94.697 213.616 93.1818C210.647 91.6364 208.162 89.6061 206.162 87.0909C204.162 84.5455 202.601 81.7727 201.48 78.7727H200.844V94H195.435ZM200.889 59.2273C200.889 65.1667 201.783 70.4848 203.571 75.1818C205.389 79.8485 207.995 83.5455 211.389 86.2727C214.783 88.9697 218.844 90.3182 223.571 90.3182C228.359 90.3182 232.45 88.9545 235.844 86.2273C239.238 83.4697 241.828 79.7424 243.616 75.0455C245.435 70.3485 246.344 65.0758 246.344 59.2273C246.344 53.3788 245.435 48.1212 243.616 43.4545C241.828 38.7879 239.238 35.1061 235.844 32.4091C232.45 29.6818 228.359 28.3182 223.571 28.3182C218.844 28.3182 214.783 29.6667 211.389 32.3636C207.995 35.0303 205.389 38.697 203.571 43.3636C201.783 48 200.889 53.2879 200.889 59.2273ZM285.64 95.5C281.61 95.5 277.913 94.697 274.549 93.0909C271.216 91.4848 268.534 89.1364 266.504 86.0455C264.504 82.9545 263.504 79.197 263.504 74.7727C263.504 71.8636 264.019 69.303 265.049 67.0909C266.079 64.8788 267.67 62.9697 269.822 61.3636C271.973 59.7576 274.731 58.4394 278.095 57.4091C281.458 56.3485 285.473 55.5303 290.14 54.9545C293.685 54.5303 296.852 54.1212 299.64 53.7273C302.428 53.303 304.61 52.6515 306.185 51.7727C307.792 50.8939 308.595 49.5606 308.595 47.7727V44.8636C308.595 39.7727 306.988 35.7273 303.776 32.7273C300.564 29.7273 296.14 28.2273 290.504 28.2273C285.504 28.2273 281.292 29.3333 277.867 31.5455C274.473 33.7273 272.095 36.5455 270.731 40L265.504 38.0455C266.837 34.7121 268.761 31.9394 271.276 29.7273C273.822 27.5151 276.731 25.8636 280.004 24.7727C283.307 23.6818 286.761 23.1364 290.367 23.1364C293.488 23.1364 296.458 23.5758 299.276 24.4545C302.125 25.3333 304.655 26.6667 306.867 28.4545C309.11 30.2424 310.882 32.5303 312.185 35.3182C313.488 38.0758 314.14 41.3788 314.14 45.2273V94H308.595V81.4091H308.185C306.973 84.0152 305.307 86.3939 303.185 88.5455C301.095 90.6667 298.564 92.3636 295.595 93.6364C292.655 94.8788 289.337 95.5 285.64 95.5ZM286.185 90.3636C290.549 90.3636 294.413 89.303 297.776 87.1818C301.17 85.0303 303.822 82.0909 305.731 78.3636C307.64 74.6364 308.595 70.4091 308.595 65.6818V55.4091C307.898 56.0151 306.882 56.5606 305.549 57.0455C304.246 57.5 302.761 57.9091 301.095 58.2727C299.458 58.6061 297.731 58.9091 295.913 59.1818C294.125 59.4242 292.382 59.6515 290.685 59.8636C285.595 60.4697 281.443 61.4091 278.231 62.6818C275.049 63.9242 272.716 65.5606 271.231 67.5909C269.776 69.6212 269.049 72.0758 269.049 74.9545C269.049 79.7121 270.685 83.4697 273.958 86.2273C277.231 88.9848 281.307 90.3636 286.185 90.3636ZM333.55 94V24.1818H338.959V35.0909H339.459C340.974 31.5152 343.535 28.6515 347.141 26.5C350.747 24.3182 354.853 23.2273 359.459 23.2273C359.944 23.2273 360.429 23.2273 360.914 23.2273C361.398 23.2273 361.853 23.2424 362.277 23.2727V28.8636C361.914 28.8333 361.474 28.7879 360.959 28.7273C360.474 28.6364 359.868 28.5909 359.141 28.5909C355.262 28.5909 351.808 29.4242 348.777 31.0909C345.777 32.7576 343.414 35.0606 341.686 38C339.959 40.9091 339.095 44.2424 339.095 48V94H333.55Z" fill="white"/>
<path d="M67.8418 95.4545C61.9024 95.4242 56.7509 93.8788 52.3873 90.8182C48.0236 87.7576 44.6448 83.5152 42.2509 78.0909C39.857 72.6364 38.66 66.3485 38.66 59.2273C38.66 52.197 39.9176 45.9848 42.4327 40.5909C44.9479 35.197 48.4176 30.9697 52.8418 27.9091C57.2661 24.8182 62.3418 23.2727 68.0691 23.2727C72.8267 23.2727 76.9933 24.2727 80.5691 26.2727C84.1448 28.2727 87.0994 31.1364 89.4327 34.8636C91.7661 38.5909 93.4479 43.0758 94.4782 48.3182H96.3873L97.7509 58.9091L104.796 94H99.5236L92.2964 56.5C91.5994 52.4697 90.5994 48.7576 89.2964 45.3636C87.9933 41.9394 86.357 38.9697 84.3873 36.4545C82.4479 33.9091 80.1297 31.9394 77.4327 30.5455C74.7358 29.1212 71.6145 28.4091 68.0691 28.4091C63.4024 28.4091 59.2661 29.7273 55.66 32.3636C52.0842 35 49.2812 38.6364 47.2509 43.2727C45.2206 47.9091 44.2055 53.2424 44.2055 59.2727C44.2055 65.3333 45.1752 70.697 47.1145 75.3636C49.0539 80.0303 51.7964 83.697 55.3418 86.3636C58.8873 89 63.0539 90.3182 67.8418 90.3182C70.963 90.3182 73.857 89.7121 76.5236 88.5C79.1903 87.2576 81.5691 85.4394 83.66 83.0455C85.7509 80.6212 87.5236 77.6667 88.9782 74.1818C90.463 70.6667 91.5539 66.6212 92.2509 62.0455L98.6145 24.1818H103.887L97.7509 59.2727L96.4782 70.0455H94.7964C93.5539 76.1667 91.5994 81.0909 88.9327 84.8182C86.2964 88.5455 83.16 91.2576 79.5236 92.9545C75.8873 94.6212 71.9933 95.4545 67.8418 95.4545Z" fill="#8341E6"/>
</g>
<defs>
<filter id="filter0_d_641_6" x="0.227295" y="0.909119" width="366.05" height="127.273" filterUnits="userSpaceOnUse" color-interpolation-filters="sRGB">
<feFlood flood-opacity="0" result="BackgroundImageFix"/>
<feColorMatrix in="SourceAlpha" type="matrix" values="0 0 0 0 0 0 0 0 0 0 0 0 0 0 0 0 0 0 127 0" result="hardAlpha"/>
<feOffset dy="4"/>
<feGaussianBlur stdDeviation="2"/>
<feComposite in2="hardAlpha" operator="out"/>
<feColorMatrix type="matrix" values="0 0 0 0 0 0 0 0 0 0 0 0 0 0 0 0 0 0 0.25 0"/>
<feBlend mode="normal" in2="BackgroundImageFix" result="effect1_dropShadow_641_6"/>
<feBlend mode="normal" in="SourceGraphic" in2="effect1_dropShadow_641_6" result="shape"/>
</filter>
</defs>
</svg>
